<?xml version="1.0" encoding="utf-8"?>
<!-- Generator: Adobe Illustrator 21.1.0, SVG Export Plug-In . SVG Version: 6.00 Build 0)  -->
<svg version="1.1" id="Main" xmlns="http://www.w3.org/2000/svg" xmlns:xlink="http://www.w3.org/1999/xlink" x="0px" y="0px"
	 viewBox="0 0 620 472" style="enable-background:new 0 0 620 472;" xml:space="preserve">
<style type="text/css">
	.st0{opacity:0.2;}
	.st1{fill:none;stroke:#547193;stroke-width:2;stroke-miterlimit:10;}
	.st2{fill:none;stroke:#547193;stroke-width:2;stroke-miterlimit:10;stroke-dasharray:4.2591,4.2591;}
	.st3{fill:none;stroke:#547193;stroke-width:2;stroke-miterlimit:10;stroke-dasharray:4.1764,4.1764;}
	.st4{opacity:0.4;clip-path:url(#SVGID_2_);fill:#E3F4FB;}
	.st5{opacity:0.15;}
	.st6{fill:none;stroke:#443B39;stroke-linecap:round;stroke-linejoin:round;stroke-miterlimit:10;}
	.st7{fill:#92DDB4;}
	.st8{fill:#F7F7E7;stroke:#1A1A1A;stroke-linejoin:round;stroke-miterlimit:10;}
	.st9{opacity:3.000000e-02;}
	.st10{fill:none;stroke:#1A1A1A;stroke-linejoin:round;stroke-miterlimit:10;}
	.st11{fill:#E8E9ED;stroke:#1A1A1A;stroke-linejoin:round;stroke-miterlimit:10;}
	.st12{opacity:0.15;fill:#1A1A1A;}
	.st13{fill:#DCDEE5;stroke:#1A1A1A;stroke-linejoin:round;stroke-miterlimit:10;}
	.st14{fill:#FFFFFF;stroke:#1A1A1A;stroke-linejoin:round;stroke-miterlimit:10;}
	.st15{fill:#F47373;stroke:#1A1A1A;stroke-linecap:round;stroke-linejoin:round;stroke-miterlimit:10;}
	.st16{fill:none;stroke:#1A1A1A;stroke-linecap:round;stroke-linejoin:round;stroke-miterlimit:10;}
	.st17{fill:#FFFFFF;stroke:#1A1A1A;stroke-width:2;stroke-linejoin:round;stroke-miterlimit:10;}
	.st18{fill:#F7F7F5;stroke:#1A1A1A;stroke-linejoin:round;stroke-miterlimit:10;}
	.st19{fill:#EF5656;stroke:#1A1A1A;stroke-linejoin:round;stroke-miterlimit:10;}
	.st20{fill:#C2E7F1;stroke:#1A1A1A;stroke-linejoin:round;stroke-miterlimit:10;}
	
		.st21{opacity:0.4;clip-path:url(#SVGID_4_);fill:none;stroke:#FFFFFF;stroke-width:20;stroke-linejoin:round;stroke-miterlimit:10;}
	
		.st22{opacity:0.4;clip-path:url(#SVGID_4_);fill:none;stroke:#FFFFFF;stroke-width:14;stroke-linejoin:round;stroke-miterlimit:10;}
	
		.st23{opacity:0.4;clip-path:url(#SVGID_4_);fill:none;stroke:#FFFFFF;stroke-width:10;stroke-linejoin:round;stroke-miterlimit:10;}
	.st24{opacity:0.7;clip-path:url(#SVGID_4_);}
	.st25{fill:none;stroke:#FFFFFF;stroke-linecap:round;stroke-linejoin:round;stroke-miterlimit:10;}
	.st26{fill:#F2ECBB;stroke:#1A1A1A;stroke-linejoin:round;stroke-miterlimit:10;}
	.st27{opacity:0.5;fill:none;stroke:#1A1A1A;stroke-linecap:round;stroke-linejoin:round;stroke-miterlimit:10;}
	.st28{fill:#FFFFFF;}
	.st29{fill:#333438;stroke:#333438;stroke-linejoin:round;stroke-miterlimit:10;}
	.st30{fill:#FCF6DE;stroke:#333438;stroke-linejoin:round;stroke-miterlimit:10;}
	.st31{fill:#4A4B4F;}
	.st32{opacity:0.5;fill:none;stroke:#1A1A1A;stroke-linecap:round;stroke-miterlimit:10;}
	.st33{fill:#333438;}
	.st34{fill:#70BA95;stroke:#443B39;stroke-miterlimit:10;}
	.st35{opacity:5.000000e-02;}
	.st36{fill:#E93F2B;}
	.st37{fill:#BABDC6;stroke:#1A1A1A;stroke-linejoin:round;stroke-miterlimit:10;}
	.st38{fill:#C2E7F1;stroke:#1A1A1A;stroke-linecap:round;stroke-linejoin:round;stroke-miterlimit:10;}
	.st39{fill:#FFF3EE;stroke:#1A1A1A;stroke-linecap:round;stroke-linejoin:round;stroke-miterlimit:10;}
	
		.st40{opacity:0.4;clip-path:url(#SVGID_6_);fill:none;stroke:#FFFFFF;stroke-width:12;stroke-linejoin:round;stroke-miterlimit:10;}
	
		.st41{opacity:0.4;clip-path:url(#SVGID_6_);fill:none;stroke:#FFFFFF;stroke-width:11;stroke-linejoin:round;stroke-miterlimit:10;}
	.st42{opacity:0.4;clip-path:url(#SVGID_8_);fill:none;stroke:#FFFFFF;stroke-width:6;stroke-linejoin:round;stroke-miterlimit:10;}
	.st43{opacity:0.4;clip-path:url(#SVGID_8_);fill:none;stroke:#FFFFFF;stroke-width:4;stroke-linejoin:round;stroke-miterlimit:10;}
	
		.st44{opacity:0.4;clip-path:url(#SVGID_8_);fill:none;stroke:#FFFFFF;stroke-width:10;stroke-linejoin:round;stroke-miterlimit:10;}
	.st45{opacity:0.4;clip-path:url(#SVGID_10_);fill:#E3F4FB;}
	.st46{opacity:0.15;clip-path:url(#SVGID_10_);}
	.st47{fill:#F4F4F4;stroke:#1A1A1A;stroke-linejoin:round;stroke-miterlimit:10;}
	.st48{fill:#878C93;stroke:#1A1A1A;stroke-linejoin:round;stroke-miterlimit:10;}
	.st49{fill:#118EBA;stroke:#1A1A1A;stroke-linecap:round;stroke-linejoin:round;stroke-miterlimit:10;}
	.st50{fill:#19ABDD;}
	.st51{opacity:0.1;}
	.st52{fill:#DEAC93;stroke:#1A1A1A;stroke-linejoin:round;stroke-miterlimit:10;}
	.st53{fill:#ECCCB7;stroke:#1A1A1A;stroke-linejoin:round;stroke-miterlimit:10;}
	.st54{opacity:0.12;fill:#1C1C1C;}
	.st55{fill:#CFD0D3;}
	.st56{opacity:0.1;fill:#1A1A1A;}
	.st57{fill:#38322A;stroke:#1C1C1C;stroke-linecap:round;stroke-linejoin:round;stroke-miterlimit:10;}
	.st58{fill:#969595;stroke:#1C1C1C;stroke-linecap:round;stroke-linejoin:round;stroke-miterlimit:10;}
	.st59{fill:none;stroke:#1C1C1C;stroke-linecap:round;stroke-linejoin:round;stroke-miterlimit:10;}
	.st60{fill:none;stroke:#1C1C1C;stroke-width:3;stroke-linecap:round;stroke-linejoin:round;stroke-miterlimit:10;}
	.st61{fill:#605E5C;stroke:#1A1A1A;stroke-linejoin:round;stroke-miterlimit:10;}
	.st62{fill:#A0A3AA;stroke:#1A1A1A;stroke-linejoin:round;stroke-miterlimit:10;}
	.st63{fill:#DBD8D5;stroke:#1A1A1A;stroke-linejoin:round;stroke-miterlimit:10;}
	.st64{fill:#827F79;stroke:#1C1C1C;stroke-linecap:round;stroke-linejoin:round;stroke-miterlimit:10;}
	.st65{fill:#FFE67B;stroke:#1C1C1C;stroke-linecap:round;stroke-linejoin:round;stroke-miterlimit:10;}
	.st66{fill:#FF4343;stroke:#1C1C1C;stroke-linecap:round;stroke-linejoin:round;stroke-miterlimit:10;}
	.st67{fill:#7E7E7E;stroke:#1C1C1C;stroke-linecap:round;stroke-linejoin:round;stroke-miterlimit:10;}
	.st68{fill:#9B9A9A;stroke:#1C1C1C;stroke-linecap:round;stroke-linejoin:round;stroke-miterlimit:10;}
	.st69{fill:#1C1C1C;}
	.st70{fill:#546C77;stroke:#1C1C1C;stroke-linecap:round;stroke-linejoin:round;stroke-miterlimit:10;}
	.st71{fill:#47515B;stroke:#1C1C1C;stroke-linecap:round;stroke-linejoin:round;stroke-miterlimit:10;}
	.st72{fill:none;stroke:#1C1C1C;stroke-width:2;stroke-linecap:round;stroke-linejoin:round;stroke-miterlimit:10;}
	.st73{fill:#D8B935;stroke:#1C1C1C;stroke-linecap:round;stroke-linejoin:round;stroke-miterlimit:10;}
	.st74{opacity:0.5;fill:none;stroke:#1C1C1C;stroke-linecap:round;stroke-linejoin:round;stroke-miterlimit:10;}
	.st75{opacity:0.3;fill:#FFFFFF;}
	.st76{fill:#D8AE7C;stroke:#1A1A1A;stroke-linejoin:round;stroke-miterlimit:10;}
	.st77{opacity:0.7;fill:#E8E9ED;stroke:#1A1A1A;stroke-linejoin:round;stroke-miterlimit:10;}
	.st78{fill:#EFE7DA;stroke:#1A1A1A;stroke-linejoin:round;stroke-miterlimit:10;}
	.st79{fill:#B3BCCD;stroke:#1A1A1A;stroke-linejoin:round;stroke-miterlimit:10;}
	.st80{opacity:0.3;fill:none;stroke:#1A1A1A;stroke-linecap:round;stroke-linejoin:round;stroke-miterlimit:10;}
	.st81{fill:#DEAC93;stroke:#1A1A1A;stroke-width:2;stroke-linejoin:round;stroke-miterlimit:10;}
	.st82{fill:#1A1A1A;}
	.st83{fill:#F0E8DB;stroke:#1A1A1A;stroke-linejoin:round;stroke-miterlimit:10;}
	.st84{opacity:0.7;fill:#CCC4B8;stroke:#1A1A1A;stroke-linejoin:round;stroke-miterlimit:10;}
	.st85{fill:#DBB39C;stroke:#1A1A1A;stroke-linejoin:round;stroke-miterlimit:10;}
	.st86{opacity:0.7;fill:none;stroke:#1A1A1A;stroke-linejoin:round;stroke-miterlimit:10;}
	.st87{opacity:0.7;fill:#9E9890;stroke:#1A1A1A;stroke-linejoin:round;stroke-miterlimit:10;}
	.st88{opacity:0.2;fill:none;stroke:#1A1A1A;stroke-linecap:round;stroke-linejoin:round;stroke-miterlimit:10;}
	.st89{fill:#BF9F7C;stroke:#1A1A1A;stroke-linejoin:round;stroke-miterlimit:10;}
	.st90{fill:#798089;stroke:#1A1A1A;stroke-linejoin:round;stroke-miterlimit:10;}
	.st91{opacity:0.4;clip-path:url(#SVGID_12_);fill:#E3F4FB;}
	.st92{opacity:0.15;clip-path:url(#SVGID_12_);}
	.st93{fill:#FCD6BE;stroke:#1C1C1C;stroke-linecap:round;stroke-linejoin:round;stroke-miterlimit:10;}
	.st94{fill:#4C4139;stroke:#1C1C1C;stroke-miterlimit:10;}
	.st95{fill:#FCD6BE;}
	.st96{fill:#EAC4B0;}
	.st97{fill:#FCC3DA;}
	.st98{fill:#4C4139;}
	.st99{fill:#FCD6BE;stroke:#1C1C1C;stroke-miterlimit:10;}
	.st100{fill:#FCD875;stroke:#1C1C1C;stroke-linecap:round;stroke-linejoin:round;stroke-miterlimit:10;}
	.st101{fill:none;stroke:#1C1C1C;stroke-linecap:round;stroke-miterlimit:10;}
	.st102{opacity:0.5;fill:none;stroke:#1C1C1C;stroke-linecap:round;stroke-miterlimit:10;}
	
		.st103{opacity:0.15;fill:none;stroke:#6385C1;stroke-linecap:round;stroke-linejoin:round;stroke-miterlimit:10;stroke-dasharray:3;}
	.st104{fill:#FFFFFF;stroke:#D9E7F9;stroke-width:0.5;stroke-miterlimit:10;}
	.st105{fill:#F0D3F4;stroke:#444444;stroke-linecap:round;stroke-linejoin:round;stroke-miterlimit:10;}
	.st106{fill:none;stroke:#444444;stroke-linecap:round;stroke-linejoin:round;stroke-miterlimit:10;}
	.st107{fill:#FDE1FF;stroke:#444444;stroke-linecap:round;stroke-linejoin:round;stroke-miterlimit:10;}
	.st108{fill:#FF7B7B;stroke:#444444;stroke-linecap:square;stroke-miterlimit:10;}
	.st109{opacity:0;}
	.st110{fill:none;stroke:#444444;stroke-miterlimit:10;}
	.st111{fill:#7B889B;stroke:#444444;stroke-linecap:round;stroke-linejoin:round;stroke-miterlimit:10;}
	.st112{fill:#D7FFF5;stroke:#444444;stroke-linecap:round;stroke-linejoin:round;stroke-miterlimit:10;}
	.st113{fill:#FFF5D7;stroke:#444444;stroke-linecap:round;stroke-linejoin:round;stroke-miterlimit:10;}
	.st114{fill:#FFE8C2;stroke:#444444;stroke-linecap:round;stroke-linejoin:round;stroke-miterlimit:10;}
	.st115{fill:#444444;}
</style>
<g class="st0">
	<g>
		<line class="st1" x1="197.7" y1="167.1" x2="196.4" y2="168.6"/>
		<line class="st2" x1="193.7" y1="171.9" x2="162.7" y2="209.8"/>
		<line class="st1" x1="161.3" y1="211.5" x2="160.1" y2="213"/>
	</g>
</g>
<g class="st0">
	<g>
		<line class="st1" x1="424.3" y1="167.1" x2="425.6" y2="168.6"/>
		<line class="st2" x1="428.3" y1="171.9" x2="459.3" y2="209.8"/>
		<line class="st1" x1="460.7" y1="211.5" x2="461.9" y2="213"/>
	</g>
</g>
<g class="st0">
	<g>
		<line class="st1" x1="269.3" y1="360.5" x2="271.3" y2="360.5"/>
		<line class="st3" x1="275.5" y1="360.5" x2="348.6" y2="360.5"/>
		<line class="st1" x1="350.7" y1="360.5" x2="352.7" y2="360.5"/>
	</g>
</g>
<g>
	<g>
		<defs>
			<rect id="SVGID_1_" x="356" y="213" width="245" height="209"/>
		</defs>
		<clipPath id="SVGID_2_">
			<use xlink:href="#SVGID_1_"  style="overflow:visible;"/>
		</clipPath>
		<circle class="st4" cx="478.5" cy="336.5" r="116"/>
	</g>
	<g class="st5">
		<line class="st6" x1="370.6" y1="347.5" x2="369" y2="347.5"/>
		<line class="st6" x1="386.5" y1="347.5" x2="375.4" y2="347.5"/>
		<line class="st6" x1="527.3" y1="266.5" x2="522" y2="266.5"/>
		<line class="st6" x1="549" y1="266.5" x2="532.1" y2="266.5"/>
		<line class="st6" x1="579" y1="272.5" x2="542.1" y2="272.5"/>
		<path class="st6" d="M576.5,313.5h3c0.2-3,2.6-5.4,5.7-5.6c0-0.3-0.1-0.5-0.1-0.8c0-3.1,2.5-5.6,5.6-5.6s5.6,2.5,5.6,5.6
			c0,0.1,0,0.2,0,0.2c0.5-0.2,1.1-0.2,1.6-0.2c3.1,0,5.6,2.5,5.6,5.6c0,0.3,0,0.5-0.1,0.8h6.5"/>
		<line class="st6" x1="573.5" y1="313.5" x2="572.5" y2="313.5"/>
		<path class="st6" d="M412.5,260.6l7.5,0c0.2-2.9,3-5.2,6.5-5.4c0-0.3-0.1-0.5-0.1-0.8c0-3,2.9-5.4,6.4-5.4c3.6,0,6.5,2.4,6.5,5.3
			c0,0.1,0,0.1,0,0.2c0.6-0.1,1.2-0.2,1.9-0.2c3.6,0,6.5,2.4,6.5,5.3c0,0.3,0,0.5-0.1,0.8l4.9,0"/>
	</g>
	<path class="st7" d="M574,423h-3v-6.5c0-0.8,0.7-1.5,1.5-1.5l0,0c0.8,0,1.5,0.7,1.5,1.5V423z"/>
	<path class="st7" d="M570,422h-3v-4.5c0-0.8,0.7-1.5,1.5-1.5l0,0c0.8,0,1.5,0.7,1.5,1.5V422z"/>
	<path class="st7" d="M587,422h-3v-4.5c0-0.8,0.7-1.5,1.5-1.5l0,0c0.8,0,1.5,0.7,1.5,1.5V422z"/>
	<path class="st7" d="M578,422h-3v-3.5c0-0.8,0.7-1.5,1.5-1.5l0,0c0.8,0,1.5,0.7,1.5,1.5V422z"/>
	<path class="st7" d="M591,423h-3v-3.5c0-0.8,0.7-1.5,1.5-1.5l0,0c0.8,0,1.5,0.7,1.5,1.5V423z"/>
	<rect x="404.5" y="316.5" class="st8" width="152" height="106"/>
	<g class="st9">
		<line class="st10" x1="405" y1="319.5" x2="556" y2="319.5"/>
		<line class="st10" x1="405" y1="322.5" x2="556" y2="322.5"/>
		<line class="st10" x1="405" y1="325.5" x2="556" y2="325.5"/>
		<line class="st10" x1="405" y1="328.5" x2="556" y2="328.5"/>
		<line class="st10" x1="405" y1="331.5" x2="556" y2="331.5"/>
		<line class="st10" x1="405" y1="334.5" x2="556" y2="334.5"/>
		<line class="st10" x1="405" y1="337.5" x2="556" y2="337.5"/>
		<line class="st10" x1="405" y1="340.5" x2="556" y2="340.5"/>
		<line class="st10" x1="405" y1="343.5" x2="556" y2="343.5"/>
		<line class="st10" x1="405" y1="346.5" x2="556" y2="346.5"/>
		<line class="st10" x1="405" y1="349.5" x2="556" y2="349.5"/>
		<line class="st10" x1="405" y1="352.5" x2="556" y2="352.5"/>
		<line class="st10" x1="405" y1="355.5" x2="556" y2="355.5"/>
		<line class="st10" x1="405" y1="358.5" x2="556" y2="358.5"/>
		<line class="st10" x1="405" y1="361.5" x2="556" y2="361.5"/>
		<line class="st10" x1="405" y1="364.5" x2="556" y2="364.5"/>
		<line class="st10" x1="405" y1="367.5" x2="556" y2="367.5"/>
		<line class="st10" x1="405" y1="370.5" x2="556" y2="370.5"/>
		<line class="st10" x1="405" y1="373.5" x2="556" y2="373.5"/>
		<line class="st10" x1="405" y1="376.5" x2="556" y2="376.5"/>
		<line class="st10" x1="405" y1="379.5" x2="556" y2="379.5"/>
		<line class="st10" x1="405" y1="382.5" x2="556" y2="382.5"/>
		<line class="st10" x1="405" y1="385.5" x2="556" y2="385.5"/>
		<line class="st10" x1="405" y1="388.5" x2="556" y2="388.5"/>
		<line class="st10" x1="405" y1="391.5" x2="556" y2="391.5"/>
		<line class="st10" x1="405" y1="394.5" x2="556" y2="394.5"/>
		<line class="st10" x1="405" y1="397.5" x2="556" y2="397.5"/>
		<line class="st10" x1="405" y1="400.5" x2="556" y2="400.5"/>
		<line class="st10" x1="405" y1="403.5" x2="556" y2="403.5"/>
		<line class="st10" x1="405" y1="406.5" x2="556" y2="406.5"/>
		<line class="st10" x1="405" y1="409.5" x2="556" y2="409.5"/>
	</g>
	<rect x="401.5" y="302.5" class="st11" width="158" height="14"/>
	<polygon class="st12" points="496,408 421,408 420,401 497,401 	"/>
	<rect x="405" y="317" class="st12" width="151" height="2"/>
	<rect x="556.5" y="336.5" class="st13" width="25" height="2"/>
	<circle class="st14" cx="581.5" cy="337.5" r="2"/>
	<polygon class="st15" points="577.5,354.8 568.5,360.5 559.5,354.8 559.5,343.5 577.5,343.5 	"/>
	<ellipse class="st14" cx="561.5" cy="339.5" rx="0" ry="4"/>
	<ellipse class="st14" cx="575.5" cy="339.5" rx="0" ry="4"/>
	<line class="st16" x1="365.5" y1="422.5" x2="592.5" y2="422.5"/>
	<path class="st17" d="M462,338L462,338l0-0.5C462,337.7,462,337.8,462,338z"/>
	<rect x="404.5" y="415.5" class="st18" width="102" height="7"/>
	<path class="st17" d="M479,337.5v0.5h0C479,337.8,479,337.7,479,337.5z"/>
	<g>
		<path class="st12" d="M550.5,335.5v5.5c0,0.2,0,0.3,0,0.5c-0.3,4.5-4,8-8.5,8c-4.5,0-8.2-3.5-8.5-8c0-0.2,0-0.3,0-0.5
			c0,0.2,0,0.3,0,0.5c-0.3,4.5-4,8-8.5,8c-4.5,0-8.2-3.5-8.5-8c0-0.2,0-0.3,0-0.5c0,0.2,0,0.3,0,0.5c-0.3,4.5-4,8-8.5,8
			c-4.5,0-8.2-3.5-8.5-8c0-0.2,0-0.3,0-0.5c0,0.2,0,0.3,0,0.5c-0.3,4.5-4,8-8.5,8c-4.5,0-8.2-3.5-8.5-8c0-0.2,0-0.3,0-0.5
			c0,0.2,0,0.3,0,0.5c-0.3,4.5-4,8-8.5,8c-4.5,0-8.2-3.5-8.5-8c0-0.2,0-0.3,0-0.5c0,0.2,0,0.3,0,0.5c-0.3,4.5-4,8-8.5,8
			c-4.5,0-8.2-3.5-8.5-8c0-0.2,0-0.3,0-0.5c0,0.2,0,0.3,0,0.5c-0.3,4.5-4,8-8.5,8c-4.5,0-8.2-3.5-8.5-8c0-0.2,0-0.3,0-0.5
			c0,0.2,0,0.3,0,0.5c-0.3,4.5-4,8-8.5,8c-4.5,0-8.2-3.5-8.5-8c0-0.2,0-0.3,0-0.5v-5.5l0.3-1l4.7-18h126l4.7,18L550.5,335.5z"/>
	</g>
	<g>
		<path class="st14" d="M480.5,313.5V338c0,0.2,0,0.3,0,0.5c-0.3,4.5-4,8-8.5,8c-4.5,0-8.2-3.5-8.5-8c0-0.2,0-0.3,0-0.5v-5.5l1-19
			H480.5z"/>
		<path class="st19" d="M497.5,332.5v5.5c0,0.2,0,0.3,0,0.5c-0.3,4.5-4,8-8.5,8c-4.5,0-8.2-3.5-8.5-8c0-0.2,0-0.3,0-0.5v-24.5h16
			L497.5,332.5z"/>
		<path class="st14" d="M514.5,332.5v5.5c0,0.2,0,0.3,0,0.5c-0.3,4.5-4,8-8.5,8c-4.5,0-8.2-3.5-8.5-8c0-0.2,0-0.3,0-0.5v-5.5l-1-19
			h16L514.5,332.5z"/>
		<path class="st19" d="M531.5,332.5v5.5c0,0.2,0,0.3,0,0.5c-0.3,4.5-4,8-8.5,8c-4.5,0-8.2-3.5-8.5-8c0-0.2,0-0.3,0-0.5v-5.5l-2-19
			h16L531.5,332.5z"/>
		<path class="st14" d="M548.5,332.5v5.5c0,0.2,0,0.3,0,0.5c-0.3,4.5-4,8-8.5,8c-4.5,0-8.2-3.5-8.5-8c0-0.2,0-0.3,0-0.5v-5.5l-3-19
			h15L548.5,332.5z"/>
		<path class="st19" d="M464.5,313.5l-1,19v5.5c0,0.2,0,0.3,0,0.5c-0.3,4.5-4,8-8.5,8c-4.5,0-8.2-3.5-8.5-8c0-0.2,0-0.3,0-0.5v-5.5
			l2-19H464.5z"/>
		<path class="st14" d="M448.5,313.5l-2,19v5.5c0,0.2,0,0.3,0,0.5c-0.3,4.5-4,8-8.5,8c-4.5,0-8.2-3.5-8.5-8c0-0.2,0-0.3,0-0.5v-5.5
			l3-19H448.5z"/>
		<path class="st19" d="M432.5,313.5l-3,19v5.5c0,0.2,0,0.3,0,0.5c-0.3,4.5-4,8-8.5,8c-4.5,0-8.2-3.5-8.5-8c0-0.2,0-0.3,0-0.5v-5.5
			l5-19H432.5z"/>
		<line class="st16" x1="412.5" y1="331.5" x2="452.5" y2="331.5"/>
		<line class="st16" x1="457.5" y1="331.5" x2="474.5" y2="331.5"/>
		<line class="st16" x1="487.5" y1="331.5" x2="492.5" y2="331.5"/>
		<line class="st16" x1="523.5" y1="331.5" x2="525.5" y2="331.5"/>
		<line class="st16" x1="534.5" y1="331.5" x2="548.5" y2="331.5"/>
	</g>
	<rect x="405" y="417" class="st12" width="101" height="2"/>
	<rect x="545.5" y="416.5" class="st18" width="11" height="6"/>
	<g id="window_glass">
		<rect x="413.5" y="352.5" class="st20" width="86" height="48"/>
		<g>
			<defs>
				<rect id="SVGID_3_" x="413.5" y="352" width="86" height="48"/>
			</defs>
			<clipPath id="SVGID_4_">
				<use xlink:href="#SVGID_3_"  style="overflow:visible;"/>
			</clipPath>
			<line class="st21" x1="418" y1="406" x2="484.5" y2="339.5"/>
			<line class="st22" x1="453" y1="416" x2="519.5" y2="349.5"/>
			<line class="st23" x1="386" y1="398" x2="452.5" y2="331.5"/>
			<g class="st24">
				<line class="st25" x1="427" y1="371" x2="436.5" y2="361.5"/>
				<line class="st25" x1="433" y1="387" x2="459" y2="361"/>
				<line class="st25" x1="468.5" y1="364.5" x2="476.5" y2="356.5"/>
				<line class="st25" x1="473" y1="380" x2="492.5" y2="360.5"/>
				<line class="st25" x1="465" y1="388" x2="469" y2="384"/>
			</g>
		</g>
		<rect x="413.5" y="352.5" class="st10" width="86" height="48"/>
	</g>
	<g>
		<path class="st7" d="M426,404L426,404c-1.1,0-2-0.9-2-2v-8c0-1.1,0.9-2,2-2l0,0c1.1,0,2,0.9,2,2v8C428,403.1,427.1,404,426,404z"
			/>
		<path class="st7" d="M432,402.5L432,402.5c-1.1,0-2-0.9-2-2v-8c0-1.1,0.9-2,2-2l0,0c1.1,0,2,0.9,2,2v8
			C434,401.6,433.1,402.5,432,402.5z"/>
		<path class="st7" d="M444,402.5L444,402.5c-1.1,0-2-0.9-2-2v-8c0-1.1,0.9-2,2-2l0,0c1.1,0,2,0.9,2,2v8
			C446,401.6,445.1,402.5,444,402.5z"/>
		<path class="st7" d="M450,401L450,401c-1.1,0-2-0.9-2-2v-8c0-1.1,0.9-2,2-2l0,0c1.1,0,2,0.9,2,2v8C452,400.1,451.1,401,450,401z"
			/>
		<path class="st7" d="M456,404L456,404c-1.1,0-2-0.9-2-2v-8c0-1.1,0.9-2,2-2l0,0c1.1,0,2,0.9,2,2v8C458,403.1,457.1,404,456,404z"
			/>
		<path class="st7" d="M469,403L469,403c-1.1,0-2-0.9-2-2v-8c0-1.1,0.9-2,2-2l0,0c1.1,0,2,0.9,2,2v8C471,402.1,470.1,403,469,403z"
			/>
		<path class="st7" d="M475,402L475,402c-1.1,0-2-0.9-2-2v-8c0-1.1,0.9-2,2-2l0,0c1.1,0,2,0.9,2,2v8C477,401.1,476.1,402,475,402z"
			/>
		<path class="st7" d="M486,404L486,404c-1.1,0-2-0.9-2-2v-8c0-1.1,0.9-2,2-2l0,0c1.1,0,2,0.9,2,2v8C488,403.1,487.1,404,486,404z"
			/>
		<polygon class="st26" points="493,405.5 420,405.5 419,395.5 494,395.5 		"/>
		<line class="st27" x1="420.5" y1="400.5" x2="436.5" y2="400.5"/>
		<line class="st27" x1="443.5" y1="400.5" x2="473.5" y2="400.5"/>
		<line class="st27" x1="485.5" y1="400.5" x2="493.5" y2="400.5"/>
	</g>
	<path class="st28" d="M572.4,348.5l-3.5-2c-0.2-0.1-0.5-0.1-0.7,0l-3.5,2c-0.2,0.1-0.4,0.4-0.4,0.6v4.1c0,0.3,0.1,0.5,0.4,0.6
		l3.5,2c0.2,0.1,0.5,0.1,0.7,0l3.5-2c0.2-0.1,0.4-0.4,0.4-0.6v-4.1C572.8,348.8,572.6,348.6,572.4,348.5z M567.8,347.7l2.1,2.1
		c0.3,0.3,0.6,0.8,0.6,1.4c0,0.5-0.2,1-0.6,1.4l-1-1c0.1-0.1,0.1-0.2,0.1-0.3c0-0.1-0.1-0.2-0.1-0.3l0,0l-1.3-1.3l-1-1L567.8,347.7z
		 M569.2,354.5l-2.1-2.1l0,0c-0.3-0.3-0.6-0.8-0.6-1.4c0-0.5,0.2-1,0.6-1.4l1,1c-0.1,0.1-0.1,0.2-0.1,0.3c0,0.1,0.1,0.2,0.1,0.3
		l1.3,1.3l1,1L569.2,354.5z"/>
	<g>
		<polygon class="st29" points="389.2,308.5 380.5,312.4 371.8,308.5 380.5,305.5 		"/>
		<polygon class="st30" points="383.5,323.5 377.5,323.5 374.5,309.5 380.5,308.5 386.5,309.5 		"/>
		<g>
			<path class="st31" d="M379,422v-37.5c0-0.8,0.7-1.5,1.5-1.5s1.5,0.7,1.5,1.5V422H379z"/>
		</g>
		<g>
			<path class="st31" d="M380.5,390c-0.3,0-0.5-0.2-0.5-0.5v-65c0-0.3,0.2-0.5,0.5-0.5s0.5,0.2,0.5,0.5v65
				C381,389.8,380.8,390,380.5,390z"/>
		</g>
		<line class="st32" x1="380.5" y1="310.5" x2="380.5" y2="321.5"/>
		<rect x="378.5" y="323.5" class="st33" width="3" height="1"/>
		<circle class="st33" cx="380.5" cy="302.5" r="1.5"/>
	</g>
	<g>
		<circle class="st34" cx="581.5" cy="395.5" r="15"/>
		<line class="st6" x1="581.5" y1="422.5" x2="581.5" y2="389.5"/>
		<line class="st6" x1="581" y1="402.7" x2="576.7" y2="398.4"/>
		<line class="st6" x1="581" y1="397.4" x2="584.2" y2="394.1"/>
	</g>
	<rect x="401.5" y="412.5" class="st14" width="105" height="4"/>
	<rect x="545.5" y="412.5" class="st14" width="14" height="4"/>
	<rect x="444" y="303" class="st12" width="77" height="7"/>
	<g>
		<rect x="442.5" y="282.5" class="st14" width="76" height="25"/>
		<g class="st35">
			<line class="st10" x1="441" y1="285.5" x2="517" y2="285.5"/>
			<line class="st10" x1="441" y1="287.5" x2="517" y2="287.5"/>
			<line class="st10" x1="441" y1="289.5" x2="517" y2="289.5"/>
			<line class="st10" x1="441" y1="291.5" x2="517" y2="291.5"/>
			<line class="st10" x1="441" y1="293.5" x2="517" y2="293.5"/>
			<line class="st10" x1="441" y1="295.5" x2="517" y2="295.5"/>
			<line class="st10" x1="441" y1="297.5" x2="517" y2="297.5"/>
			<line class="st10" x1="441" y1="299.5" x2="517" y2="299.5"/>
			<line class="st10" x1="441" y1="301.5" x2="517" y2="301.5"/>
			<line class="st10" x1="441" y1="303.5" x2="517" y2="303.5"/>
		</g>
		<g>
			<path class="st36" d="M488,296.5C488,296.5,487.9,296.5,488,296.5l-0.1,3.3c0,0,0,0.1,0.1,0.1h7.3c0.7,0,1.3-0.6,1.3-1.3v-2
				c0,0,0-0.1-0.1-0.1H488z M494.7,298.5c0,0.2-0.2,0.3-0.3,0.3h-4.6v-1.4h4.9V298.5z"/>
			<path class="st36" d="M488.4,291.4C488.5,291.4,488.5,291.4,488.4,291.4l0.1-0.8h7.4v0.7c0,0,0,0.1,0.1,0.1h1.8
				c0,0,0.1,0,0.1-0.1v-1.7c0,0,0-0.1-0.1-0.1h-4.3v-0.6c0,0,0,0,0,0h-2.3c0,0,0,0,0,0v0.6h-4.4c0,0-0.1,0-0.1,0.1v1.7
				c0,0,0,0.1,0.1,0.1H488.4z"/>
			<path class="st36" d="M498,295.3c-1.5-0.2-2.8-0.4-3.9-0.7c1.3-0.7,2-1.3,2.3-1.7c0.1-0.1,0.2-0.3,0.2-0.5v-0.7c0,0,0,0,0,0H488
				c0,0,0,0,0,0v0.8c0,0.1,0,0.2,0.1,0.3c0,0,0.7,0.7,2.3,1.7c-1.9,0.5-3.6,0.7-4,0.8c0,0,0,0,0,0.1l0.3,0.9c0,0,0,0,0,0
				c2.4-0.1,4.3-0.6,5.7-1c2.4,0.7,4.7,1,5.3,1c0.1,0,0.1,0,0.2-0.1L498,295.3C498,295.3,498,295.3,498,295.3z M492.4,293.8
				c-0.1,0.1-0.3,0.1-0.4,0c-0.9-0.4-1.4-0.8-1.7-1.1h3.9C493.7,293.1,493.1,293.5,492.4,293.8z"/>
			<path class="st36" d="M470.5,295.5v-1c0,0,0-0.1-0.1-0.1c-0.4,0-2.3,0.1-3.9,0.2l-5.8,0.2c0,0,0,0,0,0v0.9c0,0,0,0.1,0.1,0.1
				l4.2-0.1v4.2h1c0.5,0,0.9-0.4,0.9-0.9v-3.4L470.5,295.5C470.4,295.5,470.5,295.5,470.5,295.5z"/>
			<path class="st36" d="M482.8,293.7v-1.3c1.1-0.5,1.9-1.5,2-1.7c0,0,0.1-0.1,0.1-0.2l0-1.1c0,0,0,0,0,0h-6c0,0-0.1,0-0.1,0.1v1.2
				c0,0,0,0.1,0.1,0.1h3.9c-0.7,1.1-1.6,1.6-1.8,1.8c0,0-0.1,0.1-0.1,0.1v1.3h-2.5c0,0,0,0,0,0v0.9c0,0,0,0,0,0h2.5v3.9
				c0,0.2-0.1,0.3-0.3,0.3h-0.8c0,0-0.1,0-0.1,0.1v0.9c0,0,0,0.1,0.1,0.1h1h0.8h0.1c0.6,0,1-0.5,1-1h0c0,0,0,0,0-0.1v-4.1h2.4
				c0,0,0.1,0,0.1-0.1v-0.9c0,0,0-0.1-0.1-0.1H482.8z"/>
			<path class="st36" d="M463.9,293.2l-1.7,0.1v-0.8l1.2,0c0,0,0.1,0,0.1-0.1v-0.5c0,0,0-0.1-0.1-0.1l-1.2,0v-0.6l1.2,0
				c0,0,0.1,0,0.1-0.1v-0.5c0,0,0-0.1-0.1-0.1l-2.7,0c0,0,0,0,0,0v3.5c0,0,0,0.1,0.1,0.1l3.2-0.2v0.2l1.5-0.1c0,0,0.1,0,0.1-0.1
				v-4.2h0.4c0,0,0.1,0,0.1-0.1v-0.9c0,0,0-0.1-0.1-0.1h-5.8c0,0-0.1,0-0.1,0.1v0.9c0,0,0,0.1,0.1,0.1h3.9V293.2z"/>
			<path class="st36" d="M471.4,299c-0.5-0.1-2.3-0.6-2.7-1.9l2.2-0.1c0,0,0.1,0,0.1-0.1V296c0,0,0,0,0,0c-0.2,0-1.1,0.1-2.1,0.1
				c-1.2,0-1.9,0.1-1.9,0.1v1c0,0,0.4,2.3,4.1,2.8c0.1,0,0.1,0,0.2-0.1c0.1-0.2,0.2-0.6,0.3-0.8C471.5,299,471.5,299,471.4,299z"/>
			<path class="st36" d="M476.8,298c0.9-1.1,1-2.3,1-2.3l0.2-3.9c0,0,0-0.1-0.1-0.1h-1.4c0,0-0.1,0-0.1,0.1l-0.2,3.9
				c-0.1,0.4-0.2,0.8-0.4,1.1c-0.7-1.1-0.7-2.2-0.7-2.2v-3.2h2.8c0,0,0.1,0,0.1-0.1v-0.9c0,0,0-0.1-0.1-0.1h-2.8v-1.4
				c0,0,0-0.1-0.1-0.1h-1.5c0,0-0.1,0-0.1,0.1v1.4h-0.4c0,0-0.1,0-0.1,0.1v0.9c0,0,0,0.1,0.1,0.1h0.4v3.2c0,1.5,0.5,2.6,1.2,3.4
				c-0.7,0.6-1,0.7-1.3,0.9c-0.1,0-0.1,0.1-0.1,0.2l0.5,0.6c0,0.1,0.1,0.1,0.2,0.1c0.8-0.3,1.2-0.6,1.7-0.9c0.9,0.6,1.7,0.9,1.9,0.9
				c0,0,0.1,0,0.1,0l0.3-0.9c0,0,0-0.1,0-0.1C477.6,298.6,477.2,298.3,476.8,298z"/>
			<path class="st36" d="M466.3,294.4c0.3,0,1.3-0.3,2.4-0.9c0.7,0.4,1.5,0.7,2.6,0.9c0,0,0.1,0,0.1-0.1v-0.8c0,0,0-0.1-0.1-0.1
				c-0.2-0.1-0.9-0.4-1.6-0.8c0.5-0.5,1-1.2,1.4-2c0.1-0.1,0.1-0.3,0.1-0.5v-0.7h-5c0,0-0.1,0-0.1,0.1v0.9c0,0,0,0.1,0.1,0.1h3.3
				c0,0-0.3,0.6-0.9,1.4c-0.3-0.3-0.6-0.6-0.7-1c0,0,0-0.1-0.1-0.1h-1.5c0,0-0.1,0,0,0.1c0.1,0.2,0.4,1,1.3,1.9
				c-0.4,0.3-0.8,0.5-1.4,0.7c0,0-0.1,0-0.1,0.1L466.3,294.4C466.3,294.4,466.3,294.4,466.3,294.4z"/>
			<path class="st36" d="M463.3,296.1c-0.1,0-0.2,0-0.2,0.1c-0.2,0.3-1,1-2.6,1.2c0,0-0.1,0-0.1,0.1l0.2,0.8c0,0.1,0.1,0.1,0.1,0.1
				c0.5,0,2.7-0.2,3.9-1.6c0.1-0.1,0-0.2-0.1-0.2L463.3,296.1z"/>
			<path class="st36" d="M463.8,297.7c0,0-0.1,0-0.1,0c-0.3,0.3-1.3,1.2-3.3,1.4c0,0-0.1,0-0.1,0.1l0.2,0.7c0,0,2.7,0.1,4.1-1.2
				c0,0,0-0.1,0-0.1L463.8,297.7z"/>
		</g>
	</g>
	<g>
		<g>
			<rect x="506.5" y="351.5" class="st37" width="39" height="71"/>
			<rect x="509.5" y="355.5" class="st38" width="33" height="25"/>
			<rect x="509.5" y="389.5" class="st38" width="33" height="29"/>
			<circle class="st39" cx="538" cy="385" r="2.5"/>
		</g>
		<g>
			<defs>
				<rect id="SVGID_5_" x="509.5" y="355.5" width="33.5" height="24.5"/>
			</defs>
			<clipPath id="SVGID_6_">
				<use xlink:href="#SVGID_5_"  style="overflow:visible;"/>
			</clipPath>
			<line class="st40" x1="504" y1="401" x2="544.5" y2="360.5"/>
			<line class="st41" x1="503" y1="371" x2="525.5" y2="348.5"/>
		</g>
		<g>
			<defs>
				<rect id="SVGID_7_" x="509.5" y="390" width="32.5" height="29"/>
			</defs>
			<clipPath id="SVGID_8_">
				<use xlink:href="#SVGID_7_"  style="overflow:visible;"/>
			</clipPath>
			<line class="st42" x1="509" y1="423" x2="543" y2="389"/>
			<line class="st43" x1="526" y1="425" x2="544" y2="407"/>
			<line class="st44" x1="506" y1="401" x2="546.5" y2="360.5"/>
		</g>
		<rect x="509.5" y="355.5" class="st16" width="33" height="25"/>
		<rect x="509.5" y="389.5" class="st16" width="33" height="29"/>
	</g>
	<rect x="546" y="417" class="st12" width="10" height="2"/>
</g>
<g>
	<g>
		<defs>
			<rect id="SVGID_9_" x="17" y="213" width="245" height="209"/>
		</defs>
		<clipPath id="SVGID_10_">
			<use xlink:href="#SVGID_9_"  style="overflow:visible;"/>
		</clipPath>
		<circle class="st45" cx="140" cy="337" r="116"/>
		<g class="st46">
			<line class="st6" x1="15.5" y1="334.5" x2="14.5" y2="334.5"/>
			<line class="st6" x1="31.5" y1="334.5" x2="20.5" y2="334.5"/>
			<line class="st6" x1="36.5" y1="281.5" x2="31.5" y2="281.5"/>
			<line class="st6" x1="58.5" y1="281.5" x2="41.5" y2="281.5"/>
			<line class="st6" x1="88.5" y1="287.5" x2="51.5" y2="287.5"/>
			<line class="st6" x1="189.5" y1="258.5" x2="184.5" y2="258.5"/>
			<line class="st6" x1="230.5" y1="258.5" x2="194.5" y2="258.5"/>
			<path class="st6" d="M221.5,300.5h3c0.2-3,2.6-5.4,5.7-5.6c-0.2-1.3,0-2.8,1.6-4.5c1-1.1,2.4-1.9,3.9-1.9c3.1,0,5.6,2.5,5.6,5.6
				c0,0.1,0,0.2,0,0.2c1-0.3,2.2-0.3,3.5,0c2.2,0.6,3.7,2.7,3.8,5c0,0.4,0,0.8-0.1,1.1h7"/>
			<line class="st6" x1="218.5" y1="300.5" x2="217.5" y2="300.5"/>
			<path class="st6" d="M78.5,247.5H86c0.2-2.8,3-5.1,6.5-5.3c0-0.3-0.1-0.5-0.1-0.8c0-3,2.9-5.4,6.4-5.4c3.6,0,6.5,2.4,6.5,5.3
				c0,0.1,0,0.1,0,0.2c0.6-0.1,1.2-0.2,1.9-0.2c3.6,0,6.5,2.4,6.5,5.3c0,0.3,0,0.5-0.1,1.8h4.9"/>
		</g>
	</g>
	<polygon class="st47" points="224.5,422.5 48.5,422.5 48.5,327.5 135.8,309.5 224.5,327.5 	"/>
	<line class="st16" x1="15.5" y1="422.6" x2="298.5" y2="422.6"/>
	<rect x="66.5" y="334.5" class="st11" width="139" height="5"/>
	<rect x="68.5" y="339.5" class="st48" width="135" height="83"/>
	<g>
		<polygon class="st49" points="136.5,305 41.5,324 41.5,331 136.5,313 231.5,331 231.5,324 		"/>
		<polygon class="st50" points="136,305 41,324 41,328 136,310 231,328 231,324 		"/>
		<polyline class="st16" points="41,328 136,310 231,328 		"/>
		<polygon class="st16" points="136.5,305 41.5,324 41.5,331 136.5,313 231.5,331 231.5,324 		"/>
	</g>
	<g>
		<polygon class="st51" points="94,388 87,388 87,373 69,373 69,387.8 69,388.7 69,421 94,421 94,414 119,414 119,376 94,376 		"/>
		<polygon class="st51" points="129,382 121,382 121,414 146,414 146,413 154,413 154,376 129,376 		"/>
		<polygon class="st51" points="202,381 202,368 183,368 183,361 157,361 157,376 169,376 169,411 179,411 179,418 204,418 204,381 
					"/>
	</g>
	<g>
		<g>
			<rect x="267.5" y="392.5" class="st52" width="24" height="23"/>
		</g>
		<g class="st51">
			<line class="st10" x1="290" y1="396.5" x2="270" y2="396.5"/>
			<line class="st10" x1="290" y1="399.5" x2="270" y2="399.5"/>
			<line class="st10" x1="290" y1="402.5" x2="270" y2="402.5"/>
			<line class="st10" x1="290" y1="405.5" x2="270" y2="405.5"/>
			<line class="st10" x1="290" y1="408.5" x2="270" y2="408.5"/>
			<line class="st10" x1="290" y1="411.5" x2="270" y2="411.5"/>
		</g>
		<g>
			<rect x="267.5" y="392.5" class="st53" width="24" height="3"/>
		</g>
		<rect x="257.5" y="402.5" transform="matrix(6.123234e-17 -1 1 6.123234e-17 -135 673)" class="st53" width="23" height="3"/>
		<rect x="278.5" y="402.5" transform="matrix(6.123234e-17 -1 1 6.123234e-17 -114 694)" class="st53" width="23" height="3"/>
		<g>
			<rect x="267.5" y="412.5" class="st53" width="24" height="3"/>
		</g>
		<g>
			<polygon class="st53" points="292.1,394.7 269.7,414.7 267.9,412 290.3,392 			"/>
		</g>
		<polygon class="st12" points="283,396 272,396 271,396 271,397 271,408 272,408 272,397 283,397 		"/>
	</g>
	<rect x="68.5" y="339.5" class="st11" width="135" height="11"/>
	<g class="st5">
		<line class="st10" x1="69" y1="342.5" x2="203" y2="342.5"/>
		<line class="st10" x1="69" y1="344.5" x2="203" y2="344.5"/>
		<line class="st10" x1="69" y1="346.5" x2="203" y2="346.5"/>
		<line class="st10" x1="69" y1="348.5" x2="203" y2="348.5"/>
	</g>
	<rect x="52" y="342" class="st28" width="12" height="8"/>
	<rect x="54" y="344" class="st5" width="8" height="2"/>
	<rect x="54" y="347" class="st51" width="6" height="1"/>
	<rect x="69" y="351" class="st54" width="134" height="3"/>
	<rect x="69" y="339" class="st54" width="134" height="3"/>
	<path class="st55" d="M140.6,322.3l-3.8-2.2c-0.2-0.1-0.5-0.1-0.7,0l-3.8,2.2c-0.2,0.1-0.4,0.4-0.4,0.6v4.4c0,0.3,0.1,0.5,0.4,0.6
		l3.8,2.2c0.2,0.1,0.5,0.1,0.7,0l3.8-2.2c0.2-0.1,0.4-0.4,0.4-0.6V323C141,322.7,140.9,322.5,140.6,322.3z M135.3,321.7l2.1,2.1
		c0.3,0.3,0.6,0.8,0.6,1.4c0,0.5-0.2,1-0.6,1.4l-1-1c0.1-0.1,0.1-0.2,0.1-0.3c0-0.1-0.1-0.2-0.1-0.3l0,0l-1.3-1.3l-1-1L135.3,321.7z
		 M136.7,328.5l-2.1-2.1l0,0c-0.3-0.3-0.6-0.8-0.6-1.4c0-0.5,0.2-1,0.6-1.4l1,1c-0.1,0.1-0.1,0.2-0.1,0.3c0,0.1,0.1,0.2,0.1,0.3
		l1.3,1.3l1,1L136.7,328.5z"/>
	<polygon class="st12" points="125,422 121,422 121,390.5 125,393.5 	"/>
	<rect x="175" y="393" class="st12" width="2" height="28"/>
	<polygon class="st56" points="208,422 204,422 204,340.1 205,339.1 205,334 210,340.1 210,344.1 208,344.1 	"/>
	<polygon class="st12" points="136,313 48,330 48,333 136,317 224,333 224,330 	"/>
	<g>
		<polygon class="st57" points="259.5,415.5 216.5,415.5 214.5,402.5 259.5,402.5 		"/>
		<polygon class="st58" points="289.5,418.5 260.5,418.5 260.5,415.5 294.5,415.5 		"/>
		<line class="st59" x1="240.5" y1="393.5" x2="247.5" y2="397.5"/>
		<circle class="st58" cx="240.5" cy="393.5" r="1"/>
		<line class="st60" x1="246" y1="391" x2="249" y2="394"/>
		<g>
			<circle class="st61" cx="221.5" cy="413.5" r="8"/>
			<circle class="st62" cx="221.5" cy="413.5" r="5"/>
			<circle class="st63" cx="221.5" cy="413.5" r="2"/>
		</g>
		<polygon class="st64" points="252.5,390.5 255.5,399.5 245.5,399.5 		"/>
		<rect x="218.5" y="365.5" class="st65" width="31" height="3"/>
		<rect x="220.5" y="368.5" class="st65" width="25" height="3"/>
		<path class="st65" d="M220.5,401.5h-5v-6.4c0-1,0.3-2,0.8-2.7l4.2-5.9V401.5z"/>
		<rect x="211.5" y="402.5" class="st66" width="2" height="4"/>
		<rect x="258.5" y="390.5" class="st67" width="4" height="27"/>
		<rect x="259.5" y="342.5" class="st68" width="2" height="48"/>
		<line class="st59" x1="255.5" y1="345.5" x2="262.5" y2="345.5"/>
		<line class="st59" x1="255.5" y1="376.5" x2="261.5" y2="376.5"/>
		<g>
			<path class="st69" d="M256.5,378.8c-0.1,0-0.2-0.1-0.5-0.2v-35c0.2-0.1,0.4-0.2,0.5-0.2s0.2,0.1,0.5,0.2v35
				C256.8,378.6,256.6,378.8,256.5,378.8z"/>
		</g>
		<rect x="221.5" y="387.5" transform="matrix(0.5 0.866 -0.866 0.5 450.3839 -2.0878)" class="st70" width="11" height="3"/>
		<rect x="220.5" y="399.5" class="st65" width="36" height="2"/>
		<rect x="221.5" y="391.5" class="st70" width="13" height="4"/>
		<rect x="220.5" y="394.5" class="st71" width="16" height="5"/>
		<rect x="220.5" y="368.5" class="st65" width="3" height="33"/>
		<line class="st72" x1="237.5" y1="388.5" x2="243.5" y2="382.5"/>
		<line class="st59" x1="241" y1="386" x2="249" y2="394"/>
		<polygon class="st65" points="258.5,402.5 255.5,402.5 243.5,368.5 246.5,368.5 		"/>
		<path class="st65" d="M263.5,401.5v7.6c-1.6-3.3-5-5.6-9-5.6c-5.5,0-10,4.5-10,10c0,1.4,0.3,2.8,0.8,4h-14.7
			c0.5-1.2,0.8-2.6,0.8-4c0-5.5-4.5-10-10-10c-3.3,0-6.2,1.6-8,4v-6H263.5z"/>
		<line class="st59" x1="220.5" y1="403.5" x2="220.5" y2="400.5"/>
		<circle class="st69" cx="260.5" cy="393.5" r="0.5"/>
		<circle class="st69" cx="260.5" cy="398.5" r="0.5"/>
		<path class="st73" d="M248.5,405.5L248.5,405.5c-2.4,1.8-4,4.7-4,8c0,1.4,0.3,2.8,0.8,4h-6.8l-3.2-9.5c-0.4-1.2,0.5-2.5,1.8-2.5
			H248.5z"/>
		<line class="st74" x1="236.5" y1="409.5" x2="239.5" y2="409.5"/>
		<line class="st74" x1="236.5" y1="411.5" x2="239.5" y2="411.5"/>
		<line class="st74" x1="237.5" y1="413.5" x2="240.5" y2="413.5"/>
		<line class="st74" x1="238.5" y1="415.5" x2="242.5" y2="415.5"/>
		<g>
			<circle class="st61" cx="254.5" cy="413.5" r="8"/>
			<circle class="st62" cx="254.5" cy="413.5" r="5"/>
			<circle class="st63" cx="254.5" cy="413.5" r="2"/>
		</g>
		<rect x="224" y="368" class="st12" width="20" height="2"/>
		<rect x="218" y="394" class="st75" width="1" height="6"/>
	</g>
	<g>
		<rect x="22.5" y="396.5" class="st76" width="28" height="26"/>
		<rect x="34.5" y="418.5" class="st77" width="4" height="4"/>
		<rect x="34.5" y="396.5" class="st77" width="4" height="4"/>
	</g>
	<g>
		<rect x="117.5" y="390.5" class="st76" width="30" height="32"/>
		<rect x="129.5" y="417.5" class="st77" width="4" height="5"/>
		<rect x="129.5" y="390.5" class="st77" width="4" height="5"/>
	</g>
	<g>
		<rect x="54.5" y="371.5" class="st76" width="18" height="25"/>
		<rect x="61.5" y="371.5" class="st77" width="4" height="3"/>
	</g>
	<rect x="103.5" y="361.5" class="st78" width="18" height="26"/>
	<g>
		<g>
			<rect x="50.5" y="396.5" class="st79" width="28" height="26"/>
		</g>
		<line class="st80" x1="50" y1="396" x2="54.5" y2="400.5"/>
		<line class="st80" x1="73.5" y1="417.5" x2="78" y2="422"/>
		<line class="st80" x1="50" y1="422" x2="54.5" y2="417.5"/>
		<line class="st80" x1="73.5" y1="400.5" x2="78" y2="396"/>
	</g>
	<g>
		<g>
			<rect x="87" y="388" class="st81" width="34" height="34"/>
		</g>
		<g class="st51">
			<line class="st10" x1="94.5" y1="389" x2="94.5" y2="420"/>
			<line class="st10" x1="98.5" y1="389" x2="98.5" y2="420"/>
			<line class="st10" x1="102.5" y1="389" x2="102.5" y2="420"/>
			<line class="st10" x1="106.5" y1="389" x2="106.5" y2="420"/>
			<line class="st10" x1="110.5" y1="389" x2="110.5" y2="420"/>
			<line class="st10" x1="114.5" y1="389" x2="114.5" y2="420"/>
		</g>
		<polygon class="st12" points="91,392 91,393 91,414 92,414 92,393 112,393 112,392 		"/>
		<g>
			<rect x="86.5" y="387.5" class="st53" width="35" height="4"/>
		</g>
		<g>
			<rect x="71" y="403" transform="matrix(6.123234e-17 -1 1 6.123234e-17 -316.5 493.5)" class="st53" width="35" height="4"/>
		</g>
		<g>
			<rect x="102" y="403" transform="matrix(6.123234e-17 -1 1 6.123234e-17 -285.5 524.5)" class="st53" width="35" height="4"/>
		</g>
		<g>
			<rect x="86.5" y="418.5" class="st53" width="35" height="4"/>
		</g>
		<g>
			
				<rect x="82.1" y="402" transform="matrix(0.7071 -0.7071 0.7071 0.7071 -255.9174 192.1609)" class="st53" width="43.8" height="6"/>
			
				<ellipse transform="matrix(0.7071 -0.7071 0.7071 0.7071 -269.4174 186.569)" class="st82" cx="90.5" cy="418.5" rx="0.5" ry="0.5"/>
			
				<ellipse transform="matrix(0.7071 -0.7071 0.7071 0.7071 -242.4174 197.7527)" class="st82" cx="117.5" cy="391.5" rx="0.5" ry="0.5"/>
		</g>
		<polygon class="st12" points="95.8,417.8 98,418 118,398 117.3,396.3 		"/>
	</g>
	<g>
		<rect x="33.5" y="377.5" class="st83" width="21" height="19"/>
		<polygon class="st84" points="47.5,381.5 40.5,381.5 39.5,379.5 48.5,379.5 		"/>
	</g>
	<g>
		<g>
			<rect x="172.5" y="373.5" class="st52" width="24" height="20"/>
		</g>
		<g class="st51">
			<line class="st10" x1="176.5" y1="375" x2="176.5" y2="392"/>
			<line class="st10" x1="179.5" y1="375" x2="179.5" y2="392"/>
			<line class="st10" x1="182.5" y1="375" x2="182.5" y2="392"/>
			<line class="st10" x1="185.5" y1="375" x2="185.5" y2="392"/>
			<line class="st10" x1="188.5" y1="375" x2="188.5" y2="392"/>
			<line class="st10" x1="191.5" y1="375" x2="191.5" y2="392"/>
		</g>
		<g>
			<rect x="172.5" y="373.5" class="st53" width="24" height="3"/>
		</g>
		<rect x="164" y="382" transform="matrix(6.123234e-17 -1 1 6.123234e-17 -209.5 557.5)" class="st53" width="20" height="3"/>
		<rect x="185" y="382" transform="matrix(6.123234e-17 -1 1 6.123234e-17 -188.5 578.5)" class="st53" width="20" height="3"/>
		<g>
			<rect x="172.5" y="390.5" class="st53" width="24" height="3"/>
		</g>
		<g>
			
				<rect x="170.9" y="381.5" transform="matrix(0.7908 -0.612 0.612 0.7908 -195.7135 193.3392)" class="st53" width="28.3" height="3"/>
		</g>
		<polygon class="st12" points="188,377 177,377 176,377 176,378 176,389 177,389 177,378 188,378 		"/>
	</g>
	<g>
		<rect x="146.5" y="364.5" class="st85" width="26" height="29"/>
		<line class="st86" x1="147" y1="372.5" x2="173" y2="372.5"/>
		<line class="st86" x1="147" y1="384.5" x2="173" y2="384.5"/>
		<line class="st86" x1="159.5" y1="365" x2="159.5" y2="394"/>
	</g>
	<g>
		<rect x="142.5" y="393.5" class="st83" width="34" height="29"/>
		<polygon class="st87" points="163,400.5 156,400.5 155,398.5 164,398.5 		"/>
		<line class="st88" x1="143" y1="394" x2="150.5" y2="401.5"/>
		<line class="st88" x1="169" y1="401.5" x2="176.5" y2="394"/>
	</g>
	<g>
		<rect x="174.5" y="393.5" class="st89" width="29" height="29"/>
		<line class="st27" x1="179.5" y1="393.5" x2="179.5" y2="403.5"/>
		<line class="st27" x1="183.5" y1="402.5" x2="183.5" y2="407.5"/>
		<line class="st27" x1="193.5" y1="411.5" x2="193.5" y2="422.5"/>
		<line class="st27" x1="197.5" y1="417.5" x2="197.5" y2="422.5"/>
		<line class="st27" x1="196.5" y1="393.5" x2="196.5" y2="400.5"/>
		<line class="st27" x1="179.5" y1="408.5" x2="179.5" y2="413.5"/>
	</g>
	<rect x="121.5" y="371.5" class="st79" width="21" height="19"/>
	<polygon class="st90" points="135,375.5 128,375.5 127,373.5 136,373.5 	"/>
	<rect x="110.5" y="361.5" class="st77" width="4" height="3"/>
</g>
<g>
	<g>
		<defs>
			<rect id="SVGID_11_" x="192" y="-4" width="238" height="209"/>
		</defs>
		<clipPath id="SVGID_12_">
			<use xlink:href="#SVGID_11_"  style="overflow:visible;"/>
		</clipPath>
		<circle class="st91" cx="311" cy="116" r="116"/>
		<g class="st92">
			<line class="st6" x1="188.5" y1="75.5" x2="187.5" y2="75.5"/>
			<line class="st6" x1="204.5" y1="75.5" x2="193.5" y2="75.5"/>
			<line class="st6" x1="269.5" y1="12.5" x2="264.5" y2="12.5"/>
			<line class="st6" x1="291.5" y1="12.5" x2="274.5" y2="12.5"/>
			<line class="st6" x1="269.5" y1="18.5" x2="242.5" y2="18.5"/>
			<line class="st6" x1="398.5" y1="132.5" x2="393.5" y2="132.5"/>
			<line class="st6" x1="429.5" y1="132.5" x2="403.5" y2="132.5"/>
			<circle class="st6" cx="418.5" cy="71.5" r="3"/>
			<circle class="st6" cx="226.5" cy="155.5" r="2"/>
			<circle class="st6" cx="215.5" cy="34.5" r="2"/>
		</g>
	</g>
	<g>
		<g>
			<path class="st93" d="M264.4,165.7c0,0-8.8-4.2-9.3-4.2s-1,0.2-1.2,0.7c-0.1,0.4-0.4,1.4,0.7,1.6l6.6,2.8c0,0-7.2-3-9.8-3.4
				c-0.8-0.1-1.3,0.1-1.4,0.9c-0.1,0.9,1.1,1.2,2.3,1.5l7.1,2.5l-7-2.4c0,0-1.7-0.7-1.9,0.6c-0.2,1,0.9,1.5,2.8,2l4.8,1.5
				c0,0-3.8-1.3-5.8-1.7c-1.3-0.3-1.7,1.2-0.2,1.9c4,1.9,6.4,2.3,10,4.3c1.5,0.8,4.9,3.4,4.9,3.4l4.6-4c0,0-3-4.6-3.2-6.5
				s-1-6.9-1-8.2c0,0-1.6-0.4-2.1,0.5c-0.5,0.9-0.3,3.7-0.3,3.7s-0.9,2.4-0.7,3.7s0.2,1.3,0.2,1.3"/>
		</g>
		<g>
			<path class="st93" d="M357.6,165.7c0,0,8.8-4.2,9.3-4.2c0.5,0,1,0.2,1.2,0.7c0.1,0.4,0.4,1.4-0.7,1.6l-6.6,2.8c0,0,7.2-3,9.8-3.4
				c0.8-0.1,1.3,0.1,1.4,0.9c0.1,0.9-1.1,1.2-2.3,1.5l-7.1,2.5l7-2.4c0,0,1.7-0.7,1.9,0.6c0.2,1-0.9,1.5-2.8,2l-4.8,1.5
				c0,0,3.8-1.3,5.8-1.7c1.3-0.3,1.7,1.2,0.2,1.9c-4,1.9-6.4,2.3-10,4.3c-1.5,0.8-4.9,3.4-4.9,3.4l-4.6-4c0,0,3-4.6,3.2-6.5
				s1-6.9,1-8.2c0,0,1.6-0.4,2.1,0.5c0.5,0.9,0.3,3.7,0.3,3.7s0.9,2.4,0.7,3.7s-0.2,1.3-0.2,1.3"/>
		</g>
		<path id="back_1_" class="st94" d="M280.2,178.2c0,0,4.2-29.6,2.7-43.5c-1.6-14,2.8-37.3,30.4-37.3c24.4,0,27.1,26.6,26.5,31.6
			c-0.6,5.5-5.5,40,0.1,52.1c5.6,11.9-18,7.1-18,7.1l-31.6-0.6L280.2,178.2z"/>
		<path id="_x32__copy_5_1_" class="st95" d="M311.1,102.9c12.4,0,22.2,11.6,21.9,25.5l-0.3,14.8c-0.3,13.1-10,23.5-21.6,23.5
			s-21.3-10.4-21.6-23.5l-0.3-14.8C288.9,114.5,298.7,102.9,311.1,102.9z"/>
		<path id="_x32__line_1_" class="st69" d="M334,128l-0.4,15.4c-0.3,13.7-10.4,24.5-22.6,24.5s-22.3-10.8-22.6-24.5l-0.4-15.4
			c-0.3-14.5,9.9-26.6,22.9-26.6S334.4,113.4,334,128z M311,103c-12.2,0-21.9,11.5-21.6,25.3l0.3,14.7c0.3,13,9.8,23.3,21.3,23.3
			s21-10.3,21.3-23.3l0.3-14.7C333,114.5,323.3,103,311,103z"/>
		<path id="usta_1_" class="st69" d="M321.9,152.2c-1.8,1.6-5.9,3.1-10.7,3.1s-8.9-1.5-10.7-3.1c0,0-0.2-0.5,0.1-0.8
			c0.3-0.3,0.7-0.2,0.7-0.2c1.8,1.6,5.1,2.9,9.9,2.9s8.1-1.3,9.9-2.9c0,0,0.4-0.2,0.7,0.1C322.2,151.7,321.9,152.2,321.9,152.2z"/>
		<path id="_x2D__1_" class="st69" d="M307.9,157.7h6.4v1h-6.4V157.7z"/>
		<path id="Shape_11_copy_1_" class="st96" d="M287.9,130.2c0,0-0.2-0.2-0.7-0.3c-0.2-0.1-0.5-0.1-0.8-0.1c-0.1,0-0.2,0-0.2,0
			c-0.1,0-0.2,0-0.3,0c-0.2,0-0.4,0.1-0.5,0.1c-0.7,0.2-1.5,0.7-1.9,1.8c-0.2,0.5-0.4,1.2-0.4,2c0,0.2,0,0.4,0,0.7
			c0,0.2,0,0.5,0,0.7c0,0.5,0.1,1.1,0.2,1.7c0,0-0.1,1.8,0.6,3.9c0.6,2,2.1,4.6,4.8,5.3C288.2,140.7,288.2,135.4,287.9,130.2
			L287.9,130.2z"/>
		<path id="Shape_3_1_" class="st69" d="M288.4,130.4c0,0-4.7-1.5-4.6,3.4c0,0,0.7,7,1,7.7c0,0,1.9,4.1,4.9,4.3c3,0.2,0,0,0,0l0,1.3
			c0,0-5.4-0.7-6.4-6.9l-0.8-5.6c0,0-0.6-7.4,5.5-5.6c6,1.8,0,0,0,0L288.4,130.4"/>
		<path id="Shape_4_1_" class="st69" d="M286.9,140.2c0,0-0.3,0.2-0.5,0.2c-0.2,0-0.5-0.2-0.5-0.2l-0.5-4.9c0,0,0.7-2.4,3.5-1.1
			l0.1,1.4c0,0-2.5-0.9-2.5,0.2C286.6,136.8,286.9,140.2,286.9,140.2z"/>
		<path id="Shape_11_copy_x5F_1_1_" class="st96" d="M334,130.2c0,0,0.2-0.2,0.7-0.3c0.2-0.1,0.5-0.1,0.8-0.1c0.1,0,0.2,0,0.3,0
			c0.1,0,0.2,0,0.3,0c0.2,0,0.4,0.1,0.5,0.1c0.7,0.2,1.5,0.7,1.9,1.8c0.2,0.5,0.4,1.2,0.4,2c0,0.2,0,0.4,0,0.7c0,0.2,0,0.5,0,0.7
			c0,0.5-0.1,1.1-0.2,1.7c0,0,0.1,1.8-0.6,3.9c-0.6,2-2.1,4.5-4.8,5.3C333.6,140.7,333.7,135.4,334,130.2L334,130.2z"/>
		<path id="Shape_3_x5F_1_1_" class="st69" d="M333.7,130.4c0,0,4.7-1.5,4.6,3.4c0,0-0.7,7-1,7.7c0,0-1.9,4.1-4.9,4.3
			c-3,0.2,0,0,0,0l0,1.3c0,0,5.4-0.7,6.4-6.9l0.8-5.6c0,0,0.6-7.4-5.6-5.6c-6,1.8,0,0,0,0L333.7,130.4"/>
		<path id="Shape_4_x5F_1_1_" class="st69" d="M335.2,140.2c0,0,0.3,0.2,0.5,0.2c0.2,0,0.5-0.2,0.5-0.2l0.5-4.9c0,0-0.7-2.4-3.5-1.1
			l-0.1,1.4c0,0,2.5-0.9,2.5,0.2C335.5,136.8,335.2,140.2,335.2,140.2z"/>
		<path id="new_vector_shape_done_1_" class="st69" d="M312.9,139.8c0.1,0,0.2,0,0.3,0c0.7,1,1,2.5,1.4,3.8c0.1,0.4,0,1.1-0.1,1.4
			c-0.4,1-1.6,1-2.5,1.5c-0.3,0.1-0.5,0.3-0.8,0.4c-0.2-0.2-0.5-0.2-0.6-0.5c-0.3-0.4,0.1-0.6,0.3-0.7c0.5-0.3,2-0.5,2.2-1
			c0.2-0.3,0.1-1,0-1.3c-0.2-0.7-0.3-1.3-0.5-1.9c-0.2-0.4-0.5-0.9-0.3-1.3C312.5,140,312.8,139.9,312.9,139.8z"/>
		<path id="oko_1_" class="st69" d="M300.1,131.3c1.1,0,2,0.9,2,2s-0.9,2-2,2s-2-0.9-2-2S299,131.3,300.1,131.3z"/>
		<path id="oko_1_1_" class="st69" d="M322.3,131.3c1.1,0,2,0.9,2,2s-0.9,2-2,2s-2-0.9-2-2S321.2,131.3,322.3,131.3z"/>
		<path id="Ellipse_3_copy_1_" class="st97" d="M300,138.7c1.9,0,3.5,0.1,3.5,2.3c0,2.3-1.6,2.3-3.5,2.3c-1.9,0-3.5-0.4-3.5-2.3
			C296.5,138.8,298.1,138.7,300,138.7z"/>
		<path id="Ellipse_3_copy_2_1_" class="st97" d="M323.2,138.7c1.9,0,3.5,0.1,3.5,2.3c0,2.3-1.6,2.3-3.5,2.3s-3.5-0.4-3.5-2.3
			C319.7,138.8,321.2,138.7,323.2,138.7z"/>
		<path id="R_2_" class="st69" d="M316.5,127.7l0.6,0.7l0.4,0.5c0,0,6.4-3.5,10.8,0.5l0.5,0.2c0,0-1.1-5.9-10.6-2.4
			C317.5,127.4,317,127.5,316.5,127.7z"/>
		<path id="L_2_" class="st69" d="M305.5,127.7l-0.6,0.7l-0.4,0.5c0,0-6.4-3.5-10.8,0.5l-0.5,0.2c0,0,1.1-5.9,10.6-2.4
			C304.4,127.4,304.9,127.5,305.5,127.7z"/>
		<path id="Shape_26_2_" class="st98" d="M288.9,128c0,0,0,5.8,0.1,5.7c0.7-1.2-0.2-14.8,19-14.4c10.7,0.2,12.3-6.2,12.3-6.2
			s2.7,1.1,7,5.4c4.5,4.7,5.4,10.6,5.4,10.6l3.7-13.4l-13.7-14.2l-10.2-0.6l-8.9,1.4l-6.6,3.1l-7.3,9.3"/>
		<path class="st99" d="M317.1,166.4v7.4c0,0.2,0,0.3,0,0.5c-0.3,2.8-2.8,4.9-6,4.9s-5.7-2.2-6-4.9c0-0.2,0-0.3,0-0.5v-7.4
			c1.5,0.6,3.7,1.2,6.5,1.2C313.9,167.5,315.8,166.9,317.1,166.4z"/>
		<g>
			<path class="st100" d="M357.6,177.5c0,0-4,11-15,28h-11c0,0-1-5-3-8.1l-1.1-1.1c-0.9,1.9-1.9,3.4-1.9,5.1c0,3,0,4,0,4h-29
				c0,0,0-1,0-4c0-1.9-1.2-3.4-2-5.5l-1,1.4c-2,3-3,8.1-3,8.1h-11c-11-17-15-28-15-28c5-2,8-6,8-6c4,11,12,21,12,21s-1-7,3-14
				s17-8,17-8v1h0c0.3,2.8,3.1,5,6.5,5s6.2-2.2,6.5-5h0v-1c0,0,13,1,17,8s3,14,3,14s8-10,12-21C349.6,171.5,352.6,175.5,357.6,177.5
				z"/>
			<path class="st101" d="M325.2,182.8c0,0,3,4,3,9.1c0,2.1-0.5,3.6-1.1,4.9"/>
			<path class="st101" d="M294.1,196.5c-0.5-1.3-1-2.7-1-4.6c0-5,3-9.1,3-9.1"/>
		</g>
		<path class="st56" d="M264.6,175.7l5.5-4.3l1,1.4c0,0-4.7,3.5-5.1,4C265.4,177.3,264.6,175.7,264.6,175.7z"/>
		<path class="st56" d="M357.1,175.7l-5.5-4.3l-1,1.4c0,0,4.7,3.5,5.1,4C356.3,177.3,357.1,175.7,357.1,175.7z"/>
		<path class="st102" d="M332.2,157.3c0,0-0.3,7.7,0.3,12.2"/>
		<path class="st102" d="M326.8,165.8c0,0,0,2.3,0.3,3.4"/>
		<line class="st102" x1="287.6" y1="165.9" x2="288.6" y2="159.9"/>
	</g>
	<line class="st16" x1="226" y1="205.5" x2="396" y2="205.5"/>
	<path class="st103" d="M241.4,150.9c-3.8-9-5.9-19-5.9-29.4c0-41.7,33.8-75.5,75.5-75.5s75.5,33.8,75.5,75.5
		c0,10.4-2.1,20.4-5.9,29.4"/>
	<circle class="st104" cx="236.5" cy="105.5" r="20"/>
	<g transform="translate(0.5, 0.5)">
		<polyline class="st105" points="244,101 244,115 226,115 226,101 		"/>
		<rect x="224" y="97" class="st105" width="22" height="4"/>
		<path class="st106" d="M231.2,93.1c2.5,0.5,3.3,3.9,3.3,3.9s-2.9,0-4,0c-1.2,0-2.1-1-2-2.2C228.6,93.6,229.9,92.8,231.2,93.1z"/>
		<path class="st106" d="M237.8,93.1c-2.5,0.5-3.3,3.9-3.3,3.9s2.9,0,4,0c1.2,0,2.1-1,2-2.2C240.4,93.6,239.1,92.8,237.8,93.1z"/>
		<polyline class="st107" points="237,102 237,115 233,115 233,102 		"/>
		<polyline class="st107" points="237,98 237,101 233,101 233,98 		"/>
	</g>
	<circle class="st104" cx="386.5" cy="104.5" r="20"/>
	<g>
		<path class="st108" d="M389.5,107.5V96c0-1.9-0.4-3.4-2.8-2.9c-1.8,0.3-3.2,2.1-3.2,3.9l0,10.5"/>
		<path class="st109" d="M383,98c3,0,5-1.4,5-4.8"/>
		<path class="st110" d="M383,98c3,0,5-1.4,5-4.8"/>
		<rect x="380.5" y="107.5" class="st111" width="12" height="8"/>
	</g>
	<circle class="st104" cx="275.5" cy="53.5" r="20"/>
	<g>
		<path class="st109" d="M283,64h-14c-2.2,0-4-1.8-4-4V48h22v12C287,62.2,285.2,64,283,64z"/>
		<path class="st112" d="M282.5,64.5h-14c-2.2,0-4-1.8-4-4v-12h22v12C286.5,62.7,284.7,64.5,282.5,64.5z"/>
		<path class="st109" d="M281,51v-3.8c0-2.6-2.1-5-4.6-5.2c-3-0.2-5.4,2.1-5.4,5v4"/>
		<path class="st106" d="M280.5,51.5v-4.3c0-2.6-2.1-5-4.6-5.2c-3-0.2-5.4,2.1-5.4,5v4.5"/>
		<rect x="273" y="55" class="st109" width="6" height="4"/>
		<rect x="272.5" y="55.5" class="st113" width="6" height="4"/>
	</g>
	<circle class="st104" cx="346.5" cy="53.5" r="20"/>
	<g>
		<path class="st109" d="M355,53c0-1.7,1.3-3,3-3v-5h-22v5c1.7,0,3,1.3,3,3s-1.3,3-3,3v5h22v-5C356.3,56,355,54.7,355,53z"/>
		<path class="st114" d="M354.5,53.5c0-1.7,1.3-3,3-3v-5h-22v5c1.7,0,3,1.3,3,3s-1.3,3-3,3v5h22v-5
			C355.8,56.5,354.5,55.2,354.5,53.5z"/>
		<line class="st109" x1="349.1" y1="50" x2="343.1" y2="56"/>
		<line class="st106" x1="349.1" y1="50" x2="343.1" y2="56"/>
		<path class="st115" d="M344.7,48.4c0.6,0.6,0.6,1.5,0,2.1c-0.6,0.6-1.5,0.6-2.1,0c-0.6-0.6-0.6-1.5,0-2.1
			C343.2,47.9,344.1,47.9,344.7,48.4"/>
		<path class="st115" d="M349.7,55.4c0.6,0.6,0.6,1.5,0,2.1c-0.6,0.6-1.5,0.6-2.1,0c-0.6-0.6-0.6-1.5,0-2.1
			C348.2,54.9,349.1,54.9,349.7,55.4"/>
	</g>
</g>
<g>
	<path class="st115" d="M298.7,219.2h-7.6v8.1c-0.1,4.6-0.7,8.3-1.9,11.1l-1.3-1.2c1-2.4,1.5-5.7,1.6-9.9v-9.7h9.3V219.2z
		 M292.1,235.7c0.4-0.2,0.7-0.5,0.7-0.8v-12.3h5.6v6.8c0,1.1-0.6,1.6-1.7,1.6c-0.4,0-0.8,0-1.3,0l-0.4-1.4c0.4,0,0.8,0,1.2,0
		c0.4,0,0.7-0.2,0.7-0.6V224h-2.5v11.1c1.4-0.5,2.7-1.1,4.1-1.8l0.3,1.5c-1.7,1-3.7,1.8-5.8,2.4L292.1,235.7z M305.2,224.5v4.1
		c0,2.7-0.6,4.8-1.6,6.4c-1,1.5-2.6,2.6-4.8,3.5l-0.9-1.4c2.2-0.8,3.6-1.9,4.5-3.2c0.8-1.4,1.2-3.1,1.3-5.4v-4.1H305.2z
		 M309.7,217.5v1.6h-4.4c-0.1,0.9-0.3,1.8-0.5,2.7h3.9v11.6h-1.6v-10.1h-5.5v10.1h-1.6v-11.5h3.1c0.2-0.9,0.3-1.8,0.4-2.7h-4.1v-1.6
		H309.7z M310.1,237.4l-1.2,1.2c-1-1.2-2.4-2.5-4.1-3.9l1.1-1C307.6,235,309,236.2,310.1,237.4z"/>
	<path class="st115" d="M321.7,220.6c-0.4,0.6-0.7,1.1-1.1,1.6h8.9v1.4c-1,1.4-2.4,2.6-4.2,3.6c2.6,1,5.5,1.7,8.8,1.9l-0.4,1.6
		c-3.8-0.3-7.2-1.1-10.2-2.6c-2.8,1.3-6.4,2.3-10.7,3l-0.6-1.5c3.9-0.6,7.1-1.4,9.6-2.4c-1.2-0.7-2.4-1.5-3.4-2.4
		c-0.9,0.8-1.9,1.6-3,2.3l-1.1-1.3c2.4-1.4,4.3-3.2,5.9-5.4L321.7,220.6z M332.7,222.7H331v-3h-16v3h-1.8v-4.5h8.8
		c-0.3-0.6-0.6-1.2-0.9-1.7l1.9-0.3c0.3,0.6,0.6,1.2,0.8,2h8.9V222.7z M330.1,238.5h-1.7v-1h-10.3v1h-1.7V231h13.7V238.5z
		 M328.4,235.9v-3.4h-10.3v3.4H328.4z M327.3,223.7h-8l-0.1,0.1c1.3,1.1,2.7,1.9,4.2,2.7C325,225.6,326.4,224.7,327.3,223.7z"/>
</g>
<g>
	<path class="st115" d="M458.6,440.9v18.1h-1.7v-18.1H458.6z M463.3,441l-1.6,0.8c-0.9-1.7-1.9-3.2-3-4.5l1.6-0.7
		C461.5,438,462.5,439.5,463.3,441z M471.6,458.7l-0.4-1.6l2.1,0c0.7,0,1.1-0.5,1.1-1.4v-16.1h-9.2v-1.6h10.9v18.1
		c0,1.6-0.8,2.4-2.4,2.4H471.6z"/>
	<path class="st115" d="M492.3,439.3h8.8v1.7h-17.7v5.3c-0.1,5.2-0.9,9.4-2.6,12.6l-1.3-1.2c1.4-2.7,2.2-6.6,2.2-11.4v-6.9h8.8
		c-0.4-0.8-0.8-1.5-1.2-2.2l1.8-0.3C491.6,437.5,492,438.4,492.3,439.3z M492.8,442v2.9h7.9v1.6h-7.9v3.5h6.3v9h-1.7v-1.2h-10.1v1.2
		h-1.7v-9h5.5v-8H492.8z M497.4,456.1v-4.5h-10.1v4.5H497.4z"/>
</g>
<g>
	<path class="st115" d="M129,438.9h9.6v1.7h-5.2c-0.4,1.1-0.9,2-1.4,2.9h5.3v13c0,1.6-0.7,2.4-2.1,2.4h-2.4l-0.4-1.6l2.3,0.1
		c0.7,0,1-0.4,1-1.2v-11h-15.5v13.8h-1.7v-15.3h5.1c-0.4-1-0.8-2-1.3-2.9h-5v-1.7h9.8c-0.3-0.7-0.6-1.3-0.9-1.9l1.9-0.3
		C128.4,437.3,128.7,438.1,129,438.9z M126.7,446.5c-1.4,1.7-3.1,3.1-5.1,4.3l-1.1-1.4c2-1.1,3.6-2.4,5-4L126.7,446.5z M132.4,450.1
		v5.9h-8.9v-5.9H132.4z M130.2,443.5c0.5-1,1-1.9,1.4-2.9h-7.3c0.4,0.9,0.8,1.8,1.2,2.9H130.2z M130.8,451.6h-5.6v2.8h5.6V451.6z
		 M135.3,449.5l-1.3,1.3c-1.2-1.3-2.8-2.8-4.8-4.3l1.2-1.1C132.3,446.8,134,448.2,135.3,449.5z"/>
	<path class="st115" d="M150.6,458.6H149v-1.2h-5.1v1.2h-1.7v-10.4h8.4V458.6z M149,455.7v-5.9h-5.1v5.9H149z M158.6,437.9v7.8
		h-13.2v-7.8H158.6z M156.9,439.6h-9.8v4.6h9.8V439.6z M161.8,458.6h-1.7v-1.2h-5.3v1.2h-1.7v-10.4h8.7V458.6z M160.1,455.7v-5.9
		h-5.3v5.9H160.1z"/>
</g>
</svg>
