<svg version="1.1" id="Main" xmlns="http://www.w3.org/2000/svg" xmlns:xlink="http://www.w3.org/1999/xlink" x="0" y="0" viewBox="0 0 700 502" xml:space="preserve" enable-background="new 0 0 700 502"><style type="text/css">.st0{opacity:.2}.st1,.st2,.st3{fill:none;stroke:#547193;stroke-width:2;stroke-miterlimit:10}.st2,.st3{stroke-dasharray:3.8914,3.8914}.st3{stroke-dasharray:4.0108,4.0108}.st4{opacity:.4;clip-path:url(#SVGID_2_);fill:#e3f4fb}.st5{opacity:.15}.st6{fill:none;stroke:#443b39;stroke-linecap:round;stroke-linejoin:round;stroke-miterlimit:10}.st7{fill:#92ddb4}.st8{fill:#f7f7e7;stroke:#1a1a1a;stroke-linejoin:round;stroke-miterlimit:10}.st9{opacity:3e-2}.st10,.st11{fill:none;stroke:#1a1a1a;stroke-linejoin:round;stroke-miterlimit:10}.st11{fill:#e8e9ed}.st12{opacity:.15;fill:#1a1a1a}.st13,.st14{fill:#dcdee5;stroke:#1a1a1a;stroke-linejoin:round;stroke-miterlimit:10}.st14{fill:#fff}.st15,.st16{stroke-linecap:round}.st15{stroke:#1a1a1a;stroke-linejoin:round;stroke-miterlimit:10;fill:#f47373}.st16{fill:none}.st16,.st17,.st18,.st19,.st20,.st21,.st22{stroke:#1a1a1a;stroke-linejoin:round;stroke-miterlimit:10}.st17{stroke-width:2;fill:#fff}.st18,.st19,.st20,.st21,.st22{fill:#f7f7f5}.st19,.st20,.st21,.st22{fill:#ef5656}.st20,.st21,.st22{fill:#c2e7f1}.st21,.st22{opacity:.4;fill:none;stroke:#fff}.st21{clip-path:url(#SVGID_4_);stroke-width:20}.st22{stroke-width:14}.st22,.st23,.st24{clip-path:url(#SVGID_4_)}.st23{fill:none;stroke:#fff;stroke-width:10;stroke-linejoin:round;stroke-miterlimit:10;opacity:.4}.st24{opacity:.7}.st25,.st26,.st27{stroke-linejoin:round;stroke-miterlimit:10}.st25{stroke-linecap:round;fill:none;stroke:#fff}.st26,.st27{fill:#f2ecbb;stroke:#1a1a1a}.st27{opacity:.5;fill:none;stroke-linecap:round}.st28{fill:#fff}.st29,.st30{fill:#333438;stroke:#333438;stroke-linejoin:round;stroke-miterlimit:10}.st30{fill:#fcf6de}.st31{fill:#4a4b4f}.st32{opacity:.5;fill:none;stroke:#1a1a1a;stroke-linecap:round;stroke-miterlimit:10}.st33{fill:#333438}.st34{fill:#70ba95;stroke:#443b39;stroke-miterlimit:10}.st35{opacity:5e-2}.st36{fill:#e93f2b}.st37,.st38{stroke:#1a1a1a}.st37{stroke-linejoin:round;stroke-miterlimit:10;fill:#babdc6}.st38{fill:#c2e7f1;stroke-linecap:round}.st38,.st39,.st40,.st41,.st42,.st43,.st44{stroke-linejoin:round;stroke-miterlimit:10}.st39{stroke-linecap:round;fill:#fff3ee;stroke:#1a1a1a}.st40,.st41,.st42,.st43,.st44{opacity:.4;clip-path:url(#SVGID_6_);fill:none;stroke:#fff;stroke-width:12}.st41,.st42,.st43,.st44{stroke-width:11}.st42,.st43,.st44{clip-path:url(#SVGID_8_);stroke-width:6}.st43,.st44{stroke-width:4}.st44{stroke-width:10}.st45,.st46{clip-path:url(#SVGID_10_)}.st45{fill:#e3f4fb;opacity:.4}.st46{opacity:.15}.st47,.st48,.st49{fill:#f4f4f4;stroke:#1a1a1a;stroke-linejoin:round;stroke-miterlimit:10}.st48,.st49{fill:#878c93}.st49{fill:#118eba;stroke-linecap:round}.st50{fill:#19abdd}.st51{opacity:.1}.st52,.st53{fill:#deac93;stroke:#1a1a1a;stroke-linejoin:round;stroke-miterlimit:10}.st53{fill:#ecccb7}.st54{opacity:.12;fill:#1c1c1c}.st55{fill:#cfd0d3}.st56{opacity:.1;fill:#1a1a1a}.st57,.st58,.st59,.st60{fill:#38322a;stroke:#1c1c1c;stroke-linecap:round;stroke-linejoin:round;stroke-miterlimit:10}.st58,.st59,.st60{fill:#969595}.st59,.st60{fill:none}.st60{stroke-width:3}.st61,.st62,.st63,.st64,.st65,.st66,.st67,.st68{fill:#605e5c;stroke:#1a1a1a;stroke-linejoin:round;stroke-miterlimit:10}.st62,.st63,.st64,.st65,.st66,.st67,.st68{fill:#a0a3aa}.st63,.st64,.st65,.st66,.st67,.st68{fill:#dbd8d5}.st64,.st65,.st66,.st67,.st68{fill:#827f79;stroke:#1c1c1c;stroke-linecap:round}.st65,.st66,.st67,.st68{fill:#ffe67b}.st66,.st67,.st68{fill:#ff4343}.st67,.st68{fill:#7e7e7e}.st68{fill:#9b9a9a}.st69{fill:#1c1c1c}.st70{fill:#546c77;stroke:#1c1c1c;stroke-linecap:round;stroke-linejoin:round;stroke-miterlimit:10}.st71{fill:#47515b}.st71,.st72,.st73,.st74{stroke:#1c1c1c;stroke-linecap:round;stroke-linejoin:round;stroke-miterlimit:10}.st72{stroke-width:2;fill:none}.st73,.st74{fill:#d8b935}.st74{opacity:.5;fill:none}.st75{opacity:.3;fill:#fff}.st76{fill:#d8ae7c}.st76,.st77,.st78{stroke:#1a1a1a;stroke-linejoin:round;stroke-miterlimit:10}.st77{opacity:.7;fill:#e8e9ed}.st78{fill:#efe7da}.st79{fill:#b3bccd}.st79,.st80,.st81{stroke:#1a1a1a;stroke-linejoin:round;stroke-miterlimit:10}.st80{opacity:.3;stroke-linecap:round;fill:none}.st81{fill:#deac93;stroke-width:2}.st82{fill:#1a1a1a}.st83{fill:#f0e8db}.st83,.st84,.st85,.st86{stroke:#1a1a1a;stroke-linejoin:round;stroke-miterlimit:10}.st84{opacity:.7;fill:#ccc4b8}.st85,.st86{fill:#dbb39c}.st86{opacity:.7;fill:none}.st87{opacity:.7;fill:#9e9890}.st87,.st88,.st89,.st90{stroke:#1a1a1a;stroke-linejoin:round;stroke-miterlimit:10}.st88{opacity:.2;stroke-linecap:round;fill:none}.st89,.st90{fill:#bf9f7c}.st90{fill:#798089}.st91{fill:#333}.st92,.st93{clip-path:url(#SVGID_12_)}.st92{fill:#e3f4fb;opacity:.4}.st93{opacity:.15}.st94,.st95{stroke:#1c1c1c;stroke-miterlimit:10}.st94{stroke-linecap:round;stroke-linejoin:round;fill:#fcd6be}.st95{fill:#4c4139}.st96{fill:#fcd6be}.st97{fill:#eac4b0}.st98{fill:#fcc3da}.st99{fill:#4c4139}.st100{fill:#fcd6be;stroke:#1c1c1c;stroke-miterlimit:10}.st101,.st102,.st103{stroke:#1c1c1c;stroke-linecap:round}.st101{stroke-linejoin:round;stroke-miterlimit:10;fill:#fcd875}.st102,.st103{fill:none}.st102{stroke-miterlimit:10}.st103{opacity:.5}.st103,.st104,.st105{stroke-miterlimit:10}.st104{opacity:.15;stroke-linecap:round;stroke-linejoin:round;stroke-dasharray:3;fill:none;stroke:#6385c1}.st105{fill:#fff;stroke:#d9e7f9;stroke-width:.5}.st106,.st107{stroke-linecap:round;stroke-linejoin:round}.st106{stroke:#444;stroke-miterlimit:10;fill:#f0d3f4}.st107{fill:none}.st107,.st108,.st109{stroke:#444;stroke-miterlimit:10}.st108{stroke-linejoin:round;fill:#fde1ff;stroke-linecap:round}.st109{fill:#ff7b7b;stroke-linecap:square}.st110{opacity:0}.st111,.st112,.st113,.st114,.st115{fill:none;stroke:#444;stroke-miterlimit:10}.st112,.st113,.st114,.st115{fill:#7b889b;stroke-linecap:round;stroke-linejoin:round}.st113,.st114,.st115{fill:#d7fff5}.st114,.st115{fill:#fff5d7}.st115{fill:#ffe8c2}.st116{fill:#444}</style><g class="st0"><g><line class="st1" x1="237.7" y1="199.1" x2="236.4" y2="200.6"/><line class="st2" x1="233.9" y1="203.6" x2="190.8" y2="256.3"/><line class="st1" x1="189.6" y1="257.8" x2="188.3" y2="259.4"/></g></g><g class="st0"><g><line class="st1" x1="464.3" y1="199.1" x2="465.6" y2="200.6"/><line class="st2" x1="468.1" y1="203.6" x2="511.2" y2="256.3"/><line class="st1" x1="512.4" y1="257.8" x2="513.7" y2="259.4"/></g></g><g class="st0"><g><line class="st1" x1="286.8" y1="392.5" x2="288.8" y2="392.5"/><line class="st3" x1="292.8" y1="392.5" x2="411.2" y2="392.5"/><line class="st1" x1="413.2" y1="392.5" x2="415.2" y2="392.5"/></g></g><g><g><defs><rect id="SVGID_1_" x="446" y="263" width="245" height="209"/></defs><clipPath id="SVGID_2_"><use xlink:href="#SVGID_1_" overflow="visible"/></clipPath><circle class="st4" cx="568.5" cy="386.5" r="116"/></g><g class="st5"><line class="st6" x1="460.6" y1="397.5" x2="459" y2="397.5"/><line class="st6" x1="476.5" y1="397.5" x2="465.4" y2="397.5"/><line class="st6" x1="617.3" y1="316.5" x2="612" y2="316.5"/><line class="st6" x1="639" y1="316.5" x2="622.1" y2="316.5"/><line class="st6" x1="669" y1="322.5" x2="632.1" y2="322.5"/><path class="st6" d="M666.5,363.5h3c0.2-3,2.6-5.4,5.7-5.6c0-0.3-0.1-0.5-0.1-0.8c0-3.1,2.5-5.6,5.6-5.6s5.6,2.5,5.6,5.6 c0,0.1,0,0.2,0,0.2c0.5-0.2,1.1-0.2,1.6-0.2c3.1,0,5.6,2.5,5.6,5.6c0,0.3,0,0.5-0.1,0.8h6.5"/><line class="st6" x1="663.5" y1="363.5" x2="662.5" y2="363.5"/><path class="st6" d="M502.5,310.6l7.5,0c0.2-2.9,3-5.2,6.5-5.4c0-0.3-0.1-0.5-0.1-0.8c0-3,2.9-5.4,6.4-5.4c3.6,0,6.5,2.4,6.5,5.3 c0,0.1,0,0.1,0,0.2c0.6-0.1,1.2-0.2,1.9-0.2c3.6,0,6.5,2.4,6.5,5.3c0,0.3,0,0.5-0.1,0.8l4.9,0"/></g><path class="st7" d="M664,473h-3v-6.5c0-0.8,0.7-1.5,1.5-1.5l0,0c0.8,0,1.5,0.7,1.5,1.5V473z"/><path class="st7" d="M660,472h-3v-4.5c0-0.8,0.7-1.5,1.5-1.5l0,0c0.8,0,1.5,0.7,1.5,1.5V472z"/><path class="st7" d="M677,472h-3v-4.5c0-0.8,0.7-1.5,1.5-1.5l0,0c0.8,0,1.5,0.7,1.5,1.5V472z"/><path class="st7" d="M668,472h-3v-3.5c0-0.8,0.7-1.5,1.5-1.5l0,0c0.8,0,1.5,0.7,1.5,1.5V472z"/><path class="st7" d="M681,473h-3v-3.5c0-0.8,0.7-1.5,1.5-1.5l0,0c0.8,0,1.5,0.7,1.5,1.5V473z"/><rect x="494.5" y="366.5" class="st8" width="152" height="106"/><g class="st9"><line class="st10" x1="495" y1="369.5" x2="646" y2="369.5"/><line class="st10" x1="495" y1="372.5" x2="646" y2="372.5"/><line class="st10" x1="495" y1="375.5" x2="646" y2="375.5"/><line class="st10" x1="495" y1="378.5" x2="646" y2="378.5"/><line class="st10" x1="495" y1="381.5" x2="646" y2="381.5"/><line class="st10" x1="495" y1="384.5" x2="646" y2="384.5"/><line class="st10" x1="495" y1="387.5" x2="646" y2="387.5"/><line class="st10" x1="495" y1="390.5" x2="646" y2="390.5"/><line class="st10" x1="495" y1="393.5" x2="646" y2="393.5"/><line class="st10" x1="495" y1="396.5" x2="646" y2="396.5"/><line class="st10" x1="495" y1="399.5" x2="646" y2="399.5"/><line class="st10" x1="495" y1="402.5" x2="646" y2="402.5"/><line class="st10" x1="495" y1="405.5" x2="646" y2="405.5"/><line class="st10" x1="495" y1="408.5" x2="646" y2="408.5"/><line class="st10" x1="495" y1="411.5" x2="646" y2="411.5"/><line class="st10" x1="495" y1="414.5" x2="646" y2="414.5"/><line class="st10" x1="495" y1="417.5" x2="646" y2="417.5"/><line class="st10" x1="495" y1="420.5" x2="646" y2="420.5"/><line class="st10" x1="495" y1="423.5" x2="646" y2="423.5"/><line class="st10" x1="495" y1="426.5" x2="646" y2="426.5"/><line class="st10" x1="495" y1="429.5" x2="646" y2="429.5"/><line class="st10" x1="495" y1="432.5" x2="646" y2="432.5"/><line class="st10" x1="495" y1="435.5" x2="646" y2="435.5"/><line class="st10" x1="495" y1="438.5" x2="646" y2="438.5"/><line class="st10" x1="495" y1="441.5" x2="646" y2="441.5"/><line class="st10" x1="495" y1="444.5" x2="646" y2="444.5"/><line class="st10" x1="495" y1="447.5" x2="646" y2="447.5"/><line class="st10" x1="495" y1="450.5" x2="646" y2="450.5"/><line class="st10" x1="495" y1="453.5" x2="646" y2="453.5"/><line class="st10" x1="495" y1="456.5" x2="646" y2="456.5"/><line class="st10" x1="495" y1="459.5" x2="646" y2="459.5"/></g><rect x="491.5" y="352.5" class="st11" width="158" height="14"/><polygon class="st12" points="586,458 511,458 510,451 587,451"/><rect x="495" y="367" class="st12" width="151" height="2"/><rect x="646.5" y="386.5" class="st13" width="25" height="2"/><circle class="st14" cx="671.5" cy="387.5" r="2"/><polygon class="st15" points="667.5,404.8 658.5,410.5 649.5,404.8 649.5,393.5 667.5,393.5"/><ellipse class="st14" cx="651.5" cy="389.5" rx="0" ry="4"/><ellipse class="st14" cx="665.5" cy="389.5" rx="0" ry="4"/><line class="st16" x1="455.5" y1="472.5" x2="682.5" y2="472.5"/><path class="st17" d="M552,388L552,388l0-0.5C552,387.7,552,387.8,552,388z"/><rect x="494.5" y="465.5" class="st18" width="102" height="7"/><path class="st17" d="M569,387.5v0.5h0C569,387.8,569,387.7,569,387.5z"/><g><path class="st12" d="M640.5,385.5v5.5c0,0.2,0,0.3,0,0.5c-0.3,4.5-4,8-8.5,8c-4.5,0-8.2-3.5-8.5-8c0-0.2,0-0.3,0-0.5 c0,0.2,0,0.3,0,0.5c-0.3,4.5-4,8-8.5,8c-4.5,0-8.2-3.5-8.5-8c0-0.2,0-0.3,0-0.5c0,0.2,0,0.3,0,0.5c-0.3,4.5-4,8-8.5,8 c-4.5,0-8.2-3.5-8.5-8c0-0.2,0-0.3,0-0.5c0,0.2,0,0.3,0,0.5c-0.3,4.5-4,8-8.5,8c-4.5,0-8.2-3.5-8.5-8c0-0.2,0-0.3,0-0.5 c0,0.2,0,0.3,0,0.5c-0.3,4.5-4,8-8.5,8c-4.5,0-8.2-3.5-8.5-8c0-0.2,0-0.3,0-0.5c0,0.2,0,0.3,0,0.5c-0.3,4.5-4,8-8.5,8 c-4.5,0-8.2-3.5-8.5-8c0-0.2,0-0.3,0-0.5c0,0.2,0,0.3,0,0.5c-0.3,4.5-4,8-8.5,8c-4.5,0-8.2-3.5-8.5-8c0-0.2,0-0.3,0-0.5 c0,0.2,0,0.3,0,0.5c-0.3,4.5-4,8-8.5,8c-4.5,0-8.2-3.5-8.5-8c0-0.2,0-0.3,0-0.5v-5.5l0.3-1l4.7-18h126l4.7,18L640.5,385.5z"/></g><g><path class="st14" d="M570.5,363.5V388c0,0.2,0,0.3,0,0.5c-0.3,4.5-4,8-8.5,8c-4.5,0-8.2-3.5-8.5-8c0-0.2,0-0.3,0-0.5v-5.5l1-19 H570.5z"/><path class="st19" d="M587.5,382.5v5.5c0,0.2,0,0.3,0,0.5c-0.3,4.5-4,8-8.5,8c-4.5,0-8.2-3.5-8.5-8c0-0.2,0-0.3,0-0.5v-24.5h16 L587.5,382.5z"/><path class="st14" d="M604.5,382.5v5.5c0,0.2,0,0.3,0,0.5c-0.3,4.5-4,8-8.5,8c-4.5,0-8.2-3.5-8.5-8c0-0.2,0-0.3,0-0.5v-5.5l-1-19 h16L604.5,382.5z"/><path class="st19" d="M621.5,382.5v5.5c0,0.2,0,0.3,0,0.5c-0.3,4.5-4,8-8.5,8c-4.5,0-8.2-3.5-8.5-8c0-0.2,0-0.3,0-0.5v-5.5l-2-19 h16L621.5,382.5z"/><path class="st14" d="M638.5,382.5v5.5c0,0.2,0,0.3,0,0.5c-0.3,4.5-4,8-8.5,8c-4.5,0-8.2-3.5-8.5-8c0-0.2,0-0.3,0-0.5v-5.5l-3-19 h15L638.5,382.5z"/><path class="st19" d="M554.5,363.5l-1,19v5.5c0,0.2,0,0.3,0,0.5c-0.3,4.5-4,8-8.5,8c-4.5,0-8.2-3.5-8.5-8c0-0.2,0-0.3,0-0.5v-5.5 l2-19H554.5z"/><path class="st14" d="M538.5,363.5l-2,19v5.5c0,0.2,0,0.3,0,0.5c-0.3,4.5-4,8-8.5,8c-4.5,0-8.2-3.5-8.5-8c0-0.2,0-0.3,0-0.5v-5.5 l3-19H538.5z"/><path class="st19" d="M522.5,363.5l-3,19v5.5c0,0.2,0,0.3,0,0.5c-0.3,4.5-4,8-8.5,8c-4.5,0-8.2-3.5-8.5-8c0-0.2,0-0.3,0-0.5v-5.5 l5-19H522.5z"/><line class="st16" x1="502.5" y1="381.5" x2="542.5" y2="381.5"/><line class="st16" x1="547.5" y1="381.5" x2="564.5" y2="381.5"/><line class="st16" x1="577.5" y1="381.5" x2="582.5" y2="381.5"/><line class="st16" x1="613.5" y1="381.5" x2="615.5" y2="381.5"/><line class="st16" x1="624.5" y1="381.5" x2="638.5" y2="381.5"/></g><rect x="495" y="467" class="st12" width="101" height="2"/><rect x="635.5" y="466.5" class="st18" width="11" height="6"/><g id="window_glass"><rect x="503.5" y="402.5" class="st20" width="86" height="48"/><g><defs><rect id="SVGID_3_" x="503.5" y="402" width="86" height="48"/></defs><clipPath id="SVGID_4_"><use xlink:href="#SVGID_3_" overflow="visible"/></clipPath><line class="st21" x1="508" y1="456" x2="574.5" y2="389.5"/><line class="st22" x1="543" y1="466" x2="609.5" y2="399.5"/><line class="st23" x1="476" y1="448" x2="542.5" y2="381.5"/><g class="st24"><line class="st25" x1="517" y1="421" x2="526.5" y2="411.5"/><line class="st25" x1="523" y1="437" x2="549" y2="411"/><line class="st25" x1="558.5" y1="414.5" x2="566.5" y2="406.5"/><line class="st25" x1="563" y1="430" x2="582.5" y2="410.5"/><line class="st25" x1="555" y1="438" x2="559" y2="434"/></g></g><rect x="503.5" y="402.5" class="st10" width="86" height="48"/></g><g><path class="st7" d="M516,454L516,454c-1.1,0-2-0.9-2-2v-8c0-1.1,0.9-2,2-2l0,0c1.1,0,2,0.9,2,2v8C518,453.1,517.1,454,516,454z"/><path class="st7" d="M522,452.5L522,452.5c-1.1,0-2-0.9-2-2v-8c0-1.1,0.9-2,2-2l0,0c1.1,0,2,0.9,2,2v8 C524,451.6,523.1,452.5,522,452.5z"/><path class="st7" d="M534,452.5L534,452.5c-1.1,0-2-0.9-2-2v-8c0-1.1,0.9-2,2-2l0,0c1.1,0,2,0.9,2,2v8 C536,451.6,535.1,452.5,534,452.5z"/><path class="st7" d="M540,451L540,451c-1.1,0-2-0.9-2-2v-8c0-1.1,0.9-2,2-2l0,0c1.1,0,2,0.9,2,2v8C542,450.1,541.1,451,540,451z"/><path class="st7" d="M546,454L546,454c-1.1,0-2-0.9-2-2v-8c0-1.1,0.9-2,2-2l0,0c1.1,0,2,0.9,2,2v8C548,453.1,547.1,454,546,454z"/><path class="st7" d="M559,453L559,453c-1.1,0-2-0.9-2-2v-8c0-1.1,0.9-2,2-2l0,0c1.1,0,2,0.9,2,2v8C561,452.1,560.1,453,559,453z"/><path class="st7" d="M565,452L565,452c-1.1,0-2-0.9-2-2v-8c0-1.1,0.9-2,2-2l0,0c1.1,0,2,0.9,2,2v8C567,451.1,566.1,452,565,452z"/><path class="st7" d="M576,454L576,454c-1.1,0-2-0.9-2-2v-8c0-1.1,0.9-2,2-2l0,0c1.1,0,2,0.9,2,2v8C578,453.1,577.1,454,576,454z"/><polygon class="st26" points="583,455.5 510,455.5 509,445.5 584,445.5"/><line class="st27" x1="510.5" y1="450.5" x2="526.5" y2="450.5"/><line class="st27" x1="533.5" y1="450.5" x2="563.5" y2="450.5"/><line class="st27" x1="575.5" y1="450.5" x2="583.5" y2="450.5"/></g><path class="st28" d="M662.4,398.5l-3.5-2c-0.2-0.1-0.5-0.1-0.7,0l-3.5,2c-0.2,0.1-0.4,0.4-0.4,0.6v4.1c0,0.3,0.1,0.5,0.4,0.6 l3.5,2c0.2,0.1,0.5,0.1,0.7,0l3.5-2c0.2-0.1,0.4-0.4,0.4-0.6v-4.1C662.8,398.8,662.6,398.6,662.4,398.5z M657.8,397.7l2.1,2.1 c0.3,0.3,0.6,0.8,0.6,1.4c0,0.5-0.2,1-0.6,1.4l-1-1c0.1-0.1,0.1-0.2,0.1-0.3c0-0.1-0.1-0.2-0.1-0.3l0,0l-1.3-1.3l-1-1L657.8,397.7z M659.2,404.5l-2.1-2.1l0,0c-0.3-0.3-0.6-0.8-0.6-1.4c0-0.5,0.2-1,0.6-1.4l1,1c-0.1,0.1-0.1,0.2-0.1,0.3c0,0.1,0.1,0.2,0.1,0.3 l1.3,1.3l1,1L659.2,404.5z"/><g><polygon class="st29" points="479.2,358.5 470.5,362.4 461.8,358.5 470.5,355.5"/><polygon class="st30" points="473.5,373.5 467.5,373.5 464.5,359.5 470.5,358.5 476.5,359.5"/><g><path class="st31" d="M469,472v-37.5c0-0.8,0.7-1.5,1.5-1.5s1.5,0.7,1.5,1.5V472H469z"/></g><g><path class="st31" d="M470.5,440c-0.3,0-0.5-0.2-0.5-0.5v-65c0-0.3,0.2-0.5,0.5-0.5s0.5,0.2,0.5,0.5v65 C471,439.8,470.8,440,470.5,440z"/></g><line class="st32" x1="470.5" y1="360.5" x2="470.5" y2="371.5"/><rect x="468.5" y="373.5" class="st33" width="3" height="1"/><circle class="st33" cx="470.5" cy="352.5" r="1.5"/></g><g><circle class="st34" cx="671.5" cy="445.5" r="15"/><line class="st6" x1="671.5" y1="472.5" x2="671.5" y2="439.5"/><line class="st6" x1="671" y1="452.7" x2="666.7" y2="448.4"/><line class="st6" x1="671" y1="447.4" x2="674.2" y2="444.1"/></g><rect x="491.5" y="462.5" class="st14" width="105" height="4"/><rect x="635.5" y="462.5" class="st14" width="14" height="4"/><rect x="534" y="353" class="st12" width="77" height="7"/><g><rect x="532.5" y="332.5" class="st14" width="76" height="25"/><g class="st35"><line class="st10" x1="531" y1="335.5" x2="607" y2="335.5"/><line class="st10" x1="531" y1="337.5" x2="607" y2="337.5"/><line class="st10" x1="531" y1="339.5" x2="607" y2="339.5"/><line class="st10" x1="531" y1="341.5" x2="607" y2="341.5"/><line class="st10" x1="531" y1="343.5" x2="607" y2="343.5"/><line class="st10" x1="531" y1="345.5" x2="607" y2="345.5"/><line class="st10" x1="531" y1="347.5" x2="607" y2="347.5"/><line class="st10" x1="531" y1="349.5" x2="607" y2="349.5"/><line class="st10" x1="531" y1="351.5" x2="607" y2="351.5"/><line class="st10" x1="531" y1="353.5" x2="607" y2="353.5"/></g><g><path class="st36" d="M578,346.5C578,346.5,577.9,346.5,578,346.5l-0.1,3.3c0,0,0,0.1,0.1,0.1h7.3c0.7,0,1.3-0.6,1.3-1.3v-2 c0,0,0-0.1-0.1-0.1H578z M584.7,348.5c0,0.2-0.2,0.3-0.3,0.3h-4.6v-1.4h4.9V348.5z"/><path class="st36" d="M578.4,341.4C578.5,341.4,578.5,341.4,578.4,341.4l0.1-0.8h7.4v0.7c0,0,0,0.1,0.1,0.1h1.8 c0,0,0.1,0,0.1-0.1v-1.7c0,0,0-0.1-0.1-0.1h-4.3v-0.6c0,0,0,0,0,0h-2.3c0,0,0,0,0,0v0.6h-4.4c0,0-0.1,0-0.1,0.1v1.7 c0,0,0,0.1,0.1,0.1H578.4z"/><path class="st36" d="M588,345.3c-1.5-0.2-2.8-0.4-3.9-0.7c1.3-0.7,2-1.3,2.3-1.7c0.1-0.1,0.2-0.3,0.2-0.5v-0.7c0,0,0,0,0,0H578 c0,0,0,0,0,0v0.8c0,0.1,0,0.2,0.1,0.3c0,0,0.7,0.7,2.3,1.7c-1.9,0.5-3.6,0.7-4,0.8c0,0,0,0,0,0.1l0.3,0.9c0,0,0,0,0,0 c2.4-0.1,4.3-0.6,5.7-1c2.4,0.7,4.7,1,5.3,1c0.1,0,0.1,0,0.2-0.1L588,345.3C588,345.3,588,345.3,588,345.3z M582.4,343.8 c-0.1,0.1-0.3,0.1-0.4,0c-0.9-0.4-1.4-0.8-1.7-1.1h3.9C583.7,343.1,583.1,343.5,582.4,343.8z"/><path class="st36" d="M560.5,345.5v-1c0,0,0-0.1-0.1-0.1c-0.4,0-2.3,0.1-3.9,0.2l-5.8,0.2c0,0,0,0,0,0v0.9c0,0,0,0.1,0.1,0.1 l4.2-0.1v4.2h1c0.5,0,0.9-0.4,0.9-0.9v-3.4L560.5,345.5C560.4,345.5,560.5,345.5,560.5,345.5z"/><path class="st36" d="M572.8,343.7v-1.3c1.1-0.5,1.9-1.5,2-1.7c0,0,0.1-0.1,0.1-0.2l0-1.1c0,0,0,0,0,0h-6c0,0-0.1,0-0.1,0.1v1.2 c0,0,0,0.1,0.1,0.1h3.9c-0.7,1.1-1.6,1.6-1.8,1.8c0,0-0.1,0.1-0.1,0.1v1.3h-2.5c0,0,0,0,0,0v0.9c0,0,0,0,0,0h2.5v3.9 c0,0.2-0.1,0.3-0.3,0.3h-0.8c0,0-0.1,0-0.1,0.1v0.9c0,0,0,0.1,0.1,0.1h1h0.8h0.1c0.6,0,1-0.5,1-1h0c0,0,0,0,0-0.1v-4.1h2.4 c0,0,0.1,0,0.1-0.1v-0.9c0,0,0-0.1-0.1-0.1H572.8z"/><path class="st36" d="M553.9,343.2l-1.7,0.1v-0.8l1.2,0c0,0,0.1,0,0.1-0.1v-0.5c0,0,0-0.1-0.1-0.1l-1.2,0v-0.6l1.2,0 c0,0,0.1,0,0.1-0.1v-0.5c0,0,0-0.1-0.1-0.1l-2.7,0c0,0,0,0,0,0v3.5c0,0,0,0.1,0.1,0.1l3.2-0.2v0.2l1.5-0.1c0,0,0.1,0,0.1-0.1 v-4.2h0.4c0,0,0.1,0,0.1-0.1v-0.9c0,0,0-0.1-0.1-0.1h-5.8c0,0-0.1,0-0.1,0.1v0.9c0,0,0,0.1,0.1,0.1h3.9V343.2z"/><path class="st36" d="M561.4,349c-0.5-0.1-2.3-0.6-2.7-1.9l2.2-0.1c0,0,0.1,0,0.1-0.1V346c0,0,0,0,0,0c-0.2,0-1.1,0.1-2.1,0.1 c-1.2,0-1.9,0.1-1.9,0.1v1c0,0,0.4,2.3,4.1,2.8c0.1,0,0.1,0,0.2-0.1c0.1-0.2,0.2-0.6,0.3-0.8C561.5,349,561.5,349,561.4,349z"/><path class="st36" d="M566.8,348c0.9-1.1,1-2.3,1-2.3l0.2-3.9c0,0,0-0.1-0.1-0.1h-1.4c0,0-0.1,0-0.1,0.1l-0.2,3.9 c-0.1,0.4-0.2,0.8-0.4,1.1c-0.7-1.1-0.7-2.2-0.7-2.2v-3.2h2.8c0,0,0.1,0,0.1-0.1v-0.9c0,0,0-0.1-0.1-0.1h-2.8v-1.4 c0,0,0-0.1-0.1-0.1h-1.5c0,0-0.1,0-0.1,0.1v1.4h-0.4c0,0-0.1,0-0.1,0.1v0.9c0,0,0,0.1,0.1,0.1h0.4v3.2c0,1.5,0.5,2.6,1.2,3.4 c-0.7,0.6-1,0.7-1.3,0.9c-0.1,0-0.1,0.1-0.1,0.2l0.5,0.6c0,0.1,0.1,0.1,0.2,0.1c0.8-0.3,1.2-0.6,1.7-0.9c0.9,0.6,1.7,0.9,1.9,0.9 c0,0,0.1,0,0.1,0l0.3-0.9c0,0,0-0.1,0-0.1C567.6,348.6,567.2,348.3,566.8,348z"/><path class="st36" d="M556.3,344.4c0.3,0,1.3-0.3,2.4-0.9c0.7,0.4,1.5,0.7,2.6,0.9c0,0,0.1,0,0.1-0.1v-0.8c0,0,0-0.1-0.1-0.1 c-0.2-0.1-0.9-0.4-1.6-0.8c0.5-0.5,1-1.2,1.4-2c0.1-0.1,0.1-0.3,0.1-0.5v-0.7h-5c0,0-0.1,0-0.1,0.1v0.9c0,0,0,0.1,0.1,0.1h3.3 c0,0-0.3,0.6-0.9,1.4c-0.3-0.3-0.6-0.6-0.7-1c0,0,0-0.1-0.1-0.1h-1.5c0,0-0.1,0,0,0.1c0.1,0.2,0.4,1,1.3,1.9 c-0.4,0.3-0.8,0.5-1.4,0.7c0,0-0.1,0-0.1,0.1L556.3,344.4C556.3,344.4,556.3,344.4,556.3,344.4z"/><path class="st36" d="M553.3,346.1c-0.1,0-0.2,0-0.2,0.1c-0.2,0.3-1,1-2.6,1.2c0,0-0.1,0-0.1,0.1l0.2,0.8c0,0.1,0.1,0.1,0.1,0.1 c0.5,0,2.7-0.2,3.9-1.6c0.1-0.1,0-0.2-0.1-0.2L553.3,346.1z"/><path class="st36" d="M553.8,347.7c0,0-0.1,0-0.1,0c-0.3,0.3-1.3,1.2-3.3,1.4c0,0-0.1,0-0.1,0.1l0.2,0.7c0,0,2.7,0.1,4.1-1.2 c0,0,0-0.1,0-0.1L553.8,347.7z"/></g></g><g><g><rect x="596.5" y="401.5" class="st37" width="39" height="71"/><rect x="599.5" y="405.5" class="st38" width="33" height="25"/><rect x="599.5" y="439.5" class="st38" width="33" height="29"/><circle class="st39" cx="628" cy="435" r="2.5"/></g><g><defs><rect id="SVGID_5_" x="599.5" y="405.5" width="33.5" height="24.5"/></defs><clipPath id="SVGID_6_"><use xlink:href="#SVGID_5_" overflow="visible"/></clipPath><line class="st40" x1="594" y1="451" x2="634.5" y2="410.5"/><line class="st41" x1="593" y1="421" x2="615.5" y2="398.5"/></g><g><defs><rect id="SVGID_7_" x="599.5" y="440" width="32.5" height="29"/></defs><clipPath id="SVGID_8_"><use xlink:href="#SVGID_7_" overflow="visible"/></clipPath><line class="st42" x1="599" y1="473" x2="633" y2="439"/><line class="st43" x1="616" y1="475" x2="634" y2="457"/><line class="st44" x1="596" y1="451" x2="636.5" y2="410.5"/></g><rect x="599.5" y="405.5" class="st16" width="33" height="25"/><rect x="599.5" y="439.5" class="st16" width="33" height="29"/></g><rect x="636" y="467" class="st12" width="10" height="2"/></g><g><g><defs><rect id="SVGID_9_" x="7" y="263" width="245" height="209"/></defs><clipPath id="SVGID_10_"><use xlink:href="#SVGID_9_" overflow="visible"/></clipPath><circle class="st45" cx="130" cy="387" r="116"/><g class="st46"><line class="st6" x1="5.5" y1="384.5" x2="4.5" y2="384.5"/><line class="st6" x1="21.5" y1="384.5" x2="10.5" y2="384.5"/><line class="st6" x1="26.5" y1="331.5" x2="21.5" y2="331.5"/><line class="st6" x1="48.5" y1="331.5" x2="31.5" y2="331.5"/><line class="st6" x1="78.5" y1="337.5" x2="41.5" y2="337.5"/><line class="st6" x1="179.5" y1="308.5" x2="174.5" y2="308.5"/><line class="st6" x1="220.5" y1="308.5" x2="184.5" y2="308.5"/><path class="st6" d="M211.5,350.5h3c0.2-3,2.6-5.4,5.7-5.6c-0.2-1.3,0-2.8,1.6-4.5c1-1.1,2.4-1.9,3.9-1.9c3.1,0,5.6,2.5,5.6,5.6 c0,0.1,0,0.2,0,0.2c1-0.3,2.2-0.3,3.5,0c2.2,0.6,3.7,2.7,3.8,5c0,0.4,0,0.8-0.1,1.1h7"/><line class="st6" x1="208.5" y1="350.5" x2="207.5" y2="350.5"/><path class="st6" d="M68.5,297.5H76c0.2-2.8,3-5.1,6.5-5.3c0-0.3-0.1-0.5-0.1-0.8c0-3,2.9-5.4,6.4-5.4c3.6,0,6.5,2.4,6.5,5.3 c0,0.1,0,0.1,0,0.2c0.6-0.1,1.2-0.2,1.9-0.2c3.6,0,6.5,2.4,6.5,5.3c0,0.3,0,0.5-0.1,1.8h4.9"/></g></g><polygon class="st47" points="214.5,472.5 38.5,472.5 38.5,377.5 125.8,359.5 214.5,377.5"/><line class="st16" x1="5.5" y1="472.6" x2="288.5" y2="472.6"/><rect x="56.5" y="384.5" class="st11" width="139" height="5"/><rect x="58.5" y="389.5" class="st48" width="135" height="83"/><g><polygon class="st49" points="126.5,355 31.5,374 31.5,381 126.5,363 221.5,381 221.5,374"/><polygon class="st50" points="126,355 31,374 31,378 126,360 221,378 221,374"/><polyline class="st16" points="31,378 126,360 221,378"/><polygon class="st16" points="126.5,355 31.5,374 31.5,381 126.5,363 221.5,381 221.5,374"/></g><g><polygon class="st51" points="84,438 77,438 77,423 59,423 59,437.8 59,438.7 59,471 84,471 84,464 109,464 109,426 84,426"/><polygon class="st51" points="119,432 111,432 111,464 136,464 136,463 144,463 144,426 119,426"/><polygon class="st51" points="192,431 192,418 173,418 173,411 147,411 147,426 159,426 159,461 169,461 169,468 194,468 194,431"/></g><g><g><rect x="257.5" y="442.5" class="st52" width="24" height="23"/></g><g class="st51"><line class="st10" x1="280" y1="446.5" x2="260" y2="446.5"/><line class="st10" x1="280" y1="449.5" x2="260" y2="449.5"/><line class="st10" x1="280" y1="452.5" x2="260" y2="452.5"/><line class="st10" x1="280" y1="455.5" x2="260" y2="455.5"/><line class="st10" x1="280" y1="458.5" x2="260" y2="458.5"/><line class="st10" x1="280" y1="461.5" x2="260" y2="461.5"/></g><g><rect x="257.5" y="442.5" class="st53" width="24" height="3"/></g><rect x="247.5" y="452.5" transform="matrix(6.123234e-17 -1 1 6.123234e-17 -195 713)" class="st53" width="23" height="3"/><rect x="268.5" y="452.5" transform="matrix(6.123234e-17 -1 1 6.123234e-17 -174 734)" class="st53" width="23" height="3"/><g><rect x="257.5" y="462.5" class="st53" width="24" height="3"/></g><g><polygon class="st53" points="282.1,444.7 259.7,464.7 257.9,462 280.3,442"/></g><polygon class="st12" points="273,446 262,446 261,446 261,447 261,458 262,458 262,447 273,447"/></g><rect x="58.5" y="389.5" class="st11" width="135" height="11"/><g class="st5"><line class="st10" x1="59" y1="392.5" x2="193" y2="392.5"/><line class="st10" x1="59" y1="394.5" x2="193" y2="394.5"/><line class="st10" x1="59" y1="396.5" x2="193" y2="396.5"/><line class="st10" x1="59" y1="398.5" x2="193" y2="398.5"/></g><rect x="42" y="392" class="st28" width="12" height="8"/><rect x="44" y="394" class="st5" width="8" height="2"/><rect x="44" y="397" class="st51" width="6" height="1"/><rect x="59" y="401" class="st54" width="134" height="3"/><rect x="59" y="389" class="st54" width="134" height="3"/><path class="st55" d="M130.6,372.3l-3.8-2.2c-0.2-0.1-0.5-0.1-0.7,0l-3.8,2.2c-0.2,0.1-0.4,0.4-0.4,0.6v4.4c0,0.3,0.1,0.5,0.4,0.6 l3.8,2.2c0.2,0.1,0.5,0.1,0.7,0l3.8-2.2c0.2-0.1,0.4-0.4,0.4-0.6V373C131,372.7,130.9,372.5,130.6,372.3z M125.3,371.7l2.1,2.1 c0.3,0.3,0.6,0.8,0.6,1.4c0,0.5-0.2,1-0.6,1.4l-1-1c0.1-0.1,0.1-0.2,0.1-0.3c0-0.1-0.1-0.2-0.1-0.3l0,0l-1.3-1.3l-1-1L125.3,371.7z M126.7,378.5l-2.1-2.1l0,0c-0.3-0.3-0.6-0.8-0.6-1.4c0-0.5,0.2-1,0.6-1.4l1,1c-0.1,0.1-0.1,0.2-0.1,0.3c0,0.1,0.1,0.2,0.1,0.3 l1.3,1.3l1,1L126.7,378.5z"/><polygon class="st12" points="115,472 111,472 111,440.5 115,443.5"/><rect x="165" y="443" class="st12" width="2" height="28"/><polygon class="st56" points="198,472 194,472 194,390.1 195,389.1 195,384 200,390.1 200,394.1 198,394.1"/><polygon class="st12" points="126,363 38,380 38,383 126,367 214,383 214,380"/><g><polygon class="st57" points="249.5,465.5 206.5,465.5 204.5,452.5 249.5,452.5"/><polygon class="st58" points="279.5,468.5 250.5,468.5 250.5,465.5 284.5,465.5"/><line class="st59" x1="230.5" y1="443.5" x2="237.5" y2="447.5"/><circle class="st58" cx="230.5" cy="443.5" r="1"/><line class="st60" x1="236" y1="441" x2="239" y2="444"/><g><circle class="st61" cx="211.5" cy="463.5" r="8"/><circle class="st62" cx="211.5" cy="463.5" r="5"/><circle class="st63" cx="211.5" cy="463.5" r="2"/></g><polygon class="st64" points="242.5,440.5 245.5,449.5 235.5,449.5"/><rect x="208.5" y="415.5" class="st65" width="31" height="3"/><rect x="210.5" y="418.5" class="st65" width="25" height="3"/><path class="st65" d="M210.5,451.5h-5v-6.4c0-1,0.3-2,0.8-2.7l4.2-5.9V451.5z"/><rect x="201.5" y="452.5" class="st66" width="2" height="4"/><rect x="248.5" y="440.5" class="st67" width="4" height="27"/><rect x="249.5" y="392.5" class="st68" width="2" height="48"/><line class="st59" x1="245.5" y1="395.5" x2="252.5" y2="395.5"/><line class="st59" x1="245.5" y1="426.5" x2="251.5" y2="426.5"/><g><path class="st69" d="M246.5,428.8c-0.1,0-0.2-0.1-0.5-0.2v-35c0.2-0.1,0.4-0.2,0.5-0.2s0.2,0.1,0.5,0.2v35 C246.8,428.6,246.6,428.8,246.5,428.8z"/></g><rect x="211.5" y="437.5" transform="matrix(0.5 0.866 -0.866 0.5 488.6852 31.5725)" class="st70" width="11" height="3"/><rect x="210.5" y="449.5" class="st65" width="36" height="2"/><rect x="211.5" y="441.5" class="st70" width="13" height="4"/><rect x="210.5" y="444.5" class="st71" width="16" height="5"/><rect x="210.5" y="418.5" class="st65" width="3" height="33"/><line class="st72" x1="227.5" y1="438.5" x2="233.5" y2="432.5"/><line class="st59" x1="231" y1="436" x2="239" y2="444"/><polygon class="st65" points="248.5,452.5 245.5,452.5 233.5,418.5 236.5,418.5"/><path class="st65" d="M253.5,451.5v7.6c-1.6-3.3-5-5.6-9-5.6c-5.5,0-10,4.5-10,10c0,1.4,0.3,2.8,0.8,4h-14.7 c0.5-1.2,0.8-2.6,0.8-4c0-5.5-4.5-10-10-10c-3.3,0-6.2,1.6-8,4v-6H253.5z"/><line class="st59" x1="210.5" y1="453.5" x2="210.5" y2="450.5"/><circle class="st69" cx="250.5" cy="443.5" r=".5"/><circle class="st69" cx="250.5" cy="448.5" r=".5"/><path class="st73" d="M238.5,455.5L238.5,455.5c-2.4,1.8-4,4.7-4,8c0,1.4,0.3,2.8,0.8,4h-6.8l-3.2-9.5c-0.4-1.2,0.5-2.5,1.8-2.5 H238.5z"/><line class="st74" x1="226.5" y1="459.5" x2="229.5" y2="459.5"/><line class="st74" x1="226.5" y1="461.5" x2="229.5" y2="461.5"/><line class="st74" x1="227.5" y1="463.5" x2="230.5" y2="463.5"/><line class="st74" x1="228.5" y1="465.5" x2="232.5" y2="465.5"/><g><circle class="st61" cx="244.5" cy="463.5" r="8"/><circle class="st62" cx="244.5" cy="463.5" r="5"/><circle class="st63" cx="244.5" cy="463.5" r="2"/></g><rect x="214" y="418" class="st12" width="20" height="2"/><rect x="208" y="444" class="st75" width="1" height="6"/></g><g><rect x="12.5" y="446.5" class="st76" width="28" height="26"/><rect x="24.5" y="468.5" class="st77" width="4" height="4"/><rect x="24.5" y="446.5" class="st77" width="4" height="4"/></g><g><rect x="107.5" y="440.5" class="st76" width="30" height="32"/><rect x="119.5" y="467.5" class="st77" width="4" height="5"/><rect x="119.5" y="440.5" class="st77" width="4" height="5"/></g><g><rect x="44.5" y="421.5" class="st76" width="18" height="25"/><rect x="51.5" y="421.5" class="st77" width="4" height="3"/></g><rect x="93.5" y="411.5" class="st78" width="18" height="26"/><g><g><rect x="40.5" y="446.5" class="st79" width="28" height="26"/></g><line class="st80" x1="40" y1="446" x2="44.5" y2="450.5"/><line class="st80" x1="63.5" y1="467.5" x2="68" y2="472"/><line class="st80" x1="40" y1="472" x2="44.5" y2="467.5"/><line class="st80" x1="63.5" y1="450.5" x2="68" y2="446"/></g><g><g><rect x="77" y="438" class="st81" width="34" height="34"/></g><g class="st51"><line class="st10" x1="84.5" y1="439" x2="84.5" y2="470"/><line class="st10" x1="88.5" y1="439" x2="88.5" y2="470"/><line class="st10" x1="92.5" y1="439" x2="92.5" y2="470"/><line class="st10" x1="96.5" y1="439" x2="96.5" y2="470"/><line class="st10" x1="100.5" y1="439" x2="100.5" y2="470"/><line class="st10" x1="104.5" y1="439" x2="104.5" y2="470"/></g><polygon class="st12" points="81,442 81,443 81,464 82,464 82,443 102,443 102,442"/><g><rect x="76.5" y="437.5" class="st53" width="35" height="4"/></g><g><rect x="61" y="453" transform="matrix(6.123234e-17 -1 1 6.123234e-17 -376.5 533.5)" class="st53" width="35" height="4"/></g><g><rect x="92" y="453" transform="matrix(6.123234e-17 -1 1 6.123234e-17 -345.5 564.5)" class="st53" width="35" height="4"/></g><g><rect x="76.5" y="468.5" class="st53" width="35" height="4"/></g><g><rect x="72.1" y="452" transform="matrix(0.7071 -0.7071 0.7071 0.7071 -294.2016 199.7345)" class="st53" width="43.8" height="6"/><ellipse transform="matrix(0.7071 -0.7071 0.7071 0.7071 -307.7016 194.1426)" class="st82" cx="80.5" cy="468.5" rx=".5" ry=".5"/><ellipse transform="matrix(0.7071 -0.7071 0.7071 0.7071 -280.7016 205.3263)" class="st82" cx="107.5" cy="441.5" rx=".5" ry=".5"/></g><polygon class="st12" points="85.8,467.8 88,468 108,448 107.3,446.3"/></g><g><rect x="23.5" y="427.5" class="st83" width="21" height="19"/><polygon class="st84" points="37.5,431.5 30.5,431.5 29.5,429.5 38.5,429.5"/></g><g><g><rect x="162.5" y="423.5" class="st52" width="24" height="20"/></g><g class="st51"><line class="st10" x1="166.5" y1="425" x2="166.5" y2="442"/><line class="st10" x1="169.5" y1="425" x2="169.5" y2="442"/><line class="st10" x1="172.5" y1="425" x2="172.5" y2="442"/><line class="st10" x1="175.5" y1="425" x2="175.5" y2="442"/><line class="st10" x1="178.5" y1="425" x2="178.5" y2="442"/><line class="st10" x1="181.5" y1="425" x2="181.5" y2="442"/></g><g><rect x="162.5" y="423.5" class="st53" width="24" height="3"/></g><rect x="154" y="432" transform="matrix(6.123234e-17 -1 1 6.123234e-17 -269.5 597.5)" class="st53" width="20" height="3"/><rect x="175" y="432" transform="matrix(6.123234e-17 -1 1 6.123234e-17 -248.5 618.5)" class="st53" width="20" height="3"/><g><rect x="162.5" y="440.5" class="st53" width="24" height="3"/></g><g><rect x="160.9" y="431.5" transform="matrix(0.7908 -0.612 0.612 0.7908 -228.4071 197.6774)" class="st53" width="28.3" height="3"/></g><polygon class="st12" points="178,427 167,427 166,427 166,428 166,439 167,439 167,428 178,428"/></g><g><rect x="136.5" y="414.5" class="st85" width="26" height="29"/><line class="st86" x1="137" y1="422.5" x2="163" y2="422.5"/><line class="st86" x1="137" y1="434.5" x2="163" y2="434.5"/><line class="st86" x1="149.5" y1="415" x2="149.5" y2="444"/></g><g><rect x="132.5" y="443.5" class="st83" width="34" height="29"/><polygon class="st87" points="153,450.5 146,450.5 145,448.5 154,448.5"/><line class="st88" x1="133" y1="444" x2="140.5" y2="451.5"/><line class="st88" x1="159" y1="451.5" x2="166.5" y2="444"/></g><g><rect x="164.5" y="443.5" class="st89" width="29" height="29"/><line class="st27" x1="169.5" y1="443.5" x2="169.5" y2="453.5"/><line class="st27" x1="173.5" y1="452.5" x2="173.5" y2="457.5"/><line class="st27" x1="183.5" y1="461.5" x2="183.5" y2="472.5"/><line class="st27" x1="187.5" y1="467.5" x2="187.5" y2="472.5"/><line class="st27" x1="186.5" y1="443.5" x2="186.5" y2="450.5"/><line class="st27" x1="169.5" y1="458.5" x2="169.5" y2="463.5"/></g><rect x="111.5" y="421.5" class="st79" width="21" height="19"/><polygon class="st90" points="125,425.5 118,425.5 117,423.5 126,423.5"/><rect x="100.5" y="411.5" class="st77" width="4" height="3"/></g><g><path class="st91" d="M342.8,218.8h-5.1v5.4c0,3.1-0.5,5.5-1.3,7.4l-0.9-0.8c0.7-1.6,1-3.8,1-6.6v-6.5h6.2V218.8z M338.4,229.8 c0.3-0.1,0.4-0.3,0.4-0.6V221h3.7v4.5c0,0.7-0.4,1.1-1.1,1.1c-0.3,0-0.6,0-0.9,0l-0.3-0.9c0.3,0,0.6,0,0.8,0c0.3,0,0.4-0.1,0.4-0.4 V222h-1.7v7.4c0.9-0.3,1.8-0.7,2.7-1.2l0.2,1c-1.2,0.6-2.4,1.2-3.9,1.6L338.4,229.8z M347.2,222.3v2.8c0,1.8-0.4,3.2-1.1,4.3 c-0.6,1-1.7,1.7-3.2,2.3l-0.6-0.9c1.4-0.5,2.4-1.2,3-2.1c0.5-0.9,0.8-2.1,0.8-3.6v-2.8H347.2z M350.1,217.7v1.1h-2.9 c-0.1,0.6-0.2,1.2-0.3,1.8h2.6v7.7h-1v-6.8h-3.7v6.7h-1v-7.7h2.1c0.1-0.6,0.2-1.2,0.3-1.8h-2.7v-1.1H350.1z M350.4,230.9l-0.8,0.8 c-0.7-0.8-1.6-1.7-2.8-2.6l0.7-0.7C348.7,229.3,349.7,230.1,350.4,230.9z"/><path class="st91" d="M358.1,219.7c-0.2,0.4-0.5,0.7-0.7,1.1h5.9v0.9c-0.7,0.9-1.6,1.7-2.8,2.4c1.7,0.7,3.7,1.1,5.9,1.3l-0.3,1 c-2.6-0.2-4.8-0.8-6.8-1.7c-1.9,0.9-4.3,1.5-7.2,2l-0.4-1c2.6-0.4,4.7-0.9,6.4-1.6c-0.8-0.5-1.6-1-2.3-1.6c-0.6,0.6-1.3,1.1-2,1.5 l-0.7-0.9c1.6-0.9,2.9-2.1,3.9-3.6L358.1,219.7z M365.5,221.1h-1.2v-2h-10.7v2h-1.2v-3h5.9c-0.2-0.4-0.4-0.8-0.6-1.1l1.3-0.2 c0.2,0.4,0.4,0.8,0.6,1.3h5.9V221.1z M363.7,231.6h-1.1V231h-6.9v0.7h-1.1v-5h9.1V231.6z M362.6,229.9v-2.2h-6.9v2.2H362.6z M361.9,221.8h-5.4l0,0c0.8,0.7,1.8,1.3,2.8,1.8C360.4,223.1,361.2,222.4,361.9,221.8z"/></g><g><path class="st91" d="M119.2,486.2h6.4v1.1h-3.5c-0.3,0.7-0.6,1.4-0.9,1.9h3.6v8.6c0,1.1-0.5,1.6-1.4,1.6h-1.6l-0.3-1.1l1.6,0 c0.4,0,0.7-0.3,0.7-0.8v-7.4h-10.3v9.2h-1.1v-10.2h3.4c-0.2-0.7-0.5-1.3-0.8-1.9h-3.3v-1.1h6.5c-0.2-0.5-0.4-0.9-0.6-1.3l1.3-0.2 C118.8,485.2,119,485.7,119.2,486.2z M117.7,491.3c-0.9,1.1-2,2.1-3.4,2.9l-0.7-1c1.3-0.7,2.4-1.6,3.3-2.6L117.7,491.3z M121.5,493.7v3.9h-5.9v-3.9H121.5z M120,489.3c0.3-0.6,0.6-1.3,0.9-1.9H116c0.3,0.6,0.5,1.2,0.8,1.9H120z M120.4,494.8h-3.7v1.9 h3.7V494.8z M123.4,493.3l-0.9,0.8c-0.8-0.9-1.9-1.9-3.2-2.9l0.8-0.7C121.4,491.5,122.5,492.4,123.4,493.3z"/><path class="st91" d="M133.6,499.4h-1.1v-0.8h-3.4v0.8H128v-6.9h5.6V499.4z M132.5,497.5v-3.9h-3.4v3.9H132.5z M138.9,485.6v5.2 h-8.8v-5.2H138.9z M137.8,486.7h-6.5v3.1h6.5V486.7z M141,499.4h-1.2v-0.8h-3.5v0.8h-1.1v-6.9h5.8V499.4z M139.9,497.5v-3.9h-3.5 v3.9H139.9z"/></g><g><path class="st91" d="M555.7,487.6v12h-1.1v-12H555.7z M558.9,487.7l-1,0.5c-0.6-1.1-1.3-2.1-2-3l1.1-0.5 C557.6,485.7,558.3,486.6,558.9,487.7z M564.4,499.5l-0.3-1.1l1.4,0c0.5,0,0.7-0.3,0.7-0.9v-10.7h-6.1v-1.1h7.3v12.1 c0,1.1-0.5,1.6-1.6,1.6H564.4z"/><path class="st91" d="M578.2,486.5h5.9v1.1h-11.8v3.5c0,3.5-0.6,6.3-1.7,8.4l-0.9-0.8c0.9-1.8,1.4-4.4,1.5-7.6v-4.6h5.9 c-0.2-0.5-0.5-1-0.8-1.5l1.2-0.2C577.7,485.3,578,485.9,578.2,486.5z M578.5,488.3v1.9h5.3v1.1h-5.3v2.3h4.2v6h-1.1v-0.8h-6.8v0.8 h-1.1v-6h3.6v-5.3H578.5z M581.6,497.7v-3h-6.8v3H581.6z"/></g><g><g><defs><rect id="SVGID_11_" x="232" y="-4" width="238" height="209"/></defs><clipPath id="SVGID_12_"><use xlink:href="#SVGID_11_" overflow="visible"/></clipPath><circle class="st92" cx="351" cy="116" r="116"/><g class="st93"><line class="st6" x1="228.5" y1="75.5" x2="227.5" y2="75.5"/><line class="st6" x1="244.5" y1="75.5" x2="233.5" y2="75.5"/><line class="st6" x1="309.5" y1="12.5" x2="304.5" y2="12.5"/><line class="st6" x1="331.5" y1="12.5" x2="314.5" y2="12.5"/><line class="st6" x1="309.5" y1="18.5" x2="282.5" y2="18.5"/><line class="st6" x1="438.5" y1="132.5" x2="433.5" y2="132.5"/><line class="st6" x1="469.5" y1="132.5" x2="443.5" y2="132.5"/><circle class="st6" cx="458.5" cy="71.5" r="3"/><circle class="st6" cx="266.5" cy="155.5" r="2"/><circle class="st6" cx="255.5" cy="34.5" r="2"/></g></g><g><g><path class="st94" d="M304.4,165.7c0,0-8.8-4.2-9.3-4.2c-0.5,0-1,0.2-1.2,0.7c-0.1,0.4-0.4,1.4,0.7,1.6l6.6,2.8 c0,0-7.2-3-9.8-3.4c-0.8-0.1-1.3,0.1-1.4,0.9c-0.1,0.9,1.1,1.2,2.3,1.5l7.1,2.5l-7-2.4c0,0-1.7-0.7-1.9,0.6c-0.2,1,0.9,1.5,2.8,2 l4.8,1.5c0,0-3.8-1.3-5.8-1.7c-1.3-0.3-1.7,1.2-0.2,1.9c4,1.9,6.4,2.3,10,4.3c1.5,0.8,4.9,3.4,4.9,3.4l4.6-4c0,0-3-4.6-3.2-6.5 s-1-6.9-1-8.2c0,0-1.6-0.4-2.1,0.5c-0.5,0.9-0.3,3.7-0.3,3.7s-0.9,2.4-0.7,3.7s0.2,1.3,0.2,1.3"/></g><g><path class="st94" d="M397.6,165.7c0,0,8.8-4.2,9.3-4.2c0.5,0,1,0.2,1.2,0.7c0.1,0.4,0.4,1.4-0.7,1.6l-6.6,2.8c0,0,7.2-3,9.8-3.4 c0.8-0.1,1.3,0.1,1.4,0.9c0.1,0.9-1.1,1.2-2.3,1.5l-7.1,2.5l7-2.4c0,0,1.7-0.7,1.9,0.6c0.2,1-0.9,1.5-2.8,2l-4.8,1.5 c0,0,3.8-1.3,5.8-1.7c1.3-0.3,1.7,1.2,0.2,1.9c-4,1.9-6.4,2.3-10,4.3c-1.5,0.8-4.9,3.4-4.9,3.4l-4.6-4c0,0,3-4.6,3.2-6.5 s1-6.9,1-8.2c0,0,1.6-0.4,2.1,0.5c0.5,0.9,0.3,3.7,0.3,3.7s0.9,2.4,0.7,3.7s-0.2,1.3-0.2,1.3"/></g><path id="back_1_" class="st95" d="M320.2,178.2c0,0,4.2-29.6,2.7-43.5c-1.6-14,2.8-37.3,30.4-37.3c24.4,0,27.1,26.6,26.5,31.6 c-0.6,5.5-5.5,40,0.1,52.1c5.6,11.9-18,7.1-18,7.1l-31.6-0.6L320.2,178.2z"/><path id="_x32__copy_5_1_" class="st96" d="M351.1,102.9c12.4,0,22.2,11.6,21.9,25.5l-0.3,14.8c-0.3,13.1-10,23.5-21.6,23.5 s-21.3-10.4-21.6-23.5l-0.3-14.8C328.9,114.5,338.7,102.9,351.1,102.9z"/><path id="_x32__line_1_" class="st69" d="M374,128l-0.4,15.4c-0.3,13.7-10.4,24.5-22.6,24.5s-22.3-10.8-22.6-24.5l-0.4-15.4 c-0.3-14.5,9.9-26.6,22.9-26.6S374.4,113.4,374,128z M351,103c-12.2,0-21.9,11.5-21.6,25.3l0.3,14.7c0.3,13,9.8,23.3,21.3,23.3 s21-10.3,21.3-23.3l0.3-14.7C373,114.5,363.3,103,351,103z"/><path id="usta_1_" class="st69" d="M361.9,152.2c-1.8,1.6-5.9,3.1-10.7,3.1s-8.9-1.5-10.7-3.1c0,0-0.2-0.5,0.1-0.8 c0.3-0.3,0.7-0.2,0.7-0.2c1.8,1.6,5.1,2.9,9.9,2.9s8.1-1.3,9.9-2.9c0,0,0.4-0.2,0.7,0.1C362.2,151.7,361.9,152.2,361.9,152.2z"/><path id="_x2D__1_" class="st69" d="M347.9,157.7h6.4v1h-6.4V157.7z"/><path id="Shape_11_copy_1_" class="st97" d="M327.9,130.2c0,0-0.2-0.2-0.7-0.3c-0.2-0.1-0.5-0.1-0.8-0.1c-0.1,0-0.2,0-0.2,0 c-0.1,0-0.2,0-0.3,0c-0.2,0-0.4,0.1-0.5,0.1c-0.7,0.2-1.5,0.7-1.9,1.8c-0.2,0.5-0.4,1.2-0.4,2c0,0.2,0,0.4,0,0.7 c0,0.2,0,0.5,0,0.7c0,0.5,0.1,1.1,0.2,1.7c0,0-0.1,1.8,0.6,3.9c0.6,2,2.1,4.6,4.8,5.3C328.2,140.7,328.2,135.4,327.9,130.2 L327.9,130.2z"/><path id="Shape_3_1_" class="st69" d="M328.4,130.4c0,0-4.7-1.5-4.6,3.4c0,0,0.7,7,1,7.7c0,0,1.9,4.1,4.9,4.3c3,0.2,0,0,0,0l0,1.3 c0,0-5.4-0.7-6.4-6.9l-0.8-5.6c0,0-0.6-7.4,5.5-5.6c6,1.8,0,0,0,0L328.4,130.4"/><path id="Shape_4_1_" class="st69" d="M326.9,140.2c0,0-0.3,0.2-0.5,0.2c-0.2,0-0.5-0.2-0.5-0.2l-0.5-4.9c0,0,0.7-2.4,3.5-1.1 l0.1,1.4c0,0-2.5-0.9-2.5,0.2C326.6,136.8,326.9,140.2,326.9,140.2z"/><path id="Shape_11_copy_x5F_1_1_" class="st97" d="M374,130.2c0,0,0.2-0.2,0.7-0.3c0.2-0.1,0.5-0.1,0.8-0.1c0.1,0,0.2,0,0.3,0 c0.1,0,0.2,0,0.3,0c0.2,0,0.4,0.1,0.5,0.1c0.7,0.2,1.5,0.7,1.9,1.8c0.2,0.5,0.4,1.2,0.4,2c0,0.2,0,0.4,0,0.7c0,0.2,0,0.5,0,0.7 c0,0.5-0.1,1.1-0.2,1.7c0,0,0.1,1.8-0.6,3.9c-0.6,2-2.1,4.5-4.8,5.3C373.6,140.7,373.7,135.4,374,130.2L374,130.2z"/><path id="Shape_3_x5F_1_1_" class="st69" d="M373.7,130.4c0,0,4.7-1.5,4.6,3.4c0,0-0.7,7-1,7.7c0,0-1.9,4.1-4.9,4.3 c-3,0.2,0,0,0,0l0,1.3c0,0,5.4-0.7,6.4-6.9l0.8-5.6c0,0,0.6-7.4-5.6-5.6c-6,1.8,0,0,0,0L373.7,130.4"/><path id="Shape_4_x5F_1_1_" class="st69" d="M375.2,140.2c0,0,0.3,0.2,0.5,0.2c0.2,0,0.5-0.2,0.5-0.2l0.5-4.9c0,0-0.7-2.4-3.5-1.1 l-0.1,1.4c0,0,2.5-0.9,2.5,0.2C375.5,136.8,375.2,140.2,375.2,140.2z"/><path id="new_vector_shape_done_1_" class="st69" d="M352.9,139.8c0.1,0,0.2,0,0.3,0c0.7,1,1,2.5,1.4,3.8c0.1,0.4,0,1.1-0.1,1.4 c-0.4,1-1.6,1-2.5,1.5c-0.3,0.1-0.5,0.3-0.8,0.4c-0.2-0.2-0.5-0.2-0.6-0.5c-0.3-0.4,0.1-0.6,0.3-0.7c0.5-0.3,2-0.5,2.2-1 c0.2-0.3,0.1-1,0-1.3c-0.2-0.7-0.3-1.3-0.5-1.9c-0.2-0.4-0.5-0.9-0.3-1.3C352.5,140,352.8,139.9,352.9,139.8z"/><path id="oko_1_" class="st69" d="M340.1,131.3c1.1,0,2,0.9,2,2s-0.9,2-2,2s-2-0.9-2-2S339,131.3,340.1,131.3z"/><path id="oko_1_1_" class="st69" d="M362.3,131.3c1.1,0,2,0.9,2,2s-0.9,2-2,2s-2-0.9-2-2S361.2,131.3,362.3,131.3z"/><path id="Ellipse_3_copy_1_" class="st98" d="M340,138.7c1.9,0,3.5,0.1,3.5,2.3c0,2.3-1.6,2.3-3.5,2.3c-1.9,0-3.5-0.4-3.5-2.3 C336.5,138.8,338.1,138.7,340,138.7z"/><path id="Ellipse_3_copy_2_1_" class="st98" d="M363.2,138.7c1.9,0,3.5,0.1,3.5,2.3c0,2.3-1.6,2.3-3.5,2.3s-3.5-0.4-3.5-2.3 C359.7,138.8,361.2,138.7,363.2,138.7z"/><path id="R_2_" class="st69" d="M356.5,127.7l0.6,0.7l0.4,0.5c0,0,6.4-3.5,10.8,0.5l0.5,0.2c0,0-1.1-5.9-10.6-2.4 C357.5,127.4,357,127.5,356.5,127.7z"/><path id="L_2_" class="st69" d="M345.5,127.7l-0.6,0.7l-0.4,0.5c0,0-6.4-3.5-10.8,0.5l-0.5,0.2c0,0,1.1-5.9,10.6-2.4 C344.4,127.4,344.9,127.5,345.5,127.7z"/><path id="Shape_26_2_" class="st99" d="M328.9,128c0,0,0,5.8,0.1,5.7c0.7-1.2-0.2-14.8,19-14.4c10.7,0.2,12.3-6.2,12.3-6.2 s2.7,1.1,7,5.4c4.5,4.7,5.4,10.6,5.4,10.6l3.7-13.4l-13.7-14.2l-10.2-0.6l-8.9,1.4l-6.6,3.1l-7.3,9.3"/><path class="st100" d="M357.1,166.4v7.4c0,0.2,0,0.3,0,0.5c-0.3,2.8-2.8,4.9-6,4.9s-5.7-2.2-6-4.9c0-0.2,0-0.3,0-0.5v-7.4 c1.5,0.6,3.7,1.2,6.5,1.2C353.9,167.5,355.8,166.9,357.1,166.4z"/><g><path class="st101" d="M397.6,177.5c0,0-4,11-15,28h-11c0,0-1-5-3-8.1l-1.1-1.1c-0.9,1.9-1.9,3.4-1.9,5.1c0,3,0,4,0,4h-29 c0,0,0-1,0-4c0-1.9-1.2-3.4-2-5.5l-1,1.4c-2,3-3,8.1-3,8.1h-11c-11-17-15-28-15-28c5-2,8-6,8-6c4,11,12,21,12,21s-1-7,3-14 s17-8,17-8v1h0c0.3,2.8,3.1,5,6.5,5s6.2-2.2,6.5-5h0v-1c0,0,13,1,17,8s3,14,3,14s8-10,12-21C389.6,171.5,392.6,175.5,397.6,177.5 z"/><path class="st102" d="M365.2,182.8c0,0,3,4,3,9.1c0,2.1-0.5,3.6-1.1,4.9"/><path class="st102" d="M334.1,196.5c-0.5-1.3-1-2.7-1-4.6c0-5,3-9.1,3-9.1"/></g><path class="st56" d="M304.6,175.7l5.5-4.3l1,1.4c0,0-4.7,3.5-5.1,4C305.4,177.3,304.6,175.7,304.6,175.7z"/><path class="st56" d="M397.1,175.7l-5.5-4.3l-1,1.4c0,0,4.7,3.5,5.1,4C396.3,177.3,397.1,175.7,397.1,175.7z"/><path class="st103" d="M372.2,157.3c0,0-0.3,7.7,0.3,12.2"/><path class="st103" d="M366.8,165.8c0,0,0,2.3,0.3,3.4"/><line class="st103" x1="327.6" y1="165.9" x2="328.6" y2="159.9"/></g><line class="st16" x1="266" y1="205.5" x2="436" y2="205.5"/><path class="st104" d="M281.4,150.9c-3.8-9-5.9-19-5.9-29.4c0-41.7,33.8-75.5,75.5-75.5s75.5,33.8,75.5,75.5 c0,10.4-2.1,20.4-5.9,29.4"/><circle class="st105" cx="276.5" cy="105.5" r="20"/><g transform="translate(0.5, 0.5)"><polyline class="st106" points="284,101 284,115 266,115 266,101"/><rect x="264" y="97" class="st106" width="22" height="4"/><path class="st107" d="M271.2,93.1c2.5,0.5,3.3,3.9,3.3,3.9s-2.9,0-4,0c-1.2,0-2.1-1-2-2.2C268.6,93.6,269.9,92.8,271.2,93.1z"/><path class="st107" d="M277.8,93.1c-2.5,0.5-3.3,3.9-3.3,3.9s2.9,0,4,0c1.2,0,2.1-1,2-2.2C280.4,93.6,279.1,92.8,277.8,93.1z"/><polyline class="st108" points="277,102 277,115 273,115 273,102"/><polyline class="st108" points="277,98 277,101 273,101 273,98"/></g><circle class="st105" cx="426.5" cy="104.5" r="20"/><g><path class="st109" d="M429.5,107.5V96c0-1.9-0.4-3.4-2.8-2.9c-1.8,0.3-3.2,2.1-3.2,3.9l0,10.5"/><path class="st110" d="M423,98c3,0,5-1.4,5-4.8"/><path class="st111" d="M423,98c3,0,5-1.4,5-4.8"/><rect x="420.5" y="107.5" class="st112" width="12" height="8"/></g><circle class="st105" cx="315.5" cy="53.5" r="20"/><g><path class="st110" d="M323,64h-14c-2.2,0-4-1.8-4-4V48h22v12C327,62.2,325.2,64,323,64z"/><path class="st113" d="M322.5,64.5h-14c-2.2,0-4-1.8-4-4v-12h22v12C326.5,62.7,324.7,64.5,322.5,64.5z"/><path class="st110" d="M321,51v-3.8c0-2.6-2.1-5-4.6-5.2c-3-0.2-5.4,2.1-5.4,5v4"/><path class="st107" d="M320.5,51.5v-4.3c0-2.6-2.1-5-4.6-5.2c-3-0.2-5.4,2.1-5.4,5v4.5"/><rect x="313" y="55" class="st110" width="6" height="4"/><rect x="312.5" y="55.5" class="st114" width="6" height="4"/></g><circle class="st105" cx="386.5" cy="53.5" r="20"/><g><path class="st110" d="M395,53c0-1.7,1.3-3,3-3v-5h-22v5c1.7,0,3,1.3,3,3s-1.3,3-3,3v5h22v-5C396.3,56,395,54.7,395,53z"/><path class="st115" d="M394.5,53.5c0-1.7,1.3-3,3-3v-5h-22v5c1.7,0,3,1.3,3,3s-1.3,3-3,3v5h22v-5 C395.8,56.5,394.5,55.2,394.5,53.5z"/><line class="st110" x1="389.1" y1="50" x2="383.1" y2="56"/><line class="st107" x1="389.1" y1="50" x2="383.1" y2="56"/><path class="st116" d="M384.7,48.4c0.6,0.6,0.6,1.5,0,2.1c-0.6,0.6-1.5,0.6-2.1,0c-0.6-0.6-0.6-1.5,0-2.1 C383.2,47.9,384.1,47.9,384.7,48.4"/><path class="st116" d="M389.7,55.4c0.6,0.6,0.6,1.5,0,2.1c-0.6,0.6-1.5,0.6-2.1,0c-0.6-0.6-0.6-1.5,0-2.1 C388.2,54.9,389.1,54.9,389.7,55.4"/></g></g></svg>