<svg version="1.1" id="Main" xmlns="http://www.w3.org/2000/svg" xmlns:xlink="http://www.w3.org/1999/xlink" x="0" y="0" viewBox="0 0 320 220" xml:space="preserve" enable-background="new 0 0 320 220"><style type="text/css">.st0{opacity:.7;fill:#f4af40}.st1{fill:#fff}.st2{opacity:.7}.st2,.st3{fill:#00bcd8}.st4{opacity:.5}.st5{fill:#f4af40}.st6,.st7{opacity:.7;fill:#19a0db}.st7{fill:#43bc49}.st8{fill:#55595b}.st9{opacity:.2}.st10{fill:#19a0db}.st11{fill:none;stroke:#e6ecef;stroke-width:4;stroke-miterlimit:10}.st12{fill:#e6ecef}.st13{fill:#45494c}.st14{fill:#43bc49}</style><g><g><path class="st0" d="M178.7,60.3h-38c-3.8,0-7-3.1-7-7v0c0-3.8,3.1-7,7-7h38c3.9,0,7,3.1,7,7v0C185.7,57.2,182.6,60.3,178.7,60.3z"/><g><g><path class="st1" d="M143.6,49c1.3,1.4,2.7,2.5,4.4,3.4l-0.4,0.7c-1.7-0.9-3.1-2-4.2-3.4c-1.1,1.3-2.5,2.5-4.3,3.4l-0.4-0.7 c1.8-0.9,3.2-2,4.4-3.4H143.6z M147.3,54.1v0.7h-4.7c-0.5,0.9-1.1,1.8-1.7,2.5c1.6-0.1,3.2-0.2,4.7-0.4 c-0.3-0.4-0.7-0.9-1.1-1.4l0.6-0.4c0.9,1,1.6,1.9,2.1,2.6l-0.6,0.4c-0.2-0.3-0.3-0.5-0.5-0.8c-1.6,0.2-3.5,0.4-5.9,0.6l-0.2-0.6 c0.2,0,0.3-0.1,0.4-0.2c0.6-0.7,1.2-1.5,1.6-2.3h-2.5v-0.7H147.3z M145.8,52.1v0.7h-4.9v-0.7H145.8z"/><path class="st1" d="M153.8,54c-0.1,1.5-0.4,2.5-0.9,3c-0.5,0.6-1.7,1-3.6,1.2l-0.3-0.6c1.6-0.1,2.7-0.4,3.2-1 c0.5-0.5,0.7-1.4,0.8-2.6L153.8,54z M156.7,56.4H156v-3.1h-5.3v3.2h-0.7v-3.8h6.7V56.4z M156.1,49.4v2.5h-5.5v-2.5H156.1z M155.4,50h-4.1v1.2h4.1V50z M157.6,57.6l-0.4,0.6c-1.1-0.6-2.3-1.1-3.5-1.4l0.4-0.5C155.3,56.7,156.5,57.1,157.6,57.6z"/><path class="st1" d="M164.1,50.6c0.5,0.4,0.9,1,1,1.7h-0.8c-0.1-0.5-0.4-0.9-0.8-1.2c-0.4-0.3-0.9-0.4-1.4-0.4 c-0.8,0-1.5,0.3-1.9,0.9c-0.4,0.5-0.6,1.2-0.6,2.1s0.2,1.6,0.6,2.1c0.4,0.5,1.1,0.8,1.9,0.8c0.6,0,1-0.1,1.4-0.4 c0.4-0.3,0.7-0.8,0.8-1.4h0.8c-0.2,0.8-0.5,1.5-1.1,1.9c-0.5,0.4-1.2,0.6-2,0.6c-1.1,0-2-0.4-2.5-1.1c-0.5-0.7-0.8-1.5-0.8-2.6 s0.3-1.9,0.8-2.6c0.6-0.8,1.5-1.1,2.6-1.1C162.9,49.9,163.6,50.1,164.1,50.6z"/><path class="st1" d="M169.4,50.1c0.7,0,1.3,0.2,1.7,0.5c0.4,0.3,0.6,0.8,0.6,1.5c0,0.4-0.1,0.7-0.3,1.1c-0.2,0.3-0.6,0.5-1,0.6 v0c0.7,0.1,1.1,0.6,1.1,1.3l0.1,1.1c0,0.4,0.2,0.8,0.4,1h-0.9c-0.2-0.2-0.3-0.5-0.3-0.9l-0.1-0.9c0-0.4-0.2-0.7-0.4-0.9 c-0.2-0.2-0.6-0.3-1-0.3h-2.2v3.1h-0.8v-7.1H169.4z M167.1,53.4h2.2c0.5,0,0.9-0.1,1.2-0.4c0.2-0.2,0.4-0.5,0.4-1 c0-0.4-0.1-0.8-0.4-1c-0.3-0.2-0.7-0.3-1.2-0.3h-2.2V53.4z"/><path class="st1" d="M174.1,50.1l2.7,6.1h0l2.6-6.1h1v7.1h-0.8v-5.7h0l-2.5,5.7h-0.7l-2.5-5.7h0v5.7h-0.8v-7.1H174.1z"/></g></g></g><g><path class="st2" d="M178.7,217.9h-38c-3.8,0-7-3.2-7-7v0c0-3.8,3.1-7,7-7h38c3.9,0,7,3.1,7,7v0 C185.7,214.8,182.6,217.9,178.7,217.9z"/><g><path class="st1" d="M141.2,208.1v7.6h-0.9v-7.6H141.2z M143.1,208.1l-0.8,0.4c-0.4-0.7-0.8-1.3-1.2-1.8l0.9-0.4 C142.4,206.8,142.8,207.4,143.1,208.1z M146.5,215.5l-0.2-0.9l0.9,0c0.3,0,0.4-0.2,0.4-0.5v-6.4h-3.8v-0.9h4.7v7.6 c0,0.8-0.4,1.1-1.1,1.1H146.5z"/><path class="st1" d="M155.2,207.3h3.6v0.9h-7.3v2.1c0,2.2-0.4,4-1.1,5.3l-0.7-0.6c0.5-1.1,0.8-2.7,0.9-4.6v-3h3.6 c-0.1-0.3-0.3-0.5-0.5-0.8l1-0.2C154.9,206.6,155.1,207,155.2,207.3z M155.4,208.5v1.1h3.2v0.9h-3.2v1.3h2.6v3.8h-0.9v-0.4h-3.9 v0.4h-0.9v-3.8h2.2v-3.2H155.4z M157.1,214.3v-1.6h-3.9v1.6H157.1z"/><path class="st1" d="M163,207.5c1.7,0,2.5,0.7,2.5,2.2c0,1.5-0.9,2.2-2.6,2.2h-1.8v2.8h-1.1v-7.1H163z M161.2,210.9h1.8 c0.5,0,0.9-0.1,1.2-0.3c0.2-0.2,0.4-0.5,0.4-1s-0.1-0.8-0.4-0.9c-0.2-0.2-0.6-0.3-1.2-0.3h-1.8V210.9z"/><path class="st1" d="M172.3,208.4c0.6,0.7,0.9,1.6,0.9,2.7c0,1.1-0.3,2-0.9,2.6c-0.6,0.7-1.5,1-2.6,1c-1.1,0-1.9-0.4-2.6-1.1 c-0.6-0.7-0.9-1.6-0.9-2.6c0-1.1,0.3-2,0.9-2.6c0.6-0.7,1.5-1.1,2.6-1.1C170.8,207.3,171.7,207.7,172.3,208.4z M168,209 c-0.4,0.5-0.6,1.1-0.6,2c0,0.8,0.2,1.5,0.6,2c0.4,0.5,1,0.8,1.8,0.8c0.8,0,1.3-0.2,1.8-0.7c0.4-0.5,0.6-1.1,0.6-2 c0-0.9-0.2-1.5-0.6-2c-0.4-0.5-1-0.7-1.8-0.7C169,208.3,168.4,208.5,168,209z"/><path class="st1" d="M178.8,207.8c0.5,0.4,0.8,0.9,0.8,1.7h-1.1c-0.1-0.5-0.3-0.8-0.6-1c-0.3-0.2-0.7-0.3-1.2-0.3 c-0.5,0-0.8,0.1-1.1,0.2c-0.3,0.2-0.5,0.4-0.5,0.8c0,0.3,0.2,0.6,0.5,0.8c0.2,0.1,0.6,0.2,1.2,0.4c1,0.3,1.6,0.5,1.9,0.7 c0.6,0.4,0.9,0.9,0.9,1.5c0,0.6-0.2,1.1-0.7,1.5c-0.5,0.4-1.2,0.5-2.1,0.5c-0.9,0-1.5-0.2-2-0.5c-0.6-0.4-0.9-1.1-1-2h1.1 c0.1,0.6,0.3,1,0.6,1.2c0.3,0.2,0.7,0.3,1.3,0.3c0.5,0,1-0.1,1.3-0.3c0.3-0.2,0.5-0.4,0.5-0.7c0-0.4-0.2-0.7-0.7-0.9 c-0.2-0.1-0.6-0.2-1.4-0.5c-0.9-0.3-1.4-0.5-1.6-0.6c-0.5-0.3-0.8-0.8-0.8-1.4c0-0.6,0.3-1.1,0.8-1.5c0.5-0.3,1.1-0.5,1.9-0.5 C177.7,207.3,178.3,207.5,178.8,207.8z"/></g></g><g id="Billing__x2F__Receipt_1_"><g><g><rect x="133.6" y="160.9" class="st1" width="52.2" height="38.9"/></g><g><path class="st3" d="M185.3,161.4v37.8h-51.1v-37.8H185.3 M186.4,160.3h-53.2v39.9h53.2V160.3L186.4,160.3z"/></g></g><g><g><polygon class="st1" points="162.4,191.4 159.7,192.8 157.1,191.4 154.4,192.8 151.7,191.4 149.6,192.5 149.6,167.3 164.3,167.3 169.9,172.8 169.9,192.5 167.7,191.4 165.1,192.8"/></g><g><path class="st3" d="M164.1,167.8l5.2,5.2v18.6l-1.1-0.6l-0.5-0.2l-0.5,0.2l-2.2,1.1l-2.2-1.1l-0.5-0.2l-0.5,0.2l-2.2,1.1 l-2.2-1.1l-0.5-0.2l-0.5,0.2l-2.2,1.1l-2.2-1.1l-0.5-0.2l-0.5,0.2l-1.1,0.6v-23.8H164.1 M164.5,166.7h-15.4v26.6l2.7-1.3 l2.7,1.3l2.7-1.3l2.7,1.3l2.7-1.3l2.7,1.3l2.7-1.3l2.7,1.3v-20.8L164.5,166.7L164.5,166.7z"/></g></g><g><polygon class="st3" points="169.9,173.7 163.5,173.7 163.5,167.3 164.5,167.3 164.5,172.6 169.9,172.6"/></g><g><rect x="164" y="184.3" class="st3" width="2.7" height="1.1"/></g><g><rect x="153.3" y="179" class="st3" width="13.3" height="1.1"/></g><g><rect x="164" y="187" class="st3" width="2.7" height="1.1"/></g><g><rect x="152.8" y="184.3" class="st3" width="6.9" height="1.1"/></g><g><rect x="152.8" y="187" class="st3" width="6.9" height="1.1"/></g><g><rect x="153.3" y="176.3" class="st3" width="13.3" height="1.1"/></g><g><rect x="157.1" y="172.1" class="st3" width="4.3" height="1.1"/></g><g><path class="st3" d="M155.5,173.1c0,0.2-0.1,0.4-0.3,0.6c-0.2,0.1-0.4,0.2-0.8,0.3v0.2h-0.5V174c0,0-0.3-0.1-0.5-0.2v-0.6 c0.1,0.1,0.2,0.1,0.4,0.2c0.2,0,0.1,0.1,0.1,0.1v-0.7l0.2-0.1c-0.3-0.1-0.5-0.2-0.6-0.4c-0.1-0.1-0.2-0.3-0.2-0.5 c0-0.2,0.1-0.4,0.3-0.5c0.2-0.1,0.4-0.2,0.4-0.3v-0.6h0.5v0.6c0.5,0,0.8,0.1,1,0.2l-0.2,0.5c-0.2-0.1-0.5-0.2-0.8-0.2v0.7 c0.4,0.1,0.6,0.2,0.7,0.3c0.1,0.1,0.2,0.2,0.3,0.3C155.5,172.9,155.5,173,155.5,173.1z M154.1,171.8c0,0.1,0,0.1,0.1,0.2 c0,0,0.1,0.1,0.2,0.1v-0.5C154.2,171.6,154.1,171.7,154.1,171.8z M154.7,173.2c0-0.1,0-0.1-0.1-0.2c0,0-0.1-0.1-0.2-0.1v0.6 C154.6,173.4,154.7,173.3,154.7,173.2z"/></g><g class="st4"><rect x="141.1" y="170.5" class="st3" width="6.9" height="1.6"/></g><g class="st4"><rect x="141.1" y="167.8" class="st3" width="6.9" height="1.6"/></g><g class="st4"><rect x="141.1" y="173.1" class="st3" width="6.9" height="1.6"/></g><g class="st4"><rect x="141.1" y="175.8" class="st3" width="6.9" height="1.6"/></g><g class="st4"><rect x="141.1" y="178.5" class="st3" width="6.9" height="1.6"/></g><g class="st4"><rect x="141.1" y="181.1" class="st3" width="6.9" height="1.6"/></g><g class="st4"><rect x="141.1" y="183.8" class="st3" width="6.9" height="1.6"/></g><g class="st4"><rect x="141.1" y="186.4" class="st3" width="6.9" height="1.6"/></g><g class="st4"><rect x="141.1" y="189.1" class="st3" width="6.9" height="1.6"/></g><g class="st4"><rect x="171.4" y="170.5" class="st3" width="6.9" height="1.6"/></g><g class="st4"><rect x="168.8" y="167.8" class="st3" width="9.6" height="1.6"/></g><g class="st4"><rect x="171.4" y="173.1" class="st3" width="6.9" height="1.6"/></g><g class="st4"><rect x="171.4" y="175.8" class="st3" width="6.9" height="1.6"/></g><g class="st4"><rect x="171.4" y="178.5" class="st3" width="6.9" height="1.6"/></g><g class="st4"><rect x="171.4" y="181.1" class="st3" width="6.9" height="1.6"/></g><g class="st4"><rect x="171.4" y="183.8" class="st3" width="6.9" height="1.6"/></g><g class="st4"><rect x="171.4" y="186.4" class="st3" width="6.9" height="1.6"/></g><g class="st4"><rect x="171.4" y="189.1" class="st3" width="6.9" height="1.6"/></g></g><g id="People_bio_list_1_"><g><g><rect x="133.6" y="3.3" class="st1" width="52.2" height="38.9"/></g><g><g><path class="st5" d="M185.3,3.8v37.8h-51.1V3.8H185.3 M186.4,2.7h-53.2v39.9h53.2V2.7L186.4,2.7z"/></g></g></g><g><g><rect x="141.6" y="13.4" class="st1" width="36.2" height="8.5"/></g><g><path class="st5" d="M177.3,13.9v7.5h-35.1v-7.5H177.3 M178.4,12.9h-37.3v9.6h37.3V12.9L178.4,12.9z"/></g></g><g><g><rect x="141.6" y="13.4" class="st1" width="8.5" height="8.5"/></g><g><path class="st5" d="M149.6,13.9v7.5h-7.5v-7.5H149.6 M150.7,12.9h-9.6v9.6h9.6V12.9L150.7,12.9z"/></g></g><g><rect x="153.3" y="16.1" class="st5" width="10.6" height="1.1"/></g><g><rect x="153.3" y="18.7" class="st5" width="21.3" height="1.1"/></g><g><g><rect x="141.6" y="25.6" class="st1" width="36.2" height="8.5"/></g><g><path class="st5" d="M177.3,26.2v7.5h-35.1v-7.5H177.3 M178.4,25.1h-37.3v9.6h37.3V25.1L178.4,25.1z"/></g></g><g><g><rect x="141.6" y="25.6" class="st1" width="8.5" height="8.5"/></g><g><path class="st5" d="M149.6,26.2v7.5h-7.5v-7.5H149.6 M150.7,25.1h-9.6v9.6h9.6V25.1L150.7,25.1z"/></g></g><g><rect x="153.3" y="28.3" class="st5" width="10.6" height="1.1"/></g><g><rect x="153.3" y="30.4" class="st5" width="21.3" height="1.1"/></g><g><path class="st5" d="M148.2,19.8c-0.1-0.3-0.8-0.5-1.3-0.7c-0.5-0.2-0.4-0.3-0.4-0.5c0,0,0-0.1,0-0.1c0.1-0.1,0.3-0.2,0.3-0.4 c0,0,0,0,0,0c0,0,0-0.2,0-0.2c0.1,0,0.2-0.1,0.2-0.2c0,0,0.1-0.1,0.1-0.3c0-0.2-0.1-0.2-0.1-0.3c0,0,0,0,0,0c0,0,0-0.1,0-0.1 c0-0.1,0-0.3,0-0.4c0-0.1,0-0.3-0.1-0.5l0,0l-0.1-0.2l0-0.1l-0.1,0c0,0,0,0,0,0c0,0-0.1-0.1,0-0.1c0,0-0.2,0-0.2,0s0-0.1-0.1-0.2 c0,0-0.1,0-0.1,0c-0.2,0-0.1-0.2-0.3-0.2c0-0.1,0-0.2,0-0.2s-0.1,0.1-0.2,0.1c0-0.1,0-0.2,0-0.2s-0.2,0-0.2,0.2c0,0,0-0.1,0-0.2 c-0.2,0.1-0.3,0.2-0.4,0.3c0,0,0,0,0-0.1c-0.1,0-0.1,0.3-0.2,0.3s-0.1,0-0.1-0.1c-0.1,0-0.3,0.4-0.3,0.4l-0.2,0.2 c0,0,0.1,0,0.1,0c0,0-0.1,0.3-0.1,0.3s0.1,0,0.1,0s0,0,0,0l-0.1,0.3l0.1,0c0,0.1,0,0.2,0,0.3c0,0.1,0,0.2,0,0.2 c-0.1,0-0.1,0.1-0.1,0.2c0,0.1,0,0.2,0.1,0.3c0,0.1,0.1,0.2,0.2,0.2c0,0.1,0,0.2,0.1,0.2c0,0,0,0,0,0l0,0 c0.1,0.2,0.2,0.3,0.3,0.4c0,0.1,0,0.1,0,0.2c0,0.2,0,0.3-0.4,0.5c-0.5,0.2-1.2,0.4-1.3,0.7c-0.1,0.3-0.1,0.5-0.1,0.5h5 C148.3,20.3,148.4,20.1,148.2,19.8z"/></g><g><path class="st5" d="M148.4,32c-0.2-0.3-0.9-0.6-1.4-0.8s-0.4-0.3-0.5-0.5c0,0,0,0,0,0c0.1-0.1,0.2-0.2,0.3-0.3 c0.3,0.1,0.7,0.1,1-0.2c-0.5-0.5-0.2-1.1-0.6-2.2c-0.3-0.9-1.5-0.9-1.7-0.6c-0.7-0.2-1.1,0.1-1.3,1.1c-0.2,1.1,0.1,1.2-0.4,1.7 c0.3,0.2,0.7,0.2,0.9,0.1c0.1,0.2,0.2,0.3,0.3,0.4c0,0,0,0,0,0c0,0.2,0,0.3-0.5,0.5c-0.5,0.2-1.3,0.4-1.4,0.8 c-0.2,0.3-0.1,0.6-0.1,0.6h5.4C148.5,32.6,148.5,32.4,148.4,32z"/></g><g><rect x="141.1" y="9.1" class="st5" width="10.6" height="1.1"/></g><g><rect x="174.1" y="9.1" class="st5" width="4.3" height="1.1"/></g><g><rect x="168.8" y="9.1" class="st5" width="4.3" height="1.1"/></g></g><g><path class="st6" d="M45.4,131.7h-38c-3.8,0-7-3.1-7-7v0c0-3.8,3.1-7,7-7h38c3.8,0,7,3.2,7,7v0C52.4,128.5,49.2,131.7,45.4,131.7z"/><g><g><path class="st1" d="M12.1,120.1c1.3,1.4,2.7,2.5,4.4,3.3l-0.4,0.7c-1.7-0.8-3.1-2-4.2-3.3c-1.1,1.3-2.5,2.4-4.3,3.4l-0.4-0.7 c1.8-0.9,3.2-2,4.4-3.3H12.1z M12.5,122.7v2.2h2.7v0.7h-2.7v2.5H16v0.7H7.7v-0.7h1.5v-4h0.7v4h1.9v-5.4H12.5z"/><path class="st1" d="M21.2,120.1v7.9h1.4v-7.9h0.7v7.9h3v0.7h-8.9v-0.7h3v-7.9H21.2z M19.7,126.6l-0.7,0.2 c-0.4-1.6-0.8-3.1-1.3-4.6l0.6-0.2C18.8,123.3,19.3,124.8,19.7,126.6z M26,122.1c-0.4,1.7-0.9,3.3-1.5,4.6l-0.6-0.2 c0.6-1.2,1.1-2.7,1.5-4.5L26,122.1z"/><path class="st1" d="M32.7,121.1v0.7h-4.2v2.4h4v0.7h-4v2.6h4.4v0.7h-5.2v-7.1H32.7z"/><path class="st1" d="M37.1,121.1c0.7,0,1.3,0.2,1.7,0.5c0.4,0.3,0.6,0.8,0.6,1.5c0,0.4-0.1,0.7-0.3,1.1c-0.2,0.3-0.6,0.5-1,0.6 v0c0.7,0.1,1.1,0.6,1.1,1.3l0.1,1.1c0,0.4,0.2,0.8,0.4,1h-0.9c-0.2-0.2-0.3-0.5-0.3-0.9l-0.1-0.9c0-0.4-0.2-0.7-0.4-0.9 c-0.2-0.2-0.6-0.3-1-0.3h-2.2v3.1H34v-7.1H37.1z M34.8,124.4H37c0.5,0,0.9-0.1,1.2-0.4c0.2-0.2,0.4-0.5,0.4-1 c0-0.4-0.1-0.8-0.4-1c-0.3-0.2-0.7-0.3-1.2-0.3h-2.2V124.4z"/><path class="st1" d="M43.7,121.1c1.6,0,2.5,0.7,2.5,2.1c0,1.4-0.8,2.1-2.5,2.1h-2.1v2.9h-0.8v-7.1H43.7z M41.6,124.6h2 c0.6,0,1-0.1,1.3-0.4c0.3-0.2,0.4-0.6,0.4-1.1c0-0.5-0.1-0.8-0.4-1c-0.3-0.2-0.7-0.3-1.3-0.3h-2V124.6z"/></g></g></g><g><path class="st7" d="M312.1,131.7h-38c-3.9,0-7-3.1-7-7v0c0-3.8,3.1-7,7-7h38c3.9,0,7,3.2,7,7v0 C319.1,128.5,316,131.7,312.1,131.7z"/><g><path class="st1" d="M275.7,120.5c-0.4,1.1-1.1,2-2.1,2.8l-0.2-0.7c0.8-0.7,1.3-1.5,1.7-2.4L275.7,120.5z M275.8,123.2 c-0.1,0.4-0.3,0.7-0.5,1.1v5.1h-0.7v-4.1c-0.3,0.3-0.6,0.6-0.9,0.9l-0.2-0.7c0.8-0.8,1.3-1.6,1.7-2.6L275.8,123.2z M278,128.1 c0.1-0.1,0.2-0.2,0.2-0.3V126h-1.1v0.4c0,1.2-0.3,2.2-0.9,2.8l-0.5-0.5c0.5-0.5,0.8-1.3,0.8-2.3v-1.1h2.4v2.2 c0.3-0.2,0.6-0.5,0.9-0.8l0.2,0.6c-0.5,0.5-1,1-1.5,1.3L278,128.1z M279.2,123.9v0.6h-3.1v-0.6H279.2z M278,120.2v2.3h0.7v-1.7 h0.6v2.3h-3.2v-2.3h0.6v1.7h0.7v-2.3H278z M280.1,124.1c-0.2,0.5-0.4,0.9-0.6,1.3l-0.4-0.5c0.6-1.2,1-2.8,1.2-4.8l0.6,0.1 c-0.1,0.5-0.1,1-0.2,1.5h1.9v0.7h-0.4c0,1.7-0.3,3.1-0.8,4.3c0.4,0.8,0.8,1.5,1.3,1.9l-0.4,0.6c-0.5-0.5-0.9-1.1-1.2-1.8 c-0.4,0.7-0.9,1.4-1.4,1.9l-0.4-0.6c0.6-0.5,1.1-1.2,1.5-2C280.5,125.9,280.3,125.1,280.1,124.1z M280.4,123.1 c0.2,1,0.4,2,0.7,2.7c0.3-1,0.5-2.1,0.5-3.4h-1C280.5,122.7,280.5,122.9,280.4,123.1z"/><path class="st1" d="M283.7,125l-0.2-0.8c1-1.2,1.7-2.6,2.1-4.2l0.7,0.3c-0.2,0.8-0.5,1.5-0.9,2.2v6.8h-0.7v-5.6 C284.4,124.2,284,124.6,283.7,125z M289.3,121.5c-0.2-0.4-0.3-0.8-0.5-1.2l0.7-0.2c0.2,0.4,0.4,0.8,0.5,1.2l-0.4,0.1h3.1v0.7 h-6.5v-0.7H289.3z M292,129.3h-0.7v-0.5h-3.7v0.5h-0.7v-3.5h5.1V129.3z M291.8,123v0.6h-4.7V123H291.8z M291.8,124.4v0.7h-4.7 v-0.7H291.8z M291.3,128.1v-1.6h-3.7v1.6H291.3z"/><path class="st1" d="M294.2,129.4l-0.5-0.5c0.4-0.9,0.6-2.1,0.6-3.5v-4.8h2.9v7.8c0,0.6-0.3,0.9-0.8,0.9h-0.8l-0.2-0.6 c0.3,0,0.5,0,0.8,0c0.2,0,0.4-0.2,0.4-0.5v-2.3h-1.6C294.9,127.3,294.6,128.5,294.2,129.4z M296.5,121.3h-1.6v1.7h1.6V121.3z M294.9,125.3h1.6v-1.7h-1.6V125.3z M298.7,129.3H298v-8.8h4c0,1.2-0.1,2.1-0.2,2.5c-0.1,0.4-0.5,0.6-1.1,0.6H300l-0.2-0.6 c0.2,0,0.4,0,0.7,0c0.2,0,0.4,0,0.5,0c0.1,0,0.2-0.1,0.3-0.3c0.1-0.2,0.1-0.7,0.1-1.5h-2.7v3h3.4v0.6c-0.2,1-0.5,1.9-1,2.6 c0.5,0.4,1,0.8,1.6,1.2l-0.4,0.6c-0.6-0.4-1.2-0.8-1.6-1.2c-0.4,0.5-1,0.9-1.5,1.2l-0.4-0.6c0.6-0.3,1-0.7,1.4-1.2 c-0.6-0.8-1.1-1.7-1.3-2.6h-0.2V129.3z M300.7,127c0.4-0.6,0.6-1.3,0.8-2.1h-1.9C299.8,125.7,300.1,126.4,300.7,127z"/><path class="st1" d="M307.3,120.2c-0.1,0.3-0.2,0.5-0.4,0.8h4.4v0.6c-0.6,0.7-1.4,1.4-2.3,1.9c1.1,0.5,2.4,0.8,3.8,0.9l-0.3,0.7 c-1.6-0.2-3-0.6-4.2-1.2c-1.2,0.6-2.6,1-4.3,1.2l-0.3-0.7c1.4-0.2,2.7-0.5,3.8-1c-0.6-0.3-1.1-0.7-1.6-1.1 c-0.4,0.3-0.8,0.6-1.2,0.9l-0.4-0.6c1.2-0.7,2-1.5,2.4-2.5L307.3,120.2z M308.2,124.6c0,0.4,0,0.8-0.1,1.1h3.5 c0,1.7-0.2,2.7-0.5,3c-0.3,0.3-0.8,0.5-1.5,0.5c-0.3,0-0.7,0-1.2,0l-0.2-0.6l1.2,0c0.6,0,1-0.1,1.1-0.4c0.1-0.2,0.2-0.9,0.3-1.9 h-3c-0.1,0.3-0.2,0.5-0.3,0.7c-0.5,0.9-1.7,1.6-3.5,2.2l-0.5-0.6c1.6-0.5,2.7-1.1,3.2-1.8c0.1-0.2,0.2-0.4,0.3-0.6h-3v-0.6h3.2 c0.1-0.4,0.1-0.7,0.1-1.1H308.2z M310.2,121.7h-3.8l-0.1,0.2c0.6,0.5,1.2,0.9,1.8,1.3C308.9,122.7,309.6,122.2,310.2,121.7z"/></g></g><g id="Line_graph_1_"><g><g><rect x=".5" y="74.6" class="st1" width="52.2" height="38.9"/></g><g><g><path class="st8" d="M52.2,75.2V113H1.1V75.2H52.2 M53.2,74.1H0V114h53.2V74.1L53.2,74.1z"/></g></g></g><g class="st9"><polygon class="st10" points="53.2,96.7 46.6,94.1 39.9,99.4 33.3,91.4 26.6,96.7 20,92.7 13.3,99.4 6.7,96.7 0,99.4 0,114 53.2,114"/></g><g><polygon class="st10" points="39.6,99.9 32.9,91.9 26.4,97.1 19.8,93.1 13.2,99.7 5.1,97 0.5,99.1 0,98.1 5,95.9 12.9,98.5 19.6,91.8 26.3,95.8 33.1,90.4 39.7,98.4 46.2,93.2 52.6,95.7 52.3,96.7 46.4,94.4"/></g><g><g><circle class="st10" cx="26.4" cy="96.5" r="1.7"/></g><g><path class="st1" d="M26.4,95.1c0.7,0,1.3,0.6,1.3,1.3s-0.6,1.3-1.3,1.3S25,97.2,25,96.5S25.6,95.1,26.4,95.1 M26.4,94.3 c-1.2,0-2.1,1-2.1,2.1s1,2.1,2.1,2.1c1.2,0,2.1-1,2.1-2.1S27.5,94.3,26.4,94.3L26.4,94.3z"/></g></g><g><g><circle class="st10" cx="33" cy="91.1" r="1.7"/></g><g><path class="st1" d="M33,89.8c0.7,0,1.3,0.6,1.3,1.3s-0.6,1.3-1.3,1.3c-0.7,0-1.3-0.6-1.3-1.3S32.3,89.8,33,89.8 M33,89 c-1.2,0-2.1,1-2.1,2.1s1,2.1,2.1,2.1c1.2,0,2.1-1,2.1-2.1S34.2,89,33,89L33,89z"/></g></g><g><g><circle class="st10" cx="39.7" cy="99.1" r="1.7"/></g><g><path class="st1" d="M39.7,97.8c0.7,0,1.3,0.6,1.3,1.3s-0.6,1.3-1.3,1.3s-1.3-0.6-1.3-1.3S38.9,97.8,39.7,97.8 M39.7,97 c-1.2,0-2.1,1-2.1,2.1s1,2.1,2.1,2.1s2.1-1,2.1-2.1S40.8,97,39.7,97L39.7,97z"/></g></g><g><g><circle class="st10" cx="46.3" cy="93.8" r="1.7"/></g><g><path class="st1" d="M46.3,92.5c0.7,0,1.3,0.6,1.3,1.3s-0.6,1.3-1.3,1.3c-0.7,0-1.3-0.6-1.3-1.3S45.6,92.5,46.3,92.5 M46.3,91.7 c-1.2,0-2.1,1-2.1,2.1s1,2.1,2.1,2.1s2.1-1,2.1-2.1S47.5,91.7,46.3,91.7L46.3,91.7z"/></g></g><g><g><circle class="st10" cx="19.7" cy="92.5" r="1.7"/></g><g><path class="st1" d="M19.7,91.1c0.7,0,1.3,0.6,1.3,1.3s-0.6,1.3-1.3,1.3c-0.7,0-1.3-0.6-1.3-1.3S19,91.1,19.7,91.1 M19.7,90.3 c-1.2,0-2.1,1-2.1,2.1s1,2.1,2.1,2.1c1.2,0,2.1-1,2.1-2.1S20.9,90.3,19.7,90.3L19.7,90.3z"/></g></g><g><g><circle class="st10" cx="13" cy="99.1" r="1.7"/></g><g><path class="st1" d="M13,97.8c0.7,0,1.3,0.6,1.3,1.3s-0.6,1.3-1.3,1.3c-0.7,0-1.3-0.6-1.3-1.3S12.3,97.8,13,97.8 M13,97 c-1.2,0-2.1,1-2.1,2.1s1,2.1,2.1,2.1s2.1-1,2.1-2.1S14.2,97,13,97L13,97z"/></g></g><g><g><circle class="st10" cx="5.1" cy="96.5" r="1.7"/></g><g><path class="st1" d="M5.1,95.1c0.7,0,1.3,0.6,1.3,1.3s-0.6,1.3-1.3,1.3s-1.3-0.6-1.3-1.3S4.3,95.1,5.1,95.1 M5.1,94.3 c-1.2,0-2.1,1-2.1,2.1s1,2.1,2.1,2.1s2.1-1,2.1-2.1S6.2,94.3,5.1,94.3L5.1,94.3z"/></g></g><g><rect x="17.6" y="84.7" class="st10" width="18.6" height="1.1"/></g><g><rect x="14.9" y="82.1" class="st10" width="24" height="1.1"/></g><g><rect x="39.9" y="107.1" class="st10" width="1.1" height="1.1"/></g><g><rect x="42.6" y="107.1" class="st10" width="5.9" height="1.1"/></g><g><path class="st10" d="M52.2,75.2V113H1.1V75.2H52.2 M53.2,74.1H0V114h53.2V74.1L53.2,74.1z"/></g></g><line class="st11" x1="40.5" y1="63" x2="116.5" y2="26"/><line class="st11" x1="115.1" y1="177.9" x2="37.7" y2="140.3"/><line class="st11" x1="279.8" y1="141.2" x2="203.6" y2="178.3"/><line class="st11" x1="202.2" y1="25.6" x2="279" y2="63"/><path class="st12" d="M279.6,62.5l-4.3-6.5c-0.4-0.6-1.4-0.6-1.7,0.1l-3.5,6.9c-0.3,0.7,0.2,1.5,1,1.4l7.7-0.5 C279.6,64,280,63.2,279.6,62.5z"/><path class="st12" d="M205.7,171.7l-4.2,6.5c-0.4,0.6,0,1.5,0.8,1.5l7.7,0.4c0.8,0,1.3-0.8,0.9-1.5l-3.6-6.9 C207,171.1,206.1,171,205.7,171.7z"/><path class="st12" d="M37.3,140.8l3.9,6.7c0.4,0.7,1.3,0.7,1.7,0l3.9-6.7c0.4-0.7-0.1-1.5-0.9-1.5l-7.7,0 C37.3,139.3,36.9,140.2,37.3,140.8z"/><path class="st12" d="M117.9,24.2l-7.7-0.3c-0.8,0-1.3,0.8-0.9,1.5l3.6,6.8c0.4,0.7,1.3,0.7,1.7,0.1l4.1-6.6 C119.1,25.1,118.7,24.3,117.9,24.2z"/><g><g><path class="st13" d="M48,40.7l-0.4-0.8l0.6-0.3l0.4,0.8l3.1-1.5l-0.4-0.8l0.6-0.3l0.4,0.8l2.5-1.2l0.3,0.5l-2.5,1.2l0.3,0.7 l-0.6,0.3l-0.3-0.7l-3.1,1.5l0.3,0.7l-0.6,0.3l-0.3-0.7l-2.5,1.2l-0.3-0.5L48,40.7z M56.2,41.3l-0.6,0.3l-0.7-1.4l-7.4,3.6 l0.7,1.5l-0.6,0.3l-1-2l8.5-4.1L56.2,41.3z M54.3,41.5l1,2.1l-5.2,2.5l-1-2.1L54.3,41.5z M58.2,46.9l-0.6,0.3l-0.2-0.5l-6.1,2.9 l0.2,0.5L51,50.4l-1.4-2.9l7.2-3.5L58.2,46.9z M54,42.3l-4.1,2l0.6,1.2l4.1-2L54,42.3z M57.2,46.2l-0.7-1.5l-6.1,2.9l0.7,1.5 L57.2,46.2z"/><path class="st13" d="M57.8,35.1c0.1,0.5,0.2,0.9,0.2,1.3l2.1-1l0.3,0.6l-2.3,1.1c0.1,0.9,0.1,1.8,0,2.6l-0.6-0.1 c0.2-1.4,0.1-2.8-0.3-4.3L57.8,35.1z M60.9,37.7l0.3,0.5L60,38.8l0.8,1.5l1.5-0.8l0.3,0.5L61,40.9l1.3,2.8 c0.4-0.4,0.8-0.9,1.2-1.5l0.4,0.5c-0.5,0.7-1.1,1.4-1.8,2l-0.5-0.4c0.1-0.1,0.2-0.3,0.1-0.4l-1.3-2.7l-1.5,0.8l-0.3-0.5l1.5-0.8 l-0.8-1.5l-0.8,0.4l-0.3-0.5L60.9,37.7z M62.6,35.4l-0.4,0.5c-0.7-0.5-1.3-1-1.9-1.3l0.4-0.5C61.3,34.5,62,34.9,62.6,35.4z M62.9,32.5l1.5,3.1l2.1-1l2.8,5.8c0.3,0.6,0.1,1-0.4,1.3l-1.1,0.5l-0.4-0.5l1.1-0.5c0.3-0.1,0.4-0.4,0.2-0.7L68,39.1l-3.5,1.7 l1.2,2.4L65,43.6l-3.3-6.7l2.1-1l-1.5-3.1L62.9,32.5z M66.1,35.4l-3.5,1.7l0.7,1.3l3.5-1.7L66.1,35.4z M64.2,40.3l3.5-1.7 l-0.7-1.3L63.5,39L64.2,40.3z M65.5,31.9c0.1,0.8,0,1.6-0.1,2.4l-0.6,0c0.1-0.9,0.2-1.7,0.1-2.4L65.5,31.9z"/><path class="st13" d="M70.2,32.4L69.9,33c-0.8-0.5-1.8-1.1-2.9-1.6l0.3-0.5C68.5,31.4,69.5,31.9,70.2,32.4z M72.9,29.7L72.1,28 l0.6-0.3l0.8,1.7l2.5-1.2l1.5,3.2l1-0.5l0.3,0.6L75.5,33c1.5,1.3,3.3,2,5.4,2.2l-0.2,0.6c-2.2-0.3-4.1-1.1-5.6-2.5 c0.5,2.2,0,4.2-1.3,5.9L73.2,39c1.3-1.6,1.8-3.5,1.3-5.5L72,34.7l-0.3-0.6l2.6-1.2c-0.2-0.5-0.4-1.1-0.6-1.7l-0.5-1l-2.2,1.1 l-0.3-0.6L72.9,29.7z M71.4,34.6c0.2,1.9,0.3,3.6,0.3,5.4l-0.7,0c0-1.8-0.1-3.6-0.3-5.4L71.4,34.6z M74.2,30.8 c0.3,0.6,0.5,1.2,0.7,1.8l2-1L75.7,29l-1.9,0.9L74.2,30.8z"/><path class="st13" d="M79.1,27.8l-0.7-0.1c0.4-1.1,0.5-2.2,0.4-3.3l0.6-0.2c0,0.4,0.1,0.8,0,1.2l2.9-1.4l0.3,0.5l-2,1 c0.5,0.3,1,0.6,1.3,0.8l-0.4,0.4c-0.5-0.4-1-0.7-1.5-1l-0.6,0.3C79.4,26.8,79.3,27.3,79.1,27.8z M83.5,26.5l-0.4-0.8l0.6-0.3 l0.4,0.8l4.4-2.1l0.3,0.5l-4.4,2.1l0.5,1l3.5-1.7l1,2c0.2,0.5,0.1,0.9-0.4,1.1l-0.7,0.4l-0.4-0.5l0.7-0.3 c0.2-0.1,0.3-0.3,0.2-0.6L88,26.8l-3,1.4l0.5,1c1.8,0.6,3.8,0.8,6,0.5l0,0.7c-2,0.2-3.9,0-5.6-0.6l1.4,2.9l-0.6,0.3l-1.4-2.9 c-0.6,1.7-1.5,3.3-2.7,4.7l-0.6-0.3c1.4-1.5,2.4-3.2,3-5l-0.5-1l-2.8,1.4l1.1,2.2l-0.6,0.3l-1.3-2.8l3.4-1.6l-0.5-1l-4.4,2.1 l-0.3-0.5L83.5,26.5z M83.8,25.3l-0.6-0.1c0.2-0.9,0.2-1.9,0-2.8l0.6-0.2c0.1,0.4,0.1,0.8,0.1,1.1l3.4-1.7l0.3,0.5l-2.1,1 c0.5,0.3,1,0.6,1.3,0.9l-0.4,0.4c-0.5-0.4-1-0.7-1.5-1L83.9,24C83.9,24.5,83.9,24.9,83.8,25.3z"/></g></g><g><g><path class="st13" d="M53.5,166.3c-1.3,0-2.6-0.1-4-0.4l0.2-0.6c1.5,0.3,2.8,0.5,4.1,0.5L53.5,166.3z M56.3,157.9 c-1.3,1.2-2.4,2-3.4,2.6c0.6,0.2,1.2,0.4,1.9,0.6l1.2-0.9l0.4,0.5c-2,1.4-3.6,2.4-4.6,2.8c0.9,0.3,1.8,0.4,2.8,0.5l-0.3,0.5 c-1.3-0.2-2.4-0.4-3.5-0.8l0.1-0.6c0.1,0,0.3,0,0.4,0c0.7-0.2,1.7-0.8,2.9-1.6c-0.7-0.2-1.4-0.5-2.1-0.7l0.1-0.6 c0.1,0,0.2,0,0.3-0.1c1.1-0.7,2.2-1.6,3.3-2.7L56.3,157.9z M55.1,164.7l0.3-0.6l5,2.4l-0.3,0.6l-2.2-1.1l-1.3,2.6l2.7,1.3 l-0.3,0.6l-6-2.9l0.3-0.6l2.7,1.3l1.3-2.6L55.1,164.7z M55.5,163.4l-0.1-0.7c2.5,0.2,4.5-0.2,6-1.3l-3.8-1.9l0.3-0.6l4.5,2.2 l-0.2,0.5c-0.6,0.5-1.3,0.9-2.1,1.2c0.7,1.1,1.2,2.1,1.5,3l-0.6,0.2c-0.3-0.9-0.8-1.9-1.5-3C58.2,163.4,56.9,163.5,55.5,163.4z"/><path class="st13" d="M68.5,175.7l-0.6-0.3l0.2-0.5l-6.1-3l-0.2,0.5l-0.6-0.3l1.4-2.9l7.2,3.5L68.5,175.7z M68.4,174.5l0.7-1.5 l-6.1-3l-0.7,1.5L68.4,174.5z M71.7,170.7l-0.6-0.3l0.7-1.4l-7.4-3.6l-0.7,1.5l-0.6-0.3l1-2l8.5,4.1L71.7,170.7z M70.3,169.3 l-1,2.1l-5.2-2.5l1-2.1L70.3,169.3z M67.1,163.9l0.4-0.8l0.6,0.3l-0.4,0.8l3.1,1.5l0.4-0.8l0.6,0.3l-0.4,0.8l2.5,1.2l-0.3,0.5 l-2.5-1.2l-0.3,0.7l-0.6-0.3l0.3-0.7l-3.1-1.5l-0.3,0.7l-0.6-0.3l0.3-0.7l-2.5-1.2l0.3-0.5L67.1,163.9z M69.5,169.5l-4.1-2 l-0.6,1.2l4.1,2L69.5,169.5z"/><path class="st13" d="M75.7,173.4c-0.2,0.2-0.4,0.4-0.6,0.6l2.3,1.1l-0.2,0.5c-0.6,0.6-1.4,1.1-2.3,1.3c0.4,0.5,0.9,1.1,1.2,1.6 l-0.5,0.3c-0.4-0.6-0.8-1.1-1.3-1.8c-1,0.2-2.1,0.2-3.3-0.1l0-0.6c1.1,0.2,2.1,0.2,2.9,0.2c-0.4-0.5-0.8-0.9-1.3-1.4 c0.5-0.3,1-0.7,1.5-1l-1.4-0.7l0.2-0.5l1.6,0.8c0.2-0.2,0.4-0.4,0.6-0.6L75.7,173.4z M76.9,170.3l1-2.1l0.6,0.3l-1,2.1l2,1 l-0.3,0.5l-2-1l-0.1,0.1c0.4,0.6,0.9,1.3,1.3,2l-0.5,0.3c-0.4-0.8-0.7-1.4-1-1.9l-0.8,1.6l-0.6-0.3l1-2.1l0,0 c-0.8,0.7-1.8,1.1-3.1,1.3l-0.1-0.6c1.2-0.1,2.1-0.4,2.7-0.9l-1.7-0.8l0.3-0.5L76.9,170.3z M76.7,175.3l-2-1 c-0.4,0.3-0.8,0.6-1.2,0.9c0.4,0.4,0.8,0.8,1.1,1.2C75.4,176.1,76.1,175.8,76.7,175.3z M76.4,169.4l-0.5,0c0-0.6,0-1.2-0.1-1.8 l0.5,0.1C76.4,168.2,76.5,168.8,76.4,169.4z M79.8,173.8c-0.5,0.5-1,0.9-1.5,1.2l-0.1-0.6c1.3-0.9,2.5-2.3,3.8-4.3l0.5,0.4 c-0.4,0.5-0.7,1-1.1,1.5l2.9,1.4l-0.3,0.6l-0.8-0.4c-0.9,1.8-2,3.2-3.3,4.2c0.1,1.3,0.4,2.4,0.9,3.4l-0.6,0.3 c-0.5-0.9-0.8-2-0.9-3.3c-1,0.6-2,1.1-3.2,1.3l-0.1-0.6c1.2-0.2,2.2-0.6,3.2-1.3C79.3,176.4,79.5,175.1,79.8,173.8z M80.2,169.7 c-0.5,0.4-1,0.7-1.5,1l-0.3-0.4c0.6-0.3,1.1-0.6,1.5-1L80.2,169.7z M80.5,173c-0.4,1.5-0.5,2.8-0.5,4c1.1-0.9,2-2.2,2.8-3.7 l-1.7-0.9C80.8,172.6,80.6,172.8,80.5,173z"/><path class="st13" d="M81.9,182.1l0.1-0.6c0.3,0.2,0.5,0.3,0.8,0.4c0.3,0.1,0.5,0.1,0.7-0.3l1.4-2.9c-0.5,0-1.1-0.1-1.6-0.2 l0.1-0.6c0.6,0.1,1.2,0.2,1.7,0.3l1.3-2.6l-1.3-0.7l0.3-0.6l1.3,0.7l1-2.1l0.6,0.3l-1,2.1l1.1,0.5l-0.3,0.6l-1.1-0.5l-1.1,2.4 c0.4,0,0.9,0,1.3,0l-0.3,0.6c-0.4,0-0.9,0-1.3,0l-1.6,3.3c-0.3,0.6-0.7,0.7-1.2,0.5L81.9,182.1z M84.6,183.6l-0.3-0.6 c1.5-1.1,2.8-2.8,4-5.1l1.6-3.3l5.6,2.7l-1.2,2.5l-2.1-1l-0.7,1.4l2.4,1.2l-0.3,0.6l-2.4-1.2l-0.7,1.5l1.9,0.9l-1.7,3.4l-0.5-0.3 l0.3-0.6l-3.2-1.6l-0.3,0.6l-0.5-0.3l1.7-3.4l1.9,0.9l0.7-1.5l-2.4-1.2C87.3,181.1,86,182.5,84.6,183.6z M90.8,185.2l0.9-1.8 l-3.2-1.6l-0.9,1.8L90.8,185.2z M89.3,177.3l-0.4,0.8c-0.1,0.2-0.2,0.4-0.3,0.6l2.4,1.1l0.7-1.4L89.3,177.3z M90.2,175.4 l-0.7,1.4L94,179l0.7-1.4L90.2,175.4z"/></g></g><g><g><path class="st13" d="M231.9,173.5l0.3,0.6l-2.8,1.4c0,1.5-0.1,2.6-0.3,3.4c1.2-0.7,2.3-1.4,3.2-2.1c-0.5-0.3-1-0.6-1.5-0.9 l0.3-0.5c1.2,0.6,2.2,1.2,2.9,1.8l-0.3,0.6c-0.3-0.2-0.6-0.4-0.9-0.6c-1.3,0.9-2.7,1.8-4.3,2.8l-0.4-0.5c0.1-0.1,0.2-0.1,0.2-0.2 c0.3-0.7,0.5-1.9,0.5-3.5l-1.9,0.9l-0.3-0.6L231.9,173.5z M235.9,181.8c-1.5,1.1-3.1,2.3-4.9,3.5l-0.4-0.5c0.8-0.5,1.6-1,2.4-1.6 l-1.1-2.3l-2.2,1.1l-0.3-0.6l2.2-1.1L231,179l0.6-0.3l0.7,1.3l2-1l0.3,0.6l-2,1l1,2.2c0.7-0.5,1.5-1.1,2.1-1.6L235.9,181.8z M233.6,173.2l3.3,6.7l-0.6,0.3l-3.3-6.7L233.6,173.2z M237.6,182.1l-0.4-0.5c0.5-0.2,1-0.5,1.5-0.7c0.3-0.2,0.4-0.4,0.3-0.8 l-4.2-8.7l0.6-0.3l4.3,8.8c0.3,0.6,0.1,1-0.5,1.3L237.6,182.1z"/><path class="st13" d="M243.1,168.8l4-1.9l0.3,0.6l-8,3.9l1.2,2.5c1.1,2.4,1.6,4.4,1.6,6.2l-0.6-0.2c0.1-1.6-0.4-3.5-1.5-5.8 l-1.5-3l4-2c-0.4-0.3-0.7-0.6-1.1-0.8l0.6-0.4C242.3,168.1,242.7,168.4,243.1,168.8z M243.8,169.8l0.7,1.4l3.7-1.8l0.3,0.6 l-3.7,1.8l0.8,1.7l2.9-1.4l1.9,3.9l-0.6,0.3l-0.3-0.6l-4.8,2.3l0.3,0.6l-0.6,0.3l-1.9-3.9l2.5-1.2l-1.8-3.7L243.8,169.8z M249.2,175.2l-1.1-2.2l-4.8,2.3l1.1,2.2L249.2,175.2z"/><path class="st13" d="M251.9,166.8l0.8,1.7l1.3-0.6l0.3,0.5L253,169l0.8,1.7c0.5-0.4,1-0.8,1.4-1.2l0.3,0.6 c-0.4,0.4-0.9,0.8-1.4,1.1l1.2,2.4l-0.6,0.3l-1.1-2.3c-0.6,0.5-1.3,0.9-2,1.4l-0.4-0.5c0.8-0.5,1.5-1,2.1-1.4l-0.9-1.8l-1.9,0.9 l-0.4-0.5c0-0.9-0.1-1.9-0.3-3.1l-1.2,0.6l-0.3-0.6l1.3-0.6c-0.1-0.5-0.3-1.1-0.4-1.7l0.6-0.2c0.1,0.5,0.3,1.1,0.4,1.6l2.1-1 l0.3,0.6l-2.3,1.1c0.2,1.2,0.3,2.2,0.4,3.1l1.4-0.7l-0.8-1.7L251.9,166.8z M254.7,163.6c-0.1-0.6-0.3-1.1-0.5-1.7l0.6-0.2 c0.2,0.6,0.3,1.1,0.5,1.6l2.7-1.3l0.3,0.6l-2.8,1.4c0.1,0.6,0.3,1.1,0.4,1.6l3.4-1.7l0.3,0.5l-3.5,1.7c0.1,0.6,0.2,1.2,0.3,1.8 l3.5-1.7l0.2,0.5c0,1-0.2,2-0.6,3.2c0.6,0.1,1.2,0.1,1.8,0.3l-0.1,0.7c-1.6-0.3-3.1-0.4-4.5-0.4l0.1-0.6c0.7,0,1.4,0,2.1,0 c0.4-1,0.6-1.9,0.7-2.8l-3.6,1.8c-0.1-0.8-0.2-1.6-0.4-2.4l-1.5,0.7l-0.3-0.6l1.6-0.8c-0.1-0.5-0.2-1.1-0.4-1.6l-1.6,0.8 l-0.3-0.6L254.7,163.6z"/><path class="st13" d="M262.4,158.2c0.1,1.1,0,2.2-0.2,3.3l3.4,7.1l-0.6,0.3l-3.1-6.4c-0.2,0.8-0.5,1.7-0.9,2.5l-0.5-0.5 c0.9-2.1,1.3-4.2,1.2-6.3L262.4,158.2z M269.3,166.6c-0.7,0.3-1.2,0.1-1.5-0.5l-1.7-3.5c-0.4,0.5-0.7,1.1-1.1,1.6l-0.6-0.4 c0.5-0.6,1-1.2,1.4-1.8l-2.2-4.4l0.6-0.3l2,4.1c0.8-1.4,1.4-2.8,1.8-4.2l0.6,0.3c-0.5,1.6-1.1,3.1-2.1,4.6l1.8,3.8 c0.2,0.4,0.4,0.4,0.8,0.3l1.9-0.9c0.3-0.1,0.5-0.4,0.5-0.6c0-0.3-0.2-1-0.7-2.1l0.6-0.1c0.5,1.3,0.8,2.1,0.7,2.4 c-0.1,0.3-0.3,0.6-0.8,0.9L269.3,166.6z"/></g></g><g><g><path class="st13" d="M227,27.4c-1.3-0.1-2.6-0.3-4.1-0.7l0.2-0.6c1.5,0.4,2.9,0.7,4.2,0.8L227,27.4z M229.7,18.6 c-1.3,1.2-2.5,2.1-3.5,2.7c0.6,0.2,1.2,0.4,1.8,0.6c0.4-0.3,0.8-0.6,1.3-0.9l0.4,0.5c-1.9,1.4-3.4,2.4-4.5,2.8 c0.9,0.3,1.9,0.5,2.8,0.6l-0.3,0.5c-1.3-0.2-2.5-0.5-3.6-0.8l0.1-0.6c0.1,0,0.2,0,0.3,0c0.7-0.3,1.6-0.8,2.8-1.6 c-0.7-0.2-1.4-0.5-2.1-0.7l0.1-0.6c0.1,0,0.2,0,0.4-0.1c1.1-0.7,2.3-1.6,3.4-2.7L229.7,18.6z M235.1,24.1l-3-1 c-0.3,0.6-0.5,1.1-0.7,1.7l3.2,1l-0.2,0.6l-3.2-1c-0.1,0.3-0.2,0.5-0.2,0.8c-0.2,0.6-0.3,1.2-0.3,1.8c0.9-0.3,1.8-0.6,2.7-1.2 l0.3,0.5c-1,0.6-2,1-3,1.3c0,0.2,0,0.3,0,0.5c0.1,0.7,0.3,1.2,0.6,1.3c0.3,0.2,0.9-0.3,1.7-1.5l0.3,0.6c-1,1.3-1.8,1.8-2.3,1.6 c-0.5-0.3-0.8-0.8-1-1.7c0-0.2-0.1-0.4-0.1-0.6c-1.1,0.2-2.2,0.3-3.3,0.1l-0.1-0.6c1.2,0.2,2.3,0.1,3.4-0.1 c0-0.6,0.1-1.2,0.3-1.9c0.1-0.3,0.2-0.7,0.3-1l-2.2-0.7l0.2-0.6l2.2,0.7c0.2-0.6,0.4-1.1,0.7-1.7l-1.8-0.6l0.2-0.6l1.8,0.6 l1.2-2.4l0.6,0.3l-1.1,2.4l3,0.9L235.1,24.1z M235.4,22.8l-0.6,0.1c-0.1-0.6-0.3-1.3-0.6-2.1l0.6-0.1 C235.1,21.6,235.3,22.3,235.4,22.8z"/><path class="st13" d="M242.8,24.7l-1.7,3.4l4,1.9l-0.3,0.6l-4-1.9l-2.4,4.8l5,2.4l-0.3,0.6l-9.5-4.6l0.3-0.6l3.9,1.9l4.3-8.8 L242.8,24.7z"/><path class="st13" d="M250.4,30.8l-1.7,3.5c-0.6,1.2-1.2,2-1.9,2.6c-0.6,0.5-1.4,0.7-2.4,0.8l-0.1-0.6c0.9,0,1.6-0.2,2.2-0.7 c0.6-0.5,1.1-1.3,1.6-2.2l1.7-3.5L250.4,30.8z M249.3,36.8l-0.5-0.3l3-6.2l-2.4-1.2l-3,6.2l-0.5-0.3l3.3-6.7l3.5,1.7L249.3,36.8z M248.7,39.2l-0.6,0.2c-0.1-0.8-0.3-1.6-0.6-2.6l0.6-0.2C248.4,37.5,248.6,38.4,248.7,39.2z M253.3,39.3l-0.6,0 c0.1-0.3,0.1-0.6,0.1-0.9c-1-0.2-2-0.5-3.1-0.9l0.1-0.6c0.7-0.2,1.8-1.2,3.5-3l0.4,0.4c-1.2,1.3-2.3,2.2-3.2,2.8 c0.8,0.3,1.6,0.5,2.3,0.6c0.1-0.7,0.1-1.3,0.1-1.9l0.6,0C253.6,36.9,253.5,38.1,253.3,39.3z M255,30.8c-0.4,0.5-0.8,0.9-1.2,1.4 l3.6,1.8c-1.8,3.7-3,5.9-3.5,6.7c-0.5,0.8-1.2,1-2.1,0.6c-0.3-0.1-0.8-0.4-1.5-0.7l0.1-0.6c0.6,0.3,1.1,0.6,1.5,0.8 c0.5,0.3,1,0.1,1.4-0.4c0.5-0.6,1.5-2.7,3.2-6.1l-3.3-1.6c-0.6,0.5-1.3,0.9-2,1.3l-0.1-0.6c1.2-0.6,2.3-1.5,3.3-2.8L255,30.8z"/><path class="st13" d="M264.6,37.6l-1.1,2.3c-0.3,0.6-0.7,1.2-1.1,1.6l4.1,2l-0.3,0.6l-4.3-2.1c-0.2,0.2-0.4,0.3-0.5,0.4 c1.2,1.5,2.3,3,3.2,4.5l-0.6,0.2c-0.9-1.6-1.9-3-3.1-4.4c-0.1,0.1-0.3,0.1-0.4,0.2c-1.2,0.5-2.8,0.5-4.8,0.1l-0.1-0.7 c2,0.4,3.6,0.4,4.7-0.1c0.4-0.2,0.7-0.4,1-0.6l-4.4-2.2l0.3-0.6l4.7,2.3c0.4-0.5,0.8-1,1.1-1.6l1.1-2.3L264.6,37.6z M260.8,39.3 l-0.5,0.3c-0.5-0.9-1-1.7-1.6-2.4l0.5-0.3C259.7,37.7,260.3,38.5,260.8,39.3z M268.2,38l-0.2,0.4c-0.5,0.6-1,1.1-1.6,1.6 l-0.5-0.4c0.5-0.4,0.9-0.8,1.4-1.3l-7.5-3.7L260,34L268.2,38z M262.4,38.3l-0.5,0.3c-0.4-0.9-0.9-1.7-1.5-2.4l0.5-0.3 C261.5,36.7,262,37.4,262.4,38.3z"/></g></g><path class="st12" d="M158.9,77l-3.9,6.7c-0.4,0.7,0.1,1.5,0.9,1.5l7.7,0c0.8,0,1.3-0.8,0.9-1.5l-3.9-6.7 C160.2,76.3,159.3,76.3,158.9,77z"/><line class="st11" x1="159.7" y1="81.9" x2="159.7" y2="100.2"/><line class="st11" x1="159.7" y1="119.6" x2="159.7" y2="141.4"/><g><path class="st13" d="M136,104.3v1.6h4.8v0.6H136v2h3.3v0.6c-0.7,1.4-1.7,2.6-3,3.6c0.6,0.4,1.3,0.8,2.1,1.1 c0.9,0.3,1.8,0.6,2.7,0.9l-0.4,0.6c-1-0.3-2-0.6-2.9-1c-0.8-0.3-1.5-0.7-2.1-1.1c-1.4,0.9-3,1.6-5,2.1l-0.4-0.6 c1.9-0.5,3.5-1.1,4.8-1.9c-0.6-0.5-1.2-1-1.7-1.6c-0.5-0.6-0.8-1.2-1-1.9h-1v-0.6h3.8v-2h-4.7V106h4.7v-1.6H136z M138.5,109.3 h-5.4c0.2,0.7,0.6,1.3,1,1.8c0.4,0.5,0.9,0.9,1.5,1.3C137,111.5,137.9,110.5,138.5,109.3z"/><path class="st13" d="M145.6,104.5c-0.3,0.8-0.6,1.6-1,2.4v8.4H144V108c-0.5,0.7-1,1.5-1.6,2.1l-0.2-0.7c1.3-1.5,2.3-3.3,2.8-5.2 L145.6,104.5z M150.7,107v-2.7h0.6v2.7h1.8v0.6h-1.8v6.4c0,0.8-0.3,1.2-1,1.2h-1.7l-0.1-0.6c0.6,0,1.1,0,1.6,0 c0.4,0,0.6-0.3,0.6-0.7v-6.2h-4.8V107H150.7z M149.1,112l-0.6,0.4c-0.5-0.9-1.2-1.9-2.2-3l0.5-0.3 C147.9,110.2,148.6,111.2,149.1,112z"/><path class="st13" d="M154.7,114.3c0.2-0.1,0.3-0.2,0.3-0.4v-9.1h4.4v5.4h-3.7v3.7c1.2-0.3,2.2-0.7,3.1-1 c-0.3-0.5-0.6-0.9-0.9-1.4l0.5-0.3c0.8,1.2,1.4,2.2,1.8,3.1l-0.5,0.4c-0.2-0.4-0.4-0.8-0.6-1.2c-1.2,0.5-2.6,1-4.2,1.3 L154.7,114.3z M158.8,105.5h-3.1v1.8h3.1V105.5z M155.6,109.7h3.1v-1.9h-3.1V109.7z M162.6,113.6l-0.2-0.6l1.1,0 c0.3,0,0.5-0.2,0.5-0.5v-7h-2.5v9.8h-0.6v-10.4h3.7v7.8c0,0.6-0.3,1-0.9,1H162.6z"/><path class="st13" d="M172,104.3c1.5,1.7,3.3,3.1,5.3,4.1l-0.3,0.6c-2-1.1-3.8-2.5-5.2-4.2c-1.3,1.6-3.1,3-5.2,4.2l-0.3-0.6 c2.1-1.1,3.9-2.5,5.3-4.1H172z M176.5,110.5v0.6h-5.7c-0.6,1.2-1.4,2.3-2.3,3.2c2.2-0.1,4.2-0.3,6.1-0.6c-0.4-0.6-0.9-1.2-1.5-1.8 l0.5-0.3c1.1,1.2,1.9,2.3,2.5,3.2l-0.5,0.4c-0.2-0.3-0.4-0.7-0.7-1c-1.9,0.3-4.3,0.6-7.2,0.7l-0.2-0.6c0.2,0,0.3-0.1,0.3-0.2 c0.9-1,1.6-2,2.1-3.1H167v-0.6H176.5z M174.7,108.1v0.6h-5.8v-0.6H174.7z"/><path class="st13" d="M184.2,110.3c-0.2,1.7-0.5,2.9-1.1,3.5c-0.6,0.8-2,1.2-4.2,1.4l-0.3-0.6c2-0.1,3.3-0.5,3.9-1.2 c0.6-0.6,0.9-1.7,1-3.2L184.2,110.3z M187.7,113.2h-0.6v-3.8h-6.7v4h-0.6v-4.6h8V113.2z M187,104.8v2.9h-6.5v-2.9H187z M186.3,105.4h-5.2v1.7h5.2V105.4z M188.8,114.8l-0.4,0.5c-1.4-0.7-2.8-1.3-4.3-1.7l0.3-0.5C186.1,113.5,187.5,114.1,188.8,114.8z"/></g><g id="Pricing_plans_1_"><g><g><rect x="267.3" y="74.4" class="st1" width="52.2" height="38.9"/></g><g><path class="st14" d="M318.9,74.9v37.8h-51.1V74.9H318.9 M320,73.8h-53.2v39.9H320V73.8L320,73.8z"/></g></g><g><polygon class="st14" points="302.7,83.1 284.1,83.1 284.1,104.4 302.7,104.4 302.7,83.1"/></g><g><polyline class="st1" points="301.6,84.2 301.6,100.4 285.1,100.4 285.1,84.2 301.6,84.2"/></g><g><polygon class="st14" points="282.7,99.1 275.8,99.1 275.8,86.9 282.7,86.9 282.7,85.8 274.7,85.8 274.7,101.8 282.7,101.8"/></g><g><polygon class="st14" points="304,85.8 304,86.9 310.9,86.9 310.9,99.1 304,99.1 304,101.8 312,101.8 312,85.8"/></g><g><rect x="277.4" y="89.9" class="st14" width="5.3" height="1.1"/></g><g><rect x="277.4" y="92.6" class="st14" width="5.3" height="1.1"/></g><g><rect x="277.4" y="95.3" class="st14" width="5.3" height="1.1"/></g><g><rect x="304" y="89.9" class="st14" width="5.3" height="1.1"/></g><g><rect x="304" y="92.6" class="st14" width="5.3" height="1.1"/></g><g><rect x="304" y="95.3" class="st14" width="5.3" height="1.1"/></g><g><path class="st14" d="M296.6,93.2c-0.2,0-0.4-0.2-0.4-0.4s0.2-0.4,0.4-0.4c0.2,0,0.4,0.2,0.4,0.4S296.8,93.2,296.6,93.2 M294.4,93.2c-0.2,0-0.4-0.2-0.4-0.4s0.2-0.4,0.4-0.4c0.2,0,0.4,0.2,0.4,0.4S294.7,93.2,294.4,93.2 M297.6,95.7 c0.7-0.5,1.1-1.2,1.1-2c0-1.5-1.4-2.7-3.2-2.7c-1.8,0-3.2,1.2-3.2,2.7c0,1.5,1.4,2.7,3.2,2.7c0.4,0,0.7-0.1,1.1-0.1 c0,0,0.1,0,0.1,0c0.1,0,0.1,0,0.2,0l0.7,0.4c0,0,0,0,0.1,0c0.1,0,0.1,0,0.1-0.1c0,0,0-0.1,0-0.1c0,0-0.1-0.3-0.1-0.5 c0,0,0,0,0-0.1C297.5,95.8,297.6,95.7,297.6,95.7"/><path class="st14" d="M293.2,90.7c-0.3,0-0.5-0.2-0.5-0.5c0-0.3,0.2-0.5,0.5-0.5c0.3,0,0.5,0.2,0.5,0.5 C293.7,90.5,293.5,90.7,293.2,90.7 M290.6,90.7c-0.3,0-0.5-0.2-0.5-0.5c0-0.3,0.2-0.5,0.5-0.5c0.3,0,0.5,0.2,0.5,0.5 C291.1,90.5,290.9,90.7,290.6,90.7 M291.9,88c-2.1,0-3.9,1.4-3.9,3.2c0,1,0.5,1.8,1.3,2.4c0.1,0,0.1,0.1,0.1,0.2c0,0,0,0.1,0,0.1 c-0.1,0.2-0.2,0.6-0.2,0.6c0,0,0,0.1,0,0.1c0,0.1,0.1,0.1,0.1,0.1c0,0,0.1,0,0.1,0l0.9-0.5c0.1,0,0.1-0.1,0.2-0.1 c0,0,0.1,0,0.1,0c0.4,0.1,0.8,0.2,1.3,0.2c0.1,0,0.1,0,0.2,0c-0.1-0.3-0.1-0.5-0.1-0.8c0-1.6,1.6-2.9,3.5-2.9c0.1,0,0.1,0,0.2,0 C295.4,89.2,293.8,88,291.9,88"/></g></g></g></svg>