<?xml version="1.0" encoding="utf-8"?>
<!-- Generator: Adobe Illustrator 20.0.0, SVG Export Plug-In . SVG Version: 6.00 Build 0)  -->
<svg version="1.1" id="Layer_1" xmlns="http://www.w3.org/2000/svg" xmlns:xlink="http://www.w3.org/1999/xlink" x="0px" y="0px"
	 viewBox="0 0 24 24" style="enable-background:new 0 0 24 24;" xml:space="preserve">
<style type="text/css">
	.st0{fill:none;stroke:#DDDDDD;stroke-width:2;stroke-linecap:round;stroke-linejoin:round;stroke-miterlimit:10;}
	.st1{fill:none;stroke:#BBBBBB;stroke-width:2;stroke-linecap:round;stroke-linejoin:round;stroke-miterlimit:10;}
</style>
<polyline class="st0" points="13,1 13,9 10,7 7,9 7,1 "/>
<path class="st1" d="M5,1C3.9,1,3,1.9,3,3v18c0-1.1,0.9-2,2-2h14c1.1,0,2-0.9,2-2V3c0-1.1-0.9-2-2-2H5z"/>
<path class="st1" d="M19,23c1.1,0,2-0.9,2-2v-2v-2c0,1.1-0.9,2-2,2H5c-1.1,0-2,0.9-2,2s0.9,2,2,2H19z"/>
</svg>
