<?xml version="1.0" encoding="utf-8"?>
<!-- Generator: Adobe Illustrator 20.0.0, SVG Export Plug-In . SVG Version: 6.00 Build 0)  -->
<svg version="1.1" id="Layer_1" xmlns="http://www.w3.org/2000/svg" xmlns:xlink="http://www.w3.org/1999/xlink" x="0px" y="0px"
	 viewBox="0 0 48 48" style="enable-background:new 0 0 48 48;" xml:space="preserve">
<style type="text/css">
	
		.st0{opacity:0.5;fill:none;stroke:#888888;stroke-width:2;stroke-linecap:round;stroke-linejoin:round;stroke-miterlimit:10;enable-background:new    ;}
	.st1{fill:none;stroke:#888888;stroke-width:2;stroke-linecap:round;stroke-linejoin:round;stroke-miterlimit:10;}
	.st2{opacity:0.1;fill:#888888;enable-background:new    ;}
</style>
<line class="st0" x1="40" y1="40" x2="16" y2="40"/>
<polyline class="st0" points="32,2 32,16 26,12 20,16 20,2 "/>
<path class="st1" d="M40,34V6c0-2.2-1.8-4-4-4H8C5.8,2,4,3.8,4,6v34"/>
<path class="st2" d="M40,46V34H10c-3.3,0-6,2.7-6,6l0,0c0,3.3,2.7,6,6,6H40z"/>
<path class="st1" d="M40,46V34H10c-3.3,0-6,2.7-6,6l0,0c0,3.3,2.7,6,6,6H40z"/>
<line class="st1" x1="10" y1="34" x2="10" y2="10"/>
</svg>
