<?xml version="1.0" encoding="utf-8"?>
<!-- Generator: Adobe Illustrator 20.0.0, SVG Export Plug-In . SVG Version: 6.00 Build 0)  -->
<svg version="1.1" id="Layer_1" xmlns="http://www.w3.org/2000/svg" xmlns:xlink="http://www.w3.org/1999/xlink" x="0px" y="0px"
	 viewBox="0 0 48 48" style="enable-background:new 0 0 48 48;" xml:space="preserve">
<style type="text/css">
	.st0{fill:none;stroke:#888888;stroke-width:2;stroke-linecap:round;stroke-linejoin:round;stroke-miterlimit:10;}
	
		.st1{opacity:0.5;fill:none;stroke:#888888;stroke-width:2;stroke-linecap:round;stroke-linejoin:round;stroke-miterlimit:10;enable-background:new    ;}
	.st2{opacity:0.2;fill:#888888;enable-background:new    ;}
</style>
<path class="st0" d="M6,46c-2.2,0-4-1.8-4-4V26h8"/>
<path class="st0" d="M10,2c0,0,0,37.8,0,40s-1.8,4-4,4h36c2.2,0,4-1.8,4-4V2H10z"/>
<line class="st1" x1="34" y1="12" x2="38" y2="12"/>
<line class="st1" x1="34" y1="20" x2="38" y2="20"/>
<line class="st1" x1="18" y1="28" x2="38" y2="28"/>
<line class="st1" x1="18" y1="36" x2="38" y2="36"/>
<rect x="18" y="12" class="st1" width="8" height="8"/>
<path class="st2" d="M10,26v16c0,0-0.5,4-4,4c-2.2,0-4-1.8-4-4V26H10z"/>
</svg>
