<svg id="icon_video" xmlns="http://www.w3.org/2000/svg" width="46" height="46" viewBox="0 0 46 46">
  <defs>
    <style>
      .cls-1 {
        fill: #e7e7e7;
      }

      .cls-1, .cls-2, .cls-3 {
        fill-rule: evenodd;
      }

      .cls-2 {
        fill: #888;
      }

      .cls-3 {
        fill: #c3c3c3;
      }
    </style>
  </defs>
  <path id="形状_1_拷贝_3" data-name="形状 1 拷贝 3" class="cls-1" d="M501.4,357.793l1.216,5.85,37.029-7.425-1.138-5.866Z" transform="translate(-498 -348)"/>
  <path id="形状_1" data-name="形状 1" class="cls-2" d="M530.675,359.975l-1.832-.863,4.336-9.119,1.832,0.863Zm-9.929,2.017-1.831-.863,4.336-9.119,1.831,0.863Zm-9.928,2.018-1.832-.863,4.336-9.119,1.832,0.863ZM543,393.994H501.014V364H543v30Zm-39.984-2H541V366H503.013v26Zm-1.98-26-2.026-9.751L540.11,348l1.895,9.777Zm0.363-8.2,1.216,5.85,37.029-7.425-1.138-5.866Z" transform="translate(-498 -348)"/>
  <path id="形状_1_拷贝" data-name="形状 1 拷贝" class="cls-1" d="M519.059,375.009v8l5.5-4Z" transform="translate(-498 -348)"/>
  <path id="形状_1_拷贝_2" data-name="形状 1 拷贝 2" class="cls-3" d="M517,387.011v-16l11,8Zm2.062-12v8l5.5-4Z" transform="translate(-498 -348)"/>
</svg>
