<?xml version="1.0" encoding="utf-8"?>
<!-- Generator: Adobe Illustrator 20.0.0, SVG Export Plug-In . SVG Version: 6.00 Build 0)  -->
<svg version="1.1" id="Layer_1" xmlns="http://www.w3.org/2000/svg" xmlns:xlink="http://www.w3.org/1999/xlink" x="0px" y="0px"
	 viewBox="0 0 64 64" style="enable-background:new 0 0 64 64;" xml:space="preserve">
<style type="text/css">
	.st0{fill:none;stroke:#E42418;stroke-width:2;stroke-linecap:round;stroke-linejoin:round;stroke-miterlimit:10;}
	.st1{opacity:0.1;fill:#E42418;enable-background:new    ;}
</style>
<polyline class="st0" points="14,47.6 14,58 22,58 "/>
<path class="st0" d="M8,30.7V20c0-9.9,8.1-18,18-18h12c9.9,0,18,8.1,18,18v10.7"/>
<path class="st1" d="M24,30.4c-1-0.3-2-0.4-3-0.4c-6.1,0-11,4.9-11,11s4.9,11,11,11c1,0,2-0.2,3-0.4V30.4z"/>
<path class="st1" d="M48,51.6c1,0.3,2,0.4,3,0.4c6.1,0,11-4.9,11-11s-4.9-11-11-11c-1,0-2,0.2-3,0.4V51.6z"/>
<path class="st0" d="M20,26.4c-1-0.3-2-0.4-3-0.4c-6.1,0-11,4.9-11,11s4.9,11,11,11c1,0,2-0.2,3-0.4V26.4z"/>
<path class="st0" d="M44,47.6c1,0.3,2,0.4,3,0.4c6.1,0,11-4.9,11-11s-4.9-11-11-11c-1,0-2,0.2-3,0.4V47.6z"/>
<rect x="22" y="56" class="st0" width="16" height="6"/>
</svg>
