<?xml version="1.0" encoding="utf-8"?>
<!-- Generator: Adobe Illustrator 20.0.0, SVG Export Plug-In . SVG Version: 6.00 Build 0)  -->
<svg version="1.1" id="Layer_1" xmlns="http://www.w3.org/2000/svg" xmlns:xlink="http://www.w3.org/1999/xlink" x="0px" y="0px"
	 viewBox="0 0 24 24" style="enable-background:new 0 0 24 24;" xml:space="preserve">
<style type="text/css">
	.st0{opacity:0.5;fill:#FFFFFF;enable-background:new    ;}
	.st1{fill:#FFFFFF;}
</style>
<path class="st0" d="M23,19H1c-0.6,0-1,0.4-1,1v3c0,0.6,0.4,1,1,1h22c0.6,0,1-0.4,1-1v-3C24,19.4,23.6,19,23,19z"/>
<path class="st1" d="M21.8,13.4L19,9.7V7c0-0.6-0.4-1-1-1h-2V4h3V0h-8v4h3v2H6C5.4,6,5,6.4,5,7v2.7l-2.8,3.7C2.1,13.6,2,13.8,2,14v3
	h20v-3C22,13.8,21.9,13.6,21.8,13.4z"/>
</svg>
