<?xml version="1.0" encoding="utf-8"?>
<!-- Generator: Adobe Illustrator 20.0.0, SVG Export Plug-In . SVG Version: 6.00 Build 0)  -->
<svg version="1.1" id="Layer_1" xmlns="http://www.w3.org/2000/svg" xmlns:xlink="http://www.w3.org/1999/xlink" x="0px" y="0px"
	 viewBox="0 0 64 64" style="enable-background:new 0 0 64 64;" xml:space="preserve">
<style type="text/css">
	.st0{opacity:0.1;fill:#E42418;enable-background:new    ;}
	.st1{fill:none;stroke:#E42418;stroke-width:2;stroke-linecap:round;stroke-linejoin:round;stroke-miterlimit:10;}
	
		.st2{opacity:0.5;fill:none;stroke:#E42418;stroke-width:2;stroke-linecap:round;stroke-linejoin:round;stroke-miterlimit:10;enable-background:new    ;}
</style>
<circle class="st0" cx="54" cy="50" r="12"/>
<polyline class="st1" points="10,26 10,58 39,58 "/>
<path class="st1" d="M60,18c0,5.4-3.2,8-7,8s-7-2.2-7-6c0,3.8-3.4,6-7.2,6S32,23.8,32,20c0,3.8-3,6-6.8,6S18,23.8,18,20
	c0,3.8-3.2,6-7,6s-7-2.6-7-8L16,2h32L60,18z"/>
<line class="st1" x1="49" y1="42" x2="49" y2="50"/>
<line class="st1" x1="45" y1="46" x2="53" y2="46"/>
<circle class="st1" cx="49" cy="46" r="12"/>
<rect x="18" y="36" class="st2" width="8" height="8"/>
</svg>
