<?xml version="1.0" encoding="utf-8"?>
<!-- Generator: Adobe Illustrator 20.0.0, SVG Export Plug-In . SVG Version: 6.00 Build 0)  -->
<svg version="1.1" id="图层_1" xmlns="http://www.w3.org/2000/svg" xmlns:xlink="http://www.w3.org/1999/xlink" x="0px" y="0px"
	 viewBox="0 0 24 24" style="enable-background:new 0 0 24 24;" xml:space="preserve">
<style type="text/css">
	.st0{opacity:0.5;fill:#FFFFFF;}
	.st1{fill:#FFFFFF;}
</style>
<path id="XMLID_6202_" class="st0" d="M22.8,1.6c-0.1-0.5-0.6-0.9-1.2-0.9C21.6,0.7,4.2,3,1.5,3.3c-0.1,0-0.1,0.1,0,0.1l21.3,2.8
	L22.8,1.6z"/>
<path id="XMLID_6201_" class="st1" d="M22.9,8.1c0,0-21.7-2.9-21.7-2.9C0.5,5.3,0,5.8,0,6.4v12.8c0,0.3,0.1,0.6,0.3,0.8
	c0.3,0.2,0.5,0.4,0.8,0.4c0,0,21.6,2.9,21.7,2.9c0.6,0,1.1-0.5,1.2-1.1l0-13C24,8.7,23.5,8.2,22.9,8.1z"/>
</svg>
